<svg width="118" height="118" viewBox="0 0 118 118" fill="none" xmlns="http://www.w3.org/2000/svg">
<path d="M94.5 0L97.0258 20.9742L118 23.5L97.0258 26.0258L94.5 47L91.9742 26.0258L71 23.5L91.9742 20.9742L94.5 0Z" fill="#002B8A"/>
<path d="M110.5 38L111.306 44.6939L118 45.5L111.306 46.3061L110.5 53L109.694 46.3061L103 45.5L109.694 44.6939L110.5 38Z" fill="#002B8A"/>
<path d="M52.5 81L54.0959 97.9041L71 99.5L54.0959 101.096L52.5 118L50.9041 101.096L34 99.5L50.9041 97.9041L52.5 81Z" fill="#002B8A"/>
<path d="M12.5 33L13.5783 44.4217L25 45.5L13.5783 46.5783L12.5 58L11.4217 46.5783L0 45.5L11.4217 44.4217L12.5 33Z" fill="#002B8A"/>
</svg>
