<svg width="96" height="100" viewBox="0 0 96 100" fill="none" xmlns="http://www.w3.org/2000/svg">
<path fill-rule="evenodd" clip-rule="evenodd" d="M48.247 0.937505H47.753C43.4853 0.937371 39.9264 0.93726 37.1012 1.31709C34.1192 1.71802 31.4269 2.59995 29.2634 4.76343C27.0999 6.92692 26.218 9.61922 25.8171 12.6012C25.5448 14.6265 25.4678 19.4695 25.446 23.6219C15.8403 23.9356 10.073 25.057 6.06497 29.065C0.5 34.6299 0.5 43.5866 0.5 61.5C0.5 79.4134 0.5 88.3701 6.06497 93.935C11.6299 99.5 20.5866 99.5 38.4999 99.5H57.5C75.4133 99.5 84.3701 99.5 89.935 93.935C95.5 88.3701 95.5 79.4134 95.5 61.5C95.5 43.5866 95.5 34.6299 89.935 29.065C85.927 25.057 80.1597 23.9356 70.554 23.6219C70.5323 19.4695 70.4552 14.6265 70.1829 12.6012C69.782 9.61922 68.9001 6.92692 66.7366 4.76343C64.5731 2.59995 61.8808 1.71802 58.8988 1.31709C56.0736 0.93726 52.5147 0.937371 48.247 0.937505ZM63.4277 23.5089C63.4061 19.4874 63.3378 15.1593 63.1215 13.5506C62.8268 11.3587 62.3175 10.4206 61.6985 9.80157C61.0795 9.18257 60.1413 8.67326 57.9494 8.37856C55.655 8.07008 52.5791 8.06252 48 8.06252C43.421 8.06252 40.345 8.07008 38.0506 8.37856C35.8587 8.67326 34.9206 9.18257 34.3016 9.80157C33.6826 10.4206 33.1733 11.3587 32.8786 13.5506C32.6623 15.1593 32.5939 19.4874 32.5724 23.5089C34.4316 23.5 36.4045 23.5 38.5 23.5H57.5C59.5955 23.5 61.5684 23.5 63.4277 23.5089ZM48 38.9375C49.9675 38.9375 51.5625 40.5325 51.5625 42.5V42.5486C56.7342 43.8516 61.0625 47.9293 61.0625 53.5833C61.0625 55.5509 59.4675 57.1458 57.5 57.1458C55.5325 57.1458 53.9375 55.5509 53.9375 53.5833C53.9375 51.7592 51.915 49.2292 48 49.2292C44.085 49.2292 42.0625 51.7592 42.0625 53.5833C42.0625 55.4075 44.085 57.9375 48 57.9375C54.5785 57.9375 61.0625 62.4963 61.0625 69.4167C61.0625 75.0708 56.7342 79.1485 51.5625 80.4514V80.5C51.5625 82.4675 49.9675 84.0625 48 84.0625C46.0325 84.0625 44.4375 82.4675 44.4375 80.5V80.4514C39.2658 79.1485 34.9375 75.0708 34.9375 69.4167C34.9375 67.4492 36.5325 65.8542 38.5 65.8542C40.4675 65.8542 42.0625 67.4492 42.0625 69.4167C42.0625 71.2408 44.085 73.7708 48 73.7708C51.915 73.7708 53.9375 71.2408 53.9375 69.4167C53.9375 67.5925 51.915 65.0625 48 65.0625C41.4215 65.0625 34.9375 60.5037 34.9375 53.5833C34.9375 47.9293 39.2658 43.8516 44.4375 42.5486V42.5C44.4375 40.5325 46.0325 38.9375 48 38.9375Z" fill="#839EFF"/>
</svg>
