<svg width="78" height="120" viewBox="0 0 78 120" fill="none" xmlns="http://www.w3.org/2000/svg">
<path d="M0 23.5C17.2287 21.8893 20.9908 15.4236 23.5848 0C25.4619 17.0613 30.4109 22.6287 48 23.5L47.9969 23.5005C33.3764 25.7038 25.1792 26.9392 23.5848 47C21.3077 32.6958 18.7141 25.6451 0 23.5Z" fill="#546ECE"/>
<path d="M48 69.5C58.768 68.5061 61.1192 64.5167 62.7405 55C63.9137 65.5272 67.0068 68.9624 78 69.5L77.9981 69.5003C68.8602 70.8598 63.737 71.622 62.7405 84C61.3173 75.174 59.6963 70.8235 48 69.5Z" fill="#546ECE"/>
<path d="M12 108.5C20.6144 107.712 22.4954 104.548 23.7924 97C24.7309 105.349 27.2055 108.074 36 108.5L35.9985 108.5C28.6882 109.578 24.5896 110.183 23.7924 120C22.6539 113 21.3571 109.55 12 108.5Z" fill="#546ECE"/>
</svg>
