<svg width="197" height="36" viewBox="0 0 197 36" fill="none" xmlns="http://www.w3.org/2000/svg">
<path d="M13.3228 11.76H8.56281V7.8H13.3228V11.76ZM23.4428 19.2C23.4428 20.76 24.4028 21.68 26.1628 21.68H27.0828C27.2428 21.68 27.4828 21.88 27.4828 23.92C27.4828 25.84 27.2428 26 27.0828 26H26.3228C25.0428 26 23.9628 25.64 23.4428 25.16V25.36C23.2828 31.44 18.8828 35.68 12.4028 35.68H10.7228C3.84281 35.68 0.0828096 31.52 0.0828096 24.48V16.72H4.20281V24.4C4.20281 28.96 6.28281 31.36 10.7628 31.36H12.4028C16.6428 31.36 19.2828 28.88 19.2828 24.76V12.72H23.4428V19.2ZM39.6628 12.72H43.8228V19.28C43.8228 23.52 41.1028 26 36.9028 26H27.1828C27.0228 26 26.7828 25.88 26.7828 23.92C26.7828 21.92 27.0228 21.68 27.1828 21.68H36.9028C38.5428 21.68 39.6628 20.8 39.6628 19.16V12.72ZM38.5028 30.68V34.56H27.5828V30.68H38.5028ZM50.2922 26V0.159999H54.4122V21.68H59.0122C60.6122 21.68 61.7722 20.76 61.7722 19.16V0.159999H65.8922V19.28C65.8922 23.52 63.1722 26 59.0122 26H50.2922ZM157.372 25.84L157.772 21.68H174.292C174.452 21.68 174.692 21.88 174.692 23.92C174.692 25.84 174.452 26 174.292 26H170.372C170.652 26.32 170.812 26.96 170.812 27.6C170.812 32.36 166.492 35.68 159.892 35.68H156.852C149.972 35.68 146.212 31.52 146.212 24.48V16.72H150.332V24.4C150.332 28.96 152.412 31.36 156.892 31.36H159.892C164.532 31.36 166.652 29.96 166.652 27.64C166.652 26.36 166.012 25.84 164.572 25.84H157.372ZM177.286 21.68C181.246 21.68 183.526 21.24 186.366 19.6L191.406 16.72C190.686 14.2 189.566 13.44 187.046 13.44H177.806L178.326 9.12H187.766C192.646 9.12 194.686 11.28 196.246 18.08L188.286 23.08C184.646 25.36 181.806 26 177.086 26H174.406C174.246 26 174.006 25.88 174.006 23.92C174.006 21.92 174.246 21.68 174.406 21.68H177.286ZM186.126 34.6H181.366V30.68H186.126V34.6Z" fill="#002B8A"/>
<path d="M93.01 25.84L93.41 21.68H109.93C110.09 21.68 110.33 21.88 110.33 23.92C110.33 25.84 110.09 26 109.93 26H106.01C106.29 26.32 106.45 26.96 106.45 27.6C106.45 32.36 102.13 35.68 95.53 35.68H92.49C85.61 35.68 81.85 31.52 81.85 24.48V16.72H85.97V24.4C85.97 28.96 88.05 31.36 92.53 31.36H95.53C100.17 31.36 102.29 29.96 102.29 27.64C102.29 26.36 101.65 25.84 100.21 25.84H93.01ZM112.924 21.68C116.884 21.68 119.164 21.24 122.004 19.6L127.044 16.72C126.324 14.2 125.204 13.44 122.684 13.44H113.444L113.964 9.12H123.404C128.284 9.12 130.324 11.28 131.884 18.08L123.924 23.08C120.284 25.36 117.444 26 112.724 26H110.044C109.884 26 109.644 25.88 109.644 23.92C109.644 21.92 109.884 21.68 110.044 21.68H112.924ZM121.764 34.6H117.004V30.68H121.764V34.6Z" fill="#FF6A00"/>
</svg>
