<svg width="311" height="50" viewBox="0 0 311 50" fill="none" xmlns="http://www.w3.org/2000/svg">
<path d="M8.36515 39.6C5.42515 39.6 2.72515 39.12 0.50515 38.28V30.72C2.24515 31.5 4.40515 31.92 6.68515 31.92C11.0052 31.92 12.5652 30.24 12.5652 26.04V2.28H20.7252V28.14C20.7252 35.76 16.5252 39.6 8.36515 39.6ZM41.5847 39.6C32.4047 39.6 26.9447 34.86 26.9447 25.44C26.9447 16.38 31.5647 11.4 40.1447 11.4C47.7047 11.4 52.6247 15.72 52.6247 23.52V28.2H34.5047C35.1647 32.1 37.7447 34.14 43.6247 34.14C46.4447 34.14 49.2047 33.48 51.1847 32.76V37.74C48.7247 39 45.4847 39.6 41.5847 39.6ZM34.5047 23.4H45.5447V21.96C45.5447 19.02 44.1047 16.92 40.3247 16.92C35.9447 16.92 34.5047 19.56 34.5047 23.4ZM63.0995 49.02C60.5795 49.02 59.0195 48.78 57.3395 48V42.06C58.4795 42.54 59.4995 42.66 60.5795 42.66C63.3995 42.66 64.7195 41.16 66.1595 38.4L54.7595 12H63.3995L70.1795 30L77.1395 12H85.5995L75.8195 36.84C72.9995 44.22 69.5195 49.02 63.0995 49.02ZM230.631 39H205.971V2.28H214.191V32.1H230.631V39ZM245.179 7.62H236.299V0.839998H245.179V7.62ZM245.179 39H237.019V18.6H233.179L233.779 12H245.179V39ZM260.914 39H252.694V12H260.314L260.614 14.28C262.834 12.66 266.074 11.4 270.214 11.4C276.394 11.4 278.914 14.58 278.914 21.36V39H270.814V22.44C270.814 19.38 269.734 18.12 266.374 18.12C264.334 18.12 262.234 19.14 260.914 20.52V39ZM299.284 39.6C290.104 39.6 284.644 34.86 284.644 25.44C284.644 16.38 289.264 11.4 297.844 11.4C305.404 11.4 310.324 15.72 310.324 23.52V28.2H292.204C292.864 32.1 295.444 34.14 301.324 34.14C304.144 34.14 306.904 33.48 308.884 32.76V37.74C306.424 39 303.184 39.6 299.284 39.6ZM292.204 23.4H303.244V21.96C303.244 19.02 301.804 16.92 298.024 16.92C293.644 16.92 292.204 19.56 292.204 23.4Z" fill="#002B8A"/>
<path d="M109.898 39.6C106.958 39.6 104.258 39.12 102.038 38.28V30.72C103.778 31.5 105.938 31.92 108.218 31.92C112.538 31.92 114.098 30.24 114.098 26.04V2.28H122.258V28.14C122.258 35.76 118.058 39.6 109.898 39.6ZM143.117 39.6C133.937 39.6 128.477 34.86 128.477 25.44C128.477 16.38 133.097 11.4 141.677 11.4C149.237 11.4 154.157 15.72 154.157 23.52V28.2H136.037C136.697 32.1 139.277 34.14 145.157 34.14C147.977 34.14 150.737 33.48 152.717 32.76V37.74C150.257 39 147.017 39.6 143.117 39.6ZM136.037 23.4H147.077V21.96C147.077 19.02 145.637 16.92 141.857 16.92C137.477 16.92 136.037 19.56 136.037 23.4ZM164.632 49.02C162.112 49.02 160.552 48.78 158.872 48V42.06C160.012 42.54 161.032 42.66 162.112 42.66C164.932 42.66 166.252 41.16 167.692 38.4L156.292 12H164.932L171.712 30L178.672 12H187.132L177.352 36.84C174.532 44.22 171.052 49.02 164.632 49.02Z" fill="#FF6A00"/>
</svg>
