<svg width="12" height="12" viewBox="0 0 12 12" fill="none" xmlns="http://www.w3.org/2000/svg">
<path d="M0.5 6C0.5 7.22384 0.566229 8.17317 0.730763 8.91351C0.894036 9.64817 1.14739 10.146 1.50068 10.4993C1.85397 10.8526 2.35183 11.106 3.08649 11.2692C3.82683 11.4338 4.77616 11.5 6 11.5C7.22384 11.5 8.17317 11.4338 8.91351 11.2692C9.64817 11.106 10.146 10.8526 10.4993 10.4993C10.8526 10.146 11.106 9.64817 11.2692 8.91351C11.4338 8.17317 11.5 7.22384 11.5 6C11.5 4.77616 11.4338 3.82683 11.2692 3.08649C11.106 2.35183 10.8526 1.85397 10.4993 1.50068C10.146 1.14739 9.64817 0.894036 8.91351 0.730763C8.17317 0.566229 7.22384 0.5 6 0.5C4.77616 0.5 3.82683 0.566229 3.08649 0.730763C2.35183 0.894036 1.85397 1.14739 1.50068 1.50068C1.14739 1.85397 0.894036 2.35183 0.730763 3.08649C0.566229 3.82683 0.5 4.77616 0.5 6Z" stroke="#E76382" stroke-linecap="round" stroke-linejoin="round"/>
<path fill-rule="evenodd" clip-rule="evenodd" d="M6.5 4C6.5 3.72386 6.27614 3.5 6 3.5C5.72386 3.5 5.5 3.72386 5.5 4V7C5.5 7.27614 5.72386 7.5 6 7.5C6.27614 7.5 6.5 7.27614 6.5 7V4ZM6 8C5.72386 8 5.5 8.22386 5.5 8.5C5.5 8.77614 5.72386 9 6 9C6.27614 9 6.5 8.77614 6.5 8.5C6.5 8.22386 6.27614 8 6 8Z" fill="#E76382"/>
</svg>
