<svg width="16" height="16" viewBox="0 0 16 16" fill="none" xmlns="http://www.w3.org/2000/svg">
<path d="M11 11.9995C10.448 11.9997 10.0001 12.4475 9.99997 12.9995C9.99997 13.5517 10.4479 13.9993 11 13.9995C11.5523 13.9995 12 13.5518 12 12.9995C11.9998 12.4474 11.5522 11.9995 11 11.9995ZM4.99997 11.9995C4.44798 11.9997 4.00016 12.4475 3.99997 12.9995C3.99997 13.5517 4.44786 13.9993 4.99997 13.9995C5.55225 13.9995 5.99997 13.5518 5.99997 12.9995C5.99978 12.4474 5.55214 11.9995 4.99997 11.9995ZM14.6113 1.83352C14.5196 1.57328 14.2339 1.4365 13.9736 1.52785L13.7724 1.59914C13.3615 1.74361 13.012 1.86572 12.7373 2.00051C12.4436 2.14463 12.1923 2.32293 12.0029 2.60012C11.815 2.87513 11.737 3.17653 11.7011 3.50734C11.6851 3.6554 11.6763 3.81943 11.6718 3.99953H4.58005C3.45684 3.99953 2.44543 3.99966 2.14938 4.3843C1.85342 4.76902 1.96973 5.34895 2.20114 6.50832L2.53415 8.12453C2.74423 9.14379 2.84895 9.6539 3.21677 9.95363C3.58456 10.2533 4.10497 10.2534 5.14548 10.2534H8.68063C10.5399 10.2534 11.4702 10.2533 12.0478 9.64406C12.6253 9.03489 12.667 8.38717 12.667 6.42629V4.69191C12.667 4.19869 12.6678 3.86821 12.6953 3.61477C12.7215 3.37278 12.768 3.25161 12.8281 3.16359C12.8868 3.07783 12.976 2.99795 13.1777 2.89895C13.3929 2.79334 13.6858 2.6892 14.1308 2.53273L14.3047 2.47121C14.5652 2.37962 14.7029 2.09403 14.6113 1.83352ZM9.75095 5.50734C10.0229 5.55369 10.2062 5.81142 10.1601 6.08352L9.80759 8.16164C9.76147 8.43387 9.50364 8.61785 9.23142 8.5718C8.95915 8.52567 8.77611 8.26691 8.82224 7.99465L9.1738 5.91652C9.21992 5.64426 9.47868 5.46122 9.75095 5.50734ZM5.56442 5.50734C5.83669 5.46122 6.09545 5.64426 6.14157 5.91652L6.49313 7.99465C6.53925 8.26688 6.35616 8.52562 6.08395 8.5718C5.81169 8.61792 5.55293 8.4339 5.50681 8.16164L5.15524 6.08352C5.10913 5.81134 5.29231 5.55359 5.56442 5.50734Z" fill="#6A8358"/>
</svg>
