<svg width="15" height="15" viewBox="0 0 15 15" fill="none" xmlns="http://www.w3.org/2000/svg">
<path d="M7.46875 3.79688C9.4375 3.79688 11.0625 5.42188 11.0625 7.39062C11.0625 9.39062 9.4375 10.9844 7.46875 10.9844C5.46875 10.9844 3.875 9.39062 3.875 7.39062C3.875 5.42188 5.46875 3.79688 7.46875 3.79688ZM7.46875 9.73438C8.75 9.73438 9.78125 8.70312 9.78125 7.39062C9.78125 6.10938 8.75 5.07812 7.46875 5.07812C6.15625 5.07812 5.125 6.10938 5.125 7.39062C5.125 8.70312 6.1875 9.73438 7.46875 9.73438ZM12.0312 3.67188C12.0312 4.14062 11.6562 4.51562 11.1875 4.51562C10.7188 4.51562 10.3438 4.14062 10.3438 3.67188C10.3438 3.20312 10.7188 2.82812 11.1875 2.82812C11.6562 2.82812 12.0312 3.20312 12.0312 3.67188ZM14.4062 4.51562C14.4688 5.67188 14.4688 9.14062 14.4062 10.2969C14.3438 11.4219 14.0938 12.3906 13.2812 13.2344C12.4688 14.0469 11.4688 14.2969 10.3438 14.3594C9.1875 14.4219 5.71875 14.4219 4.5625 14.3594C3.4375 14.2969 2.46875 14.0469 1.625 13.2344C0.8125 12.3906 0.5625 11.4219 0.5 10.2969C0.4375 9.14062 0.4375 5.67188 0.5 4.51562C0.5625 3.39062 0.8125 2.39062 1.625 1.57812C2.46875 0.765625 3.4375 0.515625 4.5625 0.453125C5.71875 0.390625 9.1875 0.390625 10.3438 0.453125C11.4688 0.515625 12.4688 0.765625 13.2812 1.57812C14.0938 2.39062 14.3438 3.39062 14.4062 4.51562ZM12.9062 11.5156C13.2812 10.6094 13.1875 8.42188 13.1875 7.39062C13.1875 6.39062 13.2812 4.20312 12.9062 3.26562C12.6562 2.67188 12.1875 2.17188 11.5938 1.95312C10.6562 1.57812 8.46875 1.67188 7.46875 1.67188C6.4375 1.67188 4.25 1.57812 3.34375 1.95312C2.71875 2.20312 2.25 2.67188 2 3.26562C1.625 4.20312 1.71875 6.39062 1.71875 7.39062C1.71875 8.42188 1.625 10.6094 2 11.5156C2.25 12.1406 2.71875 12.6094 3.34375 12.8594C4.25 13.2344 6.4375 13.1406 7.46875 13.1406C8.46875 13.1406 10.6562 13.2344 11.5938 12.8594C12.1875 12.6094 12.6875 12.1406 12.9062 11.5156Z" fill="#6A8358"/>
</svg>
