<svg width="68" height="14" viewBox="0 0 68 14" fill="none" xmlns="http://www.w3.org/2000/svg">
<path d="M4.10453 8.858C4.10453 9.95933 3.90853 10.7527 3.51653 11.238C3.12453 11.7327 2.5412 11.98 1.76653 11.98C1.32787 11.98 0.781866 11.9333 0.128533 11.84V9.964H1.23453C1.38387 9.964 1.47253 9.94533 1.50053 9.908C1.52853 9.87067 1.54253 9.782 1.54253 9.642V1.074H4.10453V8.858ZM8.61333 11.098C7.50266 11.098 6.644 10.7807 6.03733 10.146C5.44 9.51133 5.14133 8.564 5.14133 7.304C5.14133 6.10933 5.44466 5.162 6.05133 4.462C6.658 3.75267 7.512 3.398 8.61333 3.398H8.89333C9.92933 3.398 10.7133 3.72933 11.2453 4.392C11.7773 5.04533 12.0433 5.99267 12.0433 7.234C12.0433 7.60733 12.034 7.88733 12.0153 8.074C11.9967 8.26067 11.9873 8.37267 11.9873 8.41L9.67733 7.5C9.67733 6.92133 9.64466 6.478 9.57933 6.17C9.52333 5.85267 9.43466 5.638 9.31333 5.526C9.192 5.40467 9.02866 5.344 8.82333 5.344H8.72533C8.34266 5.344 8.058 5.484 7.87133 5.764C7.68466 6.03467 7.59133 6.548 7.59133 7.304C7.59133 7.88267 7.624 8.30267 7.68933 8.564C7.75466 8.816 7.86666 8.984 8.02533 9.068C8.184 9.14267 8.436 9.18 8.78133 9.18C9.724 9.18 10.7087 9.11467 11.7353 8.984L11.9453 10.776C11.1987 10.888 10.578 10.9673 10.0833 11.014C9.58866 11.07 9.09866 11.098 8.61333 11.098ZM7.19933 6.758H11.5813L11.9873 8.41H7.22733L7.19933 6.758ZM15.9561 8.858L17.2581 3.398H19.6381L16.9501 13.478H14.5561L15.2701 11H14.3321L12.4001 3.398H14.7661L15.9561 8.858ZM42.8356 1.074H45.2716V8.928H48.3236V11H42.8356V1.074ZM49.1667 3.398H51.6027V11H49.1667V3.398ZM49.1667 0.541999H51.6027V2.558H49.1667V0.541999ZM57.3954 5.694C57.3954 5.582 57.3487 5.498 57.2554 5.442C57.1714 5.386 57.0781 5.36733 56.9754 5.386L55.1834 5.778L55.2674 3.804C55.3141 3.78533 55.3981 3.748 55.5194 3.692C55.6501 3.62667 55.8087 3.57067 55.9954 3.524L56.7934 3.342C56.9334 3.314 57.0734 3.3 57.2134 3.3C57.6521 3.3 58.0721 3.40733 58.4734 3.622C58.8841 3.83667 59.2107 4.13067 59.4534 4.504C59.7054 4.868 59.8314 5.26933 59.8314 5.708V11H57.3954V5.694ZM52.9854 3.118H55.4214V11H52.9854V3.118ZM64.2872 11.098C63.1765 11.098 62.3178 10.7807 61.7112 10.146C61.1138 9.51133 60.8152 8.564 60.8152 7.304C60.8152 6.10933 61.1185 5.162 61.7252 4.462C62.3318 3.75267 63.1858 3.398 64.2872 3.398H64.5672C65.6032 3.398 66.3872 3.72933 66.9192 4.392C67.4512 5.04533 67.7172 5.99267 67.7172 7.234C67.7172 7.60733 67.7078 7.88733 67.6892 8.074C67.6705 8.26067 67.6612 8.37267 67.6612 8.41L65.3512 7.5C65.3512 6.92133 65.3185 6.478 65.2532 6.17C65.1972 5.85267 65.1085 5.638 64.9872 5.526C64.8658 5.40467 64.7025 5.344 64.4972 5.344H64.3992C64.0165 5.344 63.7318 5.484 63.5452 5.764C63.3585 6.03467 63.2652 6.548 63.2652 7.304C63.2652 7.88267 63.2978 8.30267 63.3632 8.564C63.4285 8.816 63.5405 8.984 63.6992 9.068C63.8578 9.14267 64.1098 9.18 64.4552 9.18C65.3978 9.18 66.3825 9.11467 67.4092 8.984L67.6192 10.776C66.8725 10.888 66.2518 10.9673 65.7572 11.014C65.2625 11.07 64.7725 11.098 64.2872 11.098ZM62.8732 6.758H67.2552L67.6612 8.41H62.9012L62.8732 6.758Z" fill="#6A8358"/>
<path d="M25.108 8.858C25.108 9.95933 24.912 10.7527 24.52 11.238C24.128 11.7327 23.5447 11.98 22.77 11.98C22.3314 11.98 21.7854 11.9333 21.132 11.84V9.964H22.238C22.3874 9.964 22.476 9.94533 22.504 9.908C22.532 9.87067 22.546 9.782 22.546 9.642V1.074H25.108V8.858ZM29.6168 11.098C28.5062 11.098 27.6475 10.7807 27.0408 10.146C26.4435 9.51133 26.1448 8.564 26.1448 7.304C26.1448 6.10933 26.4482 5.162 27.0548 4.462C27.6615 3.75267 28.5155 3.398 29.6168 3.398H29.8968C30.9328 3.398 31.7168 3.72933 32.2488 4.392C32.7808 5.04533 33.0468 5.99267 33.0468 7.234C33.0468 7.60733 33.0375 7.88733 33.0188 8.074C33.0002 8.26067 32.9908 8.37267 32.9908 8.41L30.6808 7.5C30.6808 6.92133 30.6482 6.478 30.5828 6.17C30.5268 5.85267 30.4382 5.638 30.3168 5.526C30.1955 5.40467 30.0322 5.344 29.8268 5.344H29.7288C29.3462 5.344 29.0615 5.484 28.8748 5.764C28.6882 6.03467 28.5948 6.548 28.5948 7.304C28.5948 7.88267 28.6275 8.30267 28.6928 8.564C28.7582 8.816 28.8702 8.984 29.0288 9.068C29.1875 9.14267 29.4395 9.18 29.7848 9.18C30.7275 9.18 31.7122 9.11467 32.7388 8.984L32.9488 10.776C32.2022 10.888 31.5815 10.9673 31.0868 11.014C30.5922 11.07 30.1022 11.098 29.6168 11.098ZM28.2028 6.758H32.5848L32.9908 8.41H28.2308L28.2028 6.758ZM36.9597 8.858L38.2617 3.398H40.6417L37.9537 13.478H35.5597L36.2737 11H35.3357L33.4037 3.398H35.7697L36.9597 8.858Z" fill="#FF6A00"/>
</svg>
