<svg width="17" height="17" viewBox="0 0 17 17" fill="none" xmlns="http://www.w3.org/2000/svg">
<path d="M8.54688 0.640625C12.8281 0.640625 16.2969 4.10938 16.2969 8.39062C16.2969 12.6719 12.8281 16.1406 8.54688 16.1406C4.26562 16.1406 0.796875 12.6719 0.796875 8.39062C0.796875 4.10938 4.26562 0.640625 8.54688 0.640625ZM12.3281 5.95312C12.4531 5.45312 12.1406 5.23438 11.7969 5.35938L4.32812 8.23438C3.82812 8.42188 3.82812 8.73438 4.23438 8.85938L6.14062 9.45312L10.5781 6.64062C10.7969 6.51562 10.9844 6.60938 10.8281 6.73438L7.23438 9.98438L7.10938 11.9531C7.29688 11.9531 7.39062 11.8594 7.48438 11.7656L8.42188 10.8594L10.3594 12.2969C10.7344 12.4844 10.9844 12.3906 11.0781 11.9531L12.3281 5.95312Z" fill="#6A8358"/>
</svg>
