<svg width="17" height="14" viewBox="0 0 17 14" fill="none" xmlns="http://www.w3.org/2000/svg">
<path d="M14.75 4.14062C14.75 4.29688 14.75 4.42188 14.75 4.57812C14.75 8.92188 11.4688 13.8906 5.4375 13.8906C3.5625 13.8906 1.84375 13.3594 0.40625 12.4219C0.65625 12.4531 0.90625 12.4844 1.1875 12.4844C2.71875 12.4844 4.125 11.9531 5.25 11.0781C3.8125 11.0469 2.59375 10.1094 2.1875 8.79688C2.40625 8.82812 2.59375 8.85938 2.8125 8.85938C3.09375 8.85938 3.40625 8.79688 3.65625 8.73438C2.15625 8.42188 1.03125 7.10938 1.03125 5.51562V5.48438C1.46875 5.73438 2 5.85938 2.53125 5.89062C1.625 5.29688 1.0625 4.29688 1.0625 3.17188C1.0625 2.54688 1.21875 1.98438 1.5 1.51562C3.125 3.48438 5.5625 4.79688 8.28125 4.95312C8.21875 4.70312 8.1875 4.45312 8.1875 4.20312C8.1875 2.39062 9.65625 0.921875 11.4688 0.921875C12.4062 0.921875 13.25 1.29688 13.875 1.95312C14.5938 1.79688 15.3125 1.51562 15.9375 1.14062C15.6875 1.92188 15.1875 2.54688 14.5 2.95312C15.1562 2.89062 15.8125 2.70312 16.375 2.45312C15.9375 3.10938 15.375 3.67188 14.75 4.14062Z" fill="#6A8358"/>
</svg>
