<svg width="75" height="75" viewBox="0 0 75 75" fill="none" xmlns="http://www.w3.org/2000/svg">
<path opacity="0.4" d="M36.8437 44.4063L26.625 54.625C25.5 53.625 24.4062 52.5937 23.3437 51.5312C20.125 48.2812 17.2187 44.875 14.625 41.3125C12.0625 37.75 10 34.1875 8.5 30.6563C7 27.0938 6.25 23.6875 6.25 20.4375C6.25 18.3125 6.625 16.2813 7.375 14.4063C8.125 12.5 9.3125 10.75 10.9687 9.1875C12.9687 7.21875 15.1563 6.25 17.4688 6.25C18.3438 6.25 19.2188 6.4375 20 6.8125C20.8125 7.1875 21.5313 7.75 22.0938 8.5625L29.3438 18.7813C29.9063 19.5625 30.3125 20.2813 30.5937 20.9688C30.875 21.625 31.0313 22.2813 31.0313 22.875C31.0313 23.625 30.8125 24.375 30.375 25.0937C29.9688 25.8125 29.375 26.5625 28.625 27.3125L26.25 29.7812C25.9062 30.125 25.75 30.5313 25.75 31.0313C25.75 31.2813 25.7813 31.5 25.8438 31.75C25.9375 32 26.0313 32.1875 26.0938 32.375C26.6563 33.4062 27.625 34.75 29 36.375C30.4062 38 31.9062 39.6563 33.5312 41.3125C34.6562 42.4063 35.75 43.4688 36.8437 44.4063Z" fill="#ED1A31"/>
<path d="M68.6562 57.2812C68.6562 58.1562 68.5 59.0625 68.1875 59.9375C68.0938 60.1875 68 60.4375 67.875 60.6875C67.3437 61.8125 66.6563 62.875 65.75 63.875C64.2188 65.5625 62.5313 66.7813 60.625 67.5625C60.5937 67.5625 60.5625 67.5937 60.5313 67.5937C58.6875 68.3437 56.6875 68.75 54.5313 68.75C51.3438 68.75 47.9375 68 44.3437 66.4688C40.75 64.9375 37.1562 62.875 33.5937 60.2813C32.375 59.375 31.1563 58.4687 30 57.5L40.2187 47.2813C41.0937 47.9375 41.875 48.4375 42.5312 48.7812C42.6875 48.8437 42.875 48.9375 43.0937 49.0312C43.3437 49.125 43.5937 49.1562 43.875 49.1562C44.4062 49.1562 44.8125 48.9688 45.1562 48.625L47.5313 46.2813C48.3125 45.5 49.0625 44.9063 49.7813 44.5313C50.5 44.0938 51.2187 43.875 52 43.875C52.5937 43.875 53.2188 44 53.9063 44.2813C54.5938 44.5625 55.3125 44.9688 56.0938 45.5L66.4375 52.8437C67.25 53.4062 67.8125 54.0625 68.1563 54.8437C68.4688 55.625 68.6562 56.4062 68.6562 57.2812Z" fill="#ED1A31"/>
</svg>
