<svg width="17" height="17" viewBox="0 0 17 17" fill="none" xmlns="http://www.w3.org/2000/svg">
<path d="M11.75 14C11.0599 14.0002 10.5002 14.5599 10.5 15.25C10.5 15.9402 11.0598 16.4998 11.75 16.5C12.4404 16.5 13 15.9404 13 15.25C12.9998 14.5598 12.4403 14 11.75 14ZM4.25 14C3.55994 14.0002 3.0002 14.5599 3 15.25C3 15.9402 3.55982 16.4998 4.25 16.5C4.94036 16.5 5.5 15.9404 5.5 15.25C5.4998 14.5598 4.94023 14 4.25 14ZM16.2637 1.29297C16.1492 0.96733 15.7924 0.796645 15.4668 0.911133L15.2158 0.999023C14.7021 1.17961 14.2653 1.3325 13.9219 1.50098C13.5547 1.68114 13.2397 1.90346 13.0029 2.25C12.768 2.59384 12.6708 2.97116 12.626 3.38477C12.6059 3.56985 12.5954 3.77484 12.5898 4H3.72461C2.32061 4 1.05645 4.00058 0.686523 4.48145C0.316892 4.96233 0.461796 5.68694 0.750977 7.13574L1.16699 9.15625C1.42955 10.4301 1.56092 11.0677 2.02051 11.4424C2.48023 11.817 3.13102 11.8174 4.43164 11.8174H8.85059C11.1747 11.8174 12.3376 11.8172 13.0596 11.0557C13.7815 10.2942 13.834 9.48442 13.834 7.0332V4.86523C13.834 4.24886 13.8349 3.8363 13.8691 3.51953C13.9019 3.21674 13.9599 3.06515 14.0352 2.95508C14.1085 2.84779 14.2202 2.7479 14.4727 2.62402C14.7417 2.49202 15.1077 2.36161 15.6641 2.16602L15.8809 2.08984C16.2065 1.97536 16.3781 1.6186 16.2637 1.29297ZM10.1885 5.88379C10.5286 5.94158 10.7577 6.26436 10.7002 6.60449L10.2598 9.20312C10.202 9.54334 9.87932 9.77249 9.53906 9.71484C9.19878 9.65716 8.9697 9.33444 9.02734 8.99414L9.46777 6.39551C9.52563 6.05542 9.84829 5.82616 10.1885 5.88379ZM4.95605 5.88379C5.29614 5.82639 5.61898 6.05548 5.67676 6.39551L6.11621 8.99414C6.17387 9.33447 5.94482 9.65719 5.60449 9.71484C5.26429 9.77238 4.94151 9.5433 4.88379 9.20312L4.44434 6.60449C4.38676 6.26421 4.61577 5.94144 4.95605 5.88379Z" fill="white"/>
</svg>
