<svg width="634" height="426" viewBox="0 0 634 426" fill="none" xmlns="http://www.w3.org/2000/svg">
<mask id="path-1-outside-1_570_1068" maskUnits="userSpaceOnUse" x="-44.4187" y="-0.213058" width="697.954" height="437.55" fill="black">
<rect fill="white" x="-44.4187" y="-0.213058" width="697.954" height="437.55"/>
<path d="M60.6975 420.162C49.8818 424.979 40.2408 425.945 31.7746 423.06C23.2433 420.029 16.3086 412.521 10.9705 400.536C6.47868 390.451 3.50432 378.464 2.04741 364.575C0.736659 350.621 2.51307 337.307 7.37664 324.631C12.3213 311.745 21.5899 302.274 35.1826 296.22C43.9521 292.314 51.0101 291.448 56.3566 293.62C61.8493 295.728 65.8976 299.705 68.5015 305.551C70.78 310.667 71.4415 315.101 70.486 318.855C69.5305 322.608 67.3719 325.234 64.0103 326.731C61.5256 327.837 58.5772 328.1 55.1652 327.518C54.7708 321.913 53.7274 317.211 52.0348 313.411C50.798 310.634 49.3099 308.669 47.5707 307.517C45.8315 306.365 43.9388 306.245 41.8926 307.156C37.5079 309.109 34.7181 314.643 33.5231 323.758C32.3282 332.872 32.6207 343.164 34.4006 354.632C36.1805 366.1 38.8932 375.926 42.5387 384.111C45.7286 391.273 49.1517 395.616 52.8082 397.14C56.3995 398.518 60.9722 397.97 66.5262 395.496C74.4188 391.981 80.3283 387.159 84.2548 381.032C88.3275 374.839 92.0655 366.518 95.4688 356.07L102.923 352.75C98.7425 387.015 84.6674 409.485 60.6975 420.162ZM144.564 382.807C133.749 387.625 124.108 388.591 115.641 385.706C107.11 382.675 100.175 375.167 94.8372 363.182C90.3454 353.097 87.3711 341.11 85.9142 327.221C84.4572 313.332 86.2337 300.018 91.2434 287.277C96.188 274.391 105.53 264.888 119.269 258.768C135.346 251.608 146.509 255.043 152.759 269.074C156.404 277.259 157.418 285.828 155.801 294.78C154.184 303.733 150.446 312.053 144.587 319.742C138.663 327.285 131.447 333.301 122.938 337.792C124.599 342.307 125.755 345.295 126.405 346.757C129.595 353.919 133.018 358.261 136.675 359.786C140.266 361.164 144.839 360.616 150.393 358.142C158.286 354.627 164.195 349.805 168.122 343.678C172.194 337.485 175.932 329.164 179.336 318.715L186.79 315.395C182.609 349.661 168.534 372.131 144.564 382.807ZM120.005 326.487C125.283 323.786 129.552 319.608 132.813 313.952C136.22 308.231 138.18 302.015 138.695 295.305C139.356 288.531 138.351 282.147 135.682 276.154C133.013 270.162 129.852 267.979 126.198 269.607C120.936 271.95 117.798 278.865 116.784 290.352C115.916 301.773 116.989 313.818 120.005 326.487ZM218.785 349.75C211.769 352.875 205.092 353.221 198.755 350.789C192.563 348.292 187.514 342.659 183.608 333.89C181.981 330.236 180.45 325.225 179.015 318.858L153.552 198.572L184.046 179.735L211.564 309.353C211.956 311.806 212.705 314.274 213.811 316.759C215.113 319.682 216.715 321.509 218.616 322.238C220.599 322.756 223.198 322.299 226.413 320.867C230.652 318.979 233.817 315.468 235.908 310.333C237.935 305.051 238.483 299.202 237.552 292.786L246.759 288.685C248.382 306.879 246.225 320.713 240.286 330.189C234.283 339.519 227.116 346.039 218.785 349.75ZM286.606 319.542C275.79 324.36 266.149 325.326 257.683 322.441C249.152 319.41 242.217 311.902 236.879 299.917C232.387 289.832 229.413 277.845 227.956 263.956C226.499 250.067 228.275 236.753 233.285 224.012C238.23 211.126 247.571 201.623 261.31 195.503C277.388 188.343 288.551 191.778 294.801 205.809C298.446 213.994 299.46 222.562 297.843 231.515C296.225 240.468 292.487 248.788 286.629 256.477C280.705 264.02 273.489 270.036 264.98 274.527C266.64 279.042 267.796 282.03 268.447 283.492C271.637 290.653 275.06 294.996 278.717 296.521C282.308 297.899 286.881 297.351 292.435 294.877C300.327 291.362 306.237 286.54 310.163 280.412C314.236 274.22 317.974 265.899 321.377 255.45L328.831 252.13C324.651 286.395 310.576 308.866 286.606 319.542ZM262.047 263.222C267.324 260.521 271.593 256.343 274.854 250.687C278.261 244.966 280.222 238.75 280.737 232.04C281.397 225.265 280.393 218.882 277.724 212.889C275.055 206.897 271.893 204.714 268.24 206.342C262.978 208.685 259.84 215.6 258.825 227.087C257.957 238.508 259.031 250.553 262.047 263.222ZM365.43 284.434C357.099 288.145 348.887 288.387 340.794 285.16C332.702 281.934 325.954 274.255 320.55 262.124C315.733 251.308 312.807 239.037 311.773 225.311C310.819 211.373 312.759 198.423 317.59 186.463C322.503 174.291 330.879 165.569 342.718 160.296C348.71 157.627 353.624 156.664 357.458 157.408C361.293 158.153 363.958 160.206 365.456 163.567L366.139 165.102L363.376 152.408L394.946 138.347L412.361 219.918C412.753 222.371 413.502 224.84 414.609 227.324C417.408 233.609 421.804 235.417 427.796 232.748C431.889 230.925 434.55 227.463 435.781 222.361C437.158 217.194 437.356 211.15 436.376 204.23L445.584 200.129C447.206 218.323 445.268 232.06 439.768 241.34C434.349 250.41 427.62 256.735 419.582 260.315C413.443 263.049 407.725 263.582 402.428 261.913C397.211 260.032 392.773 255.966 389.113 249.715C387.543 257.595 384.974 264.607 381.405 270.751C377.917 276.683 372.592 281.244 365.43 284.434ZM370.209 256.821C373.863 255.194 376.695 251.918 378.705 246.994C380.797 241.859 381.166 236.002 379.812 229.423L368.267 175.189C367.421 173.289 365.877 171.787 363.634 170.684C361.326 169.435 358.637 169.494 355.568 170.861C349.722 173.465 345.99 179.243 344.372 188.196C342.69 197.002 342.681 206.815 344.347 217.633C345.948 228.305 348.375 237.295 351.63 244.603C354.885 251.911 357.992 256.132 360.949 257.267C364.053 258.337 367.139 258.188 370.209 256.821ZM419.745 127.301L451.315 113.24L454.519 128.102C457.536 121.504 460.496 116.157 463.401 112.061C466.452 107.899 470.316 104.777 474.993 102.694C479.67 100.611 484.04 100.591 488.103 102.635C492.312 104.613 495.426 107.868 497.444 112.399C499.332 116.638 499.603 120.983 498.258 125.436C496.914 129.888 493.756 133.221 488.787 135.434C485.572 136.866 483.054 137.112 481.234 136.171C479.494 135.019 477.681 133.112 475.795 130.449C474.51 128.744 473.453 127.551 472.624 126.869C471.795 126.188 470.796 126.107 469.627 126.628C466.557 127.995 464.219 129.825 462.613 132.116C461.087 134.197 459.327 137.521 457.333 142.087L476.9 233.209L445.33 247.27L419.745 127.301ZM562.709 196.566C554.378 200.277 546.166 200.519 538.073 197.293C529.981 194.066 523.233 186.387 517.829 174.256C513.012 163.441 510.086 151.169 509.052 137.443C508.099 123.505 510.038 110.556 514.869 98.5951C519.782 86.4232 528.158 77.7008 539.997 72.4278C545.989 69.7588 550.903 68.7964 554.737 69.5406C558.572 70.2849 561.238 72.3378 562.735 75.6995L563.125 76.5764L551.409 21.3671L581.903 2.53051L609.421 132.148C609.813 134.601 610.464 136.85 611.376 138.897C613.98 144.743 618.278 146.331 624.27 143.662C626.901 142.491 629.044 141.011 630.7 139.222C633.37 146.791 633.246 153.589 630.326 159.619C627.488 165.437 622.926 169.746 616.642 172.545C610.795 175.149 605.175 175.901 599.781 174.8C594.467 173.489 589.786 170.056 585.736 164.504C582.37 180.541 574.694 191.228 562.709 196.566ZM567.488 168.953C570.703 167.521 573.3 164.7 575.279 160.491C577.404 156.217 578.163 151.237 577.558 145.552L576.872 141.653L565.254 86.6632C561.66 82.1336 557.524 80.9103 552.847 82.9935C547.001 85.5974 543.269 91.3757 541.652 100.328C539.969 109.135 539.961 118.947 541.626 129.765C543.227 140.437 545.655 149.427 548.909 156.735C552.164 164.043 555.271 168.264 558.228 169.399C561.332 170.469 564.419 170.32 567.488 168.953Z"/>
</mask>
<path d="M31.7746 423.06L31.4398 424.002L31.452 424.007L31.7746 423.06ZM2.04741 364.575L1.05174 364.669L1.05287 364.68L2.04741 364.575ZM7.37664 324.631L6.443 324.273L7.37664 324.631ZM56.3566 293.62L55.9802 294.547L55.9892 294.55L55.9984 294.554L56.3566 293.62ZM70.486 318.855L71.4551 319.101L71.4551 319.101L70.486 318.855ZM55.1652 327.518L54.1677 327.588L54.2228 328.371L54.997 328.503L55.1652 327.518ZM33.5231 323.758L34.5147 323.888L33.5231 323.758ZM34.4006 354.632L35.3888 354.478L34.4006 354.632ZM52.8082 397.14L52.4234 398.063L52.4366 398.068L52.4499 398.073L52.8082 397.14ZM84.2549 381.032L83.4193 380.482L83.4129 380.492L84.2549 381.032ZM95.4688 356.07L95.0619 355.156L94.6557 355.337L94.5179 355.76L95.4688 356.07ZM102.923 352.75L103.915 352.871L104.129 351.117L102.516 351.836L102.923 352.75ZM60.6975 420.162L60.2906 419.248C49.6289 423.997 40.2559 424.894 32.0971 422.113L31.7746 423.06L31.452 424.007C40.2257 426.996 50.1347 425.961 61.1043 421.075L60.6975 420.162ZM31.7746 423.06L32.1094 422.118C23.9335 419.213 17.1611 411.977 11.884 400.129L10.9705 400.536L10.057 400.943C15.456 413.064 22.553 420.845 31.4398 424.002L31.7746 423.06ZM10.9705 400.536L11.884 400.129C7.4445 390.162 4.49067 378.282 3.04196 364.471L2.04741 364.575L1.05287 364.68C2.51798 378.647 5.51286 390.74 10.057 400.943L10.9705 400.536ZM2.04741 364.575L3.04303 364.482C1.7462 350.676 3.50369 337.517 8.31027 324.99L7.37664 324.631L6.443 324.273C1.52245 337.097 -0.272883 350.567 1.0518 364.669L2.04741 364.575ZM7.37664 324.631L8.31027 324.99C13.152 312.371 22.2182 303.089 35.5895 297.134L35.1826 296.22L34.7758 295.307C20.9617 301.46 11.4905 311.118 6.443 324.273L7.37664 324.631ZM35.1826 296.22L35.5895 297.134C44.2674 293.269 51.0096 292.527 55.9802 294.547L56.3566 293.62L56.7331 292.694C51.0106 290.368 43.6368 291.36 34.7758 295.307L35.1826 296.22ZM56.3566 293.62L55.9984 294.554C61.2205 296.558 65.0816 300.33 67.5881 305.958L68.5015 305.551L69.415 305.144C66.7136 299.079 62.4781 294.898 56.7149 292.687L56.3566 293.62ZM68.5015 305.551L67.5881 305.958C69.8146 310.957 70.3969 315.151 69.5169 318.608L70.486 318.855L71.4551 319.101C72.486 315.051 71.7454 310.376 69.415 305.144L68.5015 305.551ZM70.486 318.855L69.5169 318.608C68.6323 322.083 66.6689 324.452 63.6034 325.817L64.0103 326.731L64.4171 327.644C68.0749 326.015 70.4287 323.133 71.4551 319.101L70.486 318.855ZM64.0103 326.731L63.6034 325.817C61.3425 326.824 58.6036 327.09 55.3334 326.532L55.1652 327.518L54.997 328.503C58.5508 329.11 61.7087 328.851 64.4171 327.644L64.0103 326.731ZM55.1652 327.518L56.1627 327.447C55.7629 321.765 54.7017 316.941 52.9483 313.004L52.0348 313.411L51.1213 313.818C52.7531 317.481 53.7788 322.062 54.1677 327.588L55.1652 327.518ZM52.0348 313.411L52.9483 313.004C51.6675 310.128 50.0775 307.978 48.123 306.684L47.5707 307.517L47.0185 308.351C48.5423 309.36 49.9284 311.139 51.1213 313.818L52.0348 313.411ZM47.5707 307.517L48.123 306.684C46.0744 305.327 43.8167 305.205 41.4858 306.243L41.8926 307.156L42.2995 308.07C44.061 307.285 45.5886 307.404 47.0185 308.351L47.5707 307.517ZM41.8926 307.156L41.4858 306.243C36.5789 308.428 33.732 314.471 32.5316 323.628L33.5231 323.758L34.5147 323.888C35.7041 314.815 38.4369 309.79 42.2995 308.07L41.8926 307.156ZM33.5231 323.758L32.5316 323.628C31.3216 332.857 31.6216 343.247 33.4125 354.785L34.4006 354.632L35.3888 354.478C33.6198 343.081 33.3348 332.887 34.5147 323.888L33.5231 323.758ZM34.4006 354.632L33.4125 354.785C35.2021 366.316 37.935 376.232 41.6253 384.518L42.5387 384.111L43.4522 383.704C39.8515 375.62 37.1589 365.883 35.3888 354.478L34.4006 354.632ZM42.5387 384.111L41.6253 384.518C44.831 391.715 48.3878 396.381 52.4234 398.063L52.8082 397.14L53.1929 396.217C49.9157 394.851 46.6262 390.83 43.4522 383.704L42.5387 384.111ZM52.8082 397.14L52.4499 398.073C56.3999 399.589 61.2729 398.931 66.9331 396.41L66.5262 395.496L66.1194 394.583C60.6716 397.009 56.3992 397.447 53.1664 396.206L52.8082 397.14ZM66.5262 395.496L66.9331 396.41C74.9701 392.83 81.0465 387.892 85.0968 381.571L84.2549 381.032L83.4129 380.492C79.6101 386.427 73.8674 391.132 66.1194 394.583L66.5262 395.496ZM84.2549 381.032L85.0904 381.581C89.2294 375.287 93.0007 366.876 96.4196 356.379L95.4688 356.07L94.5179 355.76C91.1304 366.16 87.4257 374.39 83.4193 380.482L84.2549 381.032ZM95.4688 356.07L95.8756 356.983L103.33 353.663L102.923 352.75L102.516 351.836L95.0619 355.156L95.4688 356.07ZM102.923 352.75L101.93 352.628C97.7772 386.67 83.8393 408.76 60.2906 419.248L60.6975 420.162L61.1043 421.075C85.4955 410.211 99.7079 387.36 103.915 352.871L102.923 352.75ZM115.641 385.706L115.307 386.648L115.319 386.652L115.641 385.706ZM85.9142 327.221L86.9087 327.117L85.9142 327.221ZM91.2434 287.277L92.1741 287.643L92.177 287.636L91.2434 287.277ZM155.801 294.78L156.785 294.958L155.801 294.78ZM144.587 319.742L145.374 320.36L145.378 320.354L145.383 320.348L144.587 319.742ZM122.938 337.792L122.471 336.908L121.697 337.316L122 338.137L122.938 337.792ZM136.675 359.786L136.29 360.709L136.303 360.714L136.317 360.719L136.675 359.786ZM168.122 343.678L167.286 343.128L167.28 343.138L168.122 343.678ZM179.336 318.715L178.929 317.802L178.522 317.983L178.385 318.406L179.336 318.715ZM186.79 315.395L187.782 315.517L187.996 313.763L186.383 314.482L186.79 315.395ZM120.005 326.487L119.032 326.719L119.327 327.958L120.46 327.378L120.005 326.487ZM132.813 313.952L131.953 313.44L131.946 313.452L132.813 313.952ZM138.695 295.305L137.7 295.208L137.699 295.219L137.698 295.229L138.695 295.305ZM116.784 290.352L115.788 290.264L115.787 290.276L116.784 290.352ZM144.564 382.807L144.157 381.894C133.496 386.643 124.123 387.54 115.964 384.759L115.641 385.706L115.319 386.652C124.092 389.642 134.001 388.607 144.971 383.721L144.564 382.807ZM115.641 385.706L115.976 384.764C107.8 381.859 101.028 374.623 95.7507 362.775L94.8372 363.182L93.9237 363.589C99.3227 375.71 106.42 383.491 115.307 386.648L115.641 385.706ZM94.8372 363.182L95.7507 362.775C91.3112 352.808 88.3574 340.928 86.9087 327.117L85.9142 327.221L84.9196 327.326C86.3847 341.292 89.3796 353.386 93.9237 363.589L94.8372 363.182ZM85.9142 327.221L86.9087 327.117C85.4682 313.384 87.2242 300.231 92.174 287.643L91.2434 287.277L90.3127 286.911C85.2431 299.804 83.4463 313.281 84.9196 327.326L85.9142 327.221ZM91.2434 287.277L92.177 287.636C97.0176 275.02 106.155 265.704 119.675 259.682L119.269 258.768L118.862 257.855C104.905 264.072 95.3584 273.761 90.3098 286.919L91.2434 287.277ZM119.269 258.768L119.675 259.682C127.602 256.152 134.147 255.312 139.405 256.93C144.63 258.538 148.799 262.641 151.845 269.481L152.759 269.074L153.672 268.667C150.469 261.476 145.932 256.846 139.993 255.018C134.088 253.201 127.013 254.224 118.862 257.855L119.269 258.768ZM152.759 269.074L151.845 269.481C155.408 277.479 156.399 285.844 154.817 294.602L155.801 294.78L156.785 294.958C158.438 285.811 157.401 277.038 153.672 268.667L152.759 269.074ZM155.801 294.78L154.817 294.602C153.229 303.39 149.56 311.565 143.792 319.136L144.587 319.742L145.383 320.348C151.331 312.542 155.138 304.076 156.785 294.958L155.801 294.78ZM144.587 319.742L143.801 319.125C137.964 326.556 130.857 332.482 122.471 336.908L122.938 337.792L123.405 338.676C132.038 334.121 139.363 328.013 145.374 320.36L144.587 319.742ZM122.938 337.792L122 338.137C123.658 342.647 124.825 345.667 125.492 347.164L126.405 346.757L127.319 346.35C126.684 344.924 125.539 341.967 123.877 337.447L122.938 337.792ZM126.405 346.757L125.492 347.164C128.698 354.361 132.255 359.026 136.29 360.709L136.675 359.786L137.06 358.863C133.782 357.497 130.493 353.476 127.319 346.35L126.405 346.757ZM136.675 359.786L136.317 360.719C140.267 362.235 145.14 361.577 150.8 359.056L150.393 358.142L149.986 357.229C144.538 359.655 140.266 360.092 137.033 358.852L136.675 359.786ZM150.393 358.142L150.8 359.056C158.837 355.476 164.913 350.538 168.964 344.217L168.122 343.678L167.28 343.138C163.477 349.072 157.734 353.778 149.986 357.229L150.393 358.142ZM168.122 343.678L168.957 344.227C173.096 337.933 176.867 329.522 180.286 319.025L179.336 318.715L178.385 318.406C174.997 328.806 171.292 337.036 167.286 343.128L168.122 343.678ZM179.336 318.715L179.742 319.629L187.196 316.309L186.79 315.395L186.383 314.482L178.929 317.802L179.336 318.715ZM186.79 315.395L185.797 315.274C181.644 349.316 167.706 371.405 144.157 381.894L144.564 382.807L144.971 383.721C169.362 372.857 183.575 350.005 187.782 315.517L186.79 315.395ZM120.005 326.487L120.46 327.378C125.927 324.58 130.332 320.257 133.679 314.451L132.813 313.952L131.946 313.452C128.772 318.959 124.638 322.993 119.549 325.597L120.005 326.487ZM132.813 313.952L133.672 314.464C137.159 308.608 139.166 302.244 139.692 295.382L138.695 295.305L137.698 295.229C137.195 301.787 135.281 307.853 131.953 313.44L132.813 313.952ZM138.695 295.305L139.69 295.403C140.367 288.462 139.338 281.904 136.596 275.748L135.682 276.154L134.769 276.561C137.365 282.39 138.344 288.599 137.7 295.208L138.695 295.305ZM135.682 276.154L136.596 275.748C135.233 272.688 133.682 270.446 131.878 269.2C129.996 267.901 127.921 267.745 125.791 268.693L126.198 269.607L126.605 270.52C128.129 269.841 129.462 269.963 130.741 270.846C132.098 271.783 133.462 273.628 134.769 276.561L135.682 276.154ZM126.198 269.607L125.791 268.693C122.873 269.993 120.625 272.53 118.987 276.138C117.354 279.737 116.3 284.46 115.788 290.264L116.784 290.352L117.78 290.44C118.282 284.757 119.304 280.28 120.809 276.964C122.309 273.657 124.261 271.564 126.605 270.52L126.198 269.607ZM116.784 290.352L115.787 290.276C114.91 301.813 115.996 313.963 119.032 326.719L120.005 326.487L120.978 326.256C117.983 313.674 116.922 301.733 117.781 290.428L116.784 290.352ZM198.755 350.789L198.381 351.717L198.388 351.72L198.396 351.723L198.755 350.789ZM179.015 318.858L178.037 319.065L178.04 319.078L179.015 318.858ZM153.552 198.572L153.026 197.721L152.428 198.091L152.574 198.779L153.552 198.572ZM184.046 179.735L185.024 179.528L184.729 178.138L183.521 178.885L184.046 179.735ZM211.564 309.353L212.551 309.195L212.547 309.17L212.542 309.145L211.564 309.353ZM218.616 322.238L218.258 323.172L218.31 323.192L218.363 323.206L218.616 322.238ZM235.908 310.333L236.835 310.71L236.838 310.7L236.842 310.691L235.908 310.333ZM237.552 292.786L237.145 291.873L236.453 292.181L236.562 292.93L237.552 292.786ZM246.759 288.685L247.756 288.596L247.631 287.202L246.353 287.771L246.759 288.685ZM240.286 330.189L241.127 330.73L241.134 330.72L240.286 330.189ZM218.785 349.75L218.378 348.836C211.57 351.869 205.17 352.18 199.113 349.856L198.755 350.789L198.396 351.723C205.015 354.262 211.968 353.881 219.191 350.663L218.785 349.75ZM198.755 350.789L199.129 349.862C193.266 347.497 188.369 342.119 184.522 333.483L183.608 333.89L182.695 334.297C186.66 343.199 191.861 349.087 198.381 351.717L198.755 350.789ZM183.608 333.89L184.522 333.483C182.933 329.915 181.419 324.976 179.991 318.638L179.015 318.858L178.04 319.078C179.481 325.474 181.029 330.557 182.695 334.297L183.608 333.89ZM179.015 318.858L179.994 318.651L154.53 198.365L153.552 198.572L152.574 198.779L178.037 319.065L179.015 318.858ZM153.552 198.572L154.078 199.423L184.572 180.586L184.046 179.735L183.521 178.885L153.026 197.721L153.552 198.572ZM184.046 179.735L183.068 179.943L210.586 309.561L211.564 309.353L212.542 309.145L185.024 179.528L184.046 179.735ZM211.564 309.353L210.576 309.511C210.983 312.057 211.759 314.609 212.898 317.166L213.811 316.759L214.725 316.352C213.65 313.94 212.928 311.554 212.551 309.195L211.564 309.353ZM213.811 316.759L212.898 317.166C214.248 320.197 215.999 322.305 218.258 323.172L218.616 322.238L218.975 321.305C217.431 320.712 215.979 319.167 214.725 316.352L213.811 316.759ZM218.616 322.238L218.363 323.206C220.675 323.81 223.532 323.245 226.82 321.781L226.413 320.867L226.006 319.954C222.863 321.354 220.523 321.703 218.869 321.271L218.616 322.238ZM226.413 320.867L226.82 321.781C231.339 319.768 234.666 316.035 236.835 310.71L235.908 310.333L234.982 309.955C232.968 314.901 229.964 318.191 226.006 319.954L226.413 320.867ZM235.908 310.333L236.842 310.691C238.938 305.228 239.493 299.203 238.541 292.643L237.552 292.786L236.562 292.93C237.472 299.202 236.932 304.875 234.975 309.974L235.908 310.333ZM237.552 292.786L237.958 293.7L247.166 289.598L246.759 288.685L246.353 287.771L237.145 291.873L237.552 292.786ZM246.759 288.685L245.763 288.774C247.378 306.877 245.208 320.452 239.439 329.658L240.286 330.189L241.134 330.72C247.241 320.975 249.386 306.881 247.756 288.596L246.759 288.685ZM240.286 330.189L239.445 329.648C233.524 338.85 226.496 345.221 218.378 348.836L218.785 349.75L219.191 350.663C227.735 346.858 235.041 340.188 241.127 330.73L240.286 330.189ZM257.683 322.441L257.348 323.383L257.36 323.387L257.683 322.441ZM227.956 263.956L228.95 263.852L227.956 263.956ZM233.285 224.012L234.216 224.378L234.219 224.37L233.285 224.012ZM297.843 231.515L298.827 231.693L297.843 231.515ZM286.629 256.477L287.415 257.095L287.42 257.089L287.424 257.083L286.629 256.477ZM264.98 274.527L264.513 273.642L263.739 274.051L264.041 274.872L264.98 274.527ZM278.717 296.521L278.332 297.444L278.345 297.449L278.358 297.454L278.717 296.521ZM310.163 280.412L309.328 279.863L309.321 279.873L310.163 280.412ZM321.377 255.45L320.97 254.537L320.564 254.718L320.426 255.141L321.377 255.45ZM328.831 252.13L329.824 252.251L330.038 250.498L328.424 251.217L328.831 252.13ZM262.046 263.222L261.074 263.454L261.369 264.693L262.502 264.113L262.046 263.222ZM274.854 250.687L273.995 250.175L273.988 250.187L274.854 250.687ZM280.737 232.04L279.741 231.943L279.74 231.954L279.739 231.964L280.737 232.04ZM258.825 227.087L257.829 226.999L257.828 227.011L258.825 227.087ZM286.606 319.542L286.199 318.629C275.537 323.378 266.164 324.274 258.006 321.494L257.683 322.441L257.36 323.387C266.134 326.377 276.043 325.342 287.013 320.456L286.606 319.542ZM257.683 322.441L258.018 321.499C249.842 318.594 243.07 311.358 237.792 299.51L236.879 299.917L235.965 300.324C241.364 312.445 248.461 320.226 257.348 323.383L257.683 322.441ZM236.879 299.917L237.792 299.51C233.353 289.542 230.399 277.662 228.95 263.852L227.956 263.956L226.961 264.06C228.426 278.027 231.421 290.121 235.965 300.324L236.879 299.917ZM227.956 263.956L228.95 263.852C227.51 250.119 229.266 236.966 234.216 224.378L233.285 224.012L232.354 223.646C227.285 236.539 225.488 250.015 226.961 264.06L227.956 263.956ZM233.285 224.012L234.219 224.37C239.059 211.755 248.197 202.439 261.717 196.417L261.31 195.503L260.903 194.59C246.946 200.806 237.4 210.496 232.351 223.654L233.285 224.012ZM261.31 195.503L261.717 196.417C269.643 192.887 276.189 192.047 281.447 193.665C286.672 195.273 290.841 199.376 293.887 206.216L294.801 205.809L295.714 205.402C292.511 198.211 287.973 193.581 282.035 191.753C276.13 189.936 269.055 190.959 260.903 194.59L261.31 195.503ZM294.801 205.809L293.887 206.216C297.45 214.214 298.441 222.579 296.859 231.337L297.843 231.515L298.827 231.693C300.479 222.546 299.443 213.773 295.714 205.402L294.801 205.809ZM297.843 231.515L296.859 231.337C295.271 240.124 291.602 248.3 285.833 255.871L286.629 256.477L287.424 257.083C293.372 249.277 297.179 240.811 298.827 231.693L297.843 231.515ZM286.629 256.477L285.842 255.859C280.006 263.291 272.898 269.217 264.513 273.642L264.98 274.527L265.446 275.411C274.079 270.855 281.405 264.748 287.415 257.095L286.629 256.477ZM264.98 274.527L264.041 274.872C265.7 279.382 266.867 282.401 267.534 283.899L268.447 283.492L269.361 283.085C268.725 281.659 267.581 278.702 265.918 274.182L264.98 274.527ZM268.447 283.492L267.534 283.899C270.739 291.096 274.296 295.761 278.332 297.444L278.717 296.521L279.101 295.598C275.824 294.231 272.535 290.211 269.361 283.085L268.447 283.492ZM278.717 296.521L278.358 297.454C282.308 298.97 287.181 298.311 292.841 295.79L292.435 294.877L292.028 293.963C286.58 296.39 282.308 296.827 279.075 295.587L278.717 296.521ZM292.435 294.877L292.841 295.79C300.879 292.211 306.955 287.273 311.005 280.952L310.163 280.412L309.321 279.873C305.519 285.807 299.776 290.512 292.028 293.963L292.435 294.877ZM310.163 280.412L310.999 280.962C315.138 274.668 318.909 266.257 322.328 255.76L321.377 255.45L320.426 255.141C317.039 265.541 313.334 273.771 309.328 279.863L310.163 280.412ZM321.377 255.45L321.784 256.364L329.238 253.044L328.831 252.13L328.424 251.217L320.97 254.537L321.377 255.45ZM328.831 252.13L327.839 252.009C323.686 286.051 309.748 308.14 286.199 318.629L286.606 319.542L287.013 320.456C311.404 309.592 325.616 286.74 329.824 252.251L328.831 252.13ZM262.046 263.222L262.502 264.113C267.969 261.315 272.374 256.992 275.721 251.186L274.854 250.687L273.988 250.187C270.813 255.694 266.68 259.728 261.591 262.332L262.046 263.222ZM274.854 250.687L275.713 251.198C279.2 245.343 281.207 238.979 281.734 232.117L280.737 232.04L279.739 231.964C279.237 238.522 277.322 244.588 273.995 250.175L274.854 250.687ZM280.737 232.04L281.732 232.137C282.409 225.197 281.38 218.639 278.637 212.482L277.724 212.889L276.811 213.296C279.406 219.124 280.386 225.334 279.741 231.943L280.737 232.04ZM277.724 212.889L278.637 212.482C277.275 209.423 275.724 207.181 273.919 205.935C272.037 204.636 269.962 204.48 267.833 205.428L268.24 206.342L268.646 207.255C270.171 206.576 271.503 206.698 272.783 207.581C274.14 208.518 275.504 210.363 276.811 213.296L277.724 212.889ZM268.24 206.342L267.833 205.428C264.915 206.728 262.666 209.264 261.029 212.872C259.396 216.471 258.342 221.195 257.829 226.999L258.825 227.087L259.822 227.175C260.323 221.492 261.346 217.015 262.85 213.699C264.351 210.392 266.302 208.299 268.646 207.255L268.24 206.342ZM258.825 227.087L257.828 227.011C256.951 238.548 258.037 250.698 261.074 263.454L262.046 263.222L263.019 262.991C260.025 250.409 258.963 238.468 259.823 227.162L258.825 227.087ZM340.794 285.16L340.424 286.089L340.794 285.16ZM311.773 225.311L310.775 225.379L310.776 225.386L311.773 225.311ZM317.59 186.463L318.517 186.837L318.518 186.837L317.59 186.463ZM357.458 157.408L357.649 156.427L357.458 157.408ZM366.139 165.102L365.226 165.509L367.116 164.889L366.139 165.102ZM363.376 152.408L362.969 151.495L362.225 151.826L362.398 152.621L363.376 152.408ZM394.946 138.347L395.924 138.138L395.666 136.931L394.539 137.433L394.946 138.347ZM412.361 219.918L413.348 219.76L413.344 219.735L413.339 219.709L412.361 219.918ZM435.781 222.361L434.814 222.103L434.811 222.115L434.809 222.126L435.781 222.361ZM436.376 204.23L435.969 203.317L435.28 203.624L435.385 204.37L436.376 204.23ZM445.584 200.129L446.58 200.04L446.455 198.646L445.177 199.216L445.584 200.129ZM439.768 241.34L440.626 241.853L440.628 241.85L439.768 241.34ZM402.428 261.913L402.089 262.853L402.108 262.86L402.127 262.866L402.428 261.913ZM389.113 249.715L389.976 249.21L388.646 246.938L388.132 249.519L389.113 249.715ZM381.405 270.751L382.267 271.258L382.27 271.253L381.405 270.751ZM378.705 246.994L379.631 247.372L379.632 247.371L378.705 246.994ZM379.812 229.423L380.792 229.222L380.79 229.215L379.812 229.423ZM368.267 175.189L369.245 174.98L369.224 174.878L369.181 174.782L368.267 175.189ZM363.634 170.684L363.158 171.564L363.175 171.573L363.193 171.582L363.634 170.684ZM344.372 188.196L345.355 188.384L345.356 188.374L344.372 188.196ZM344.347 217.633L345.336 217.485L345.335 217.481L344.347 217.633ZM360.949 257.267L360.591 258.201L360.607 258.207L360.623 258.212L360.949 257.267ZM365.43 284.434L365.023 283.521C356.926 287.127 348.994 287.353 341.165 284.232L340.794 285.16L340.424 286.089C348.78 289.421 357.273 289.162 365.837 285.348L365.43 284.434ZM340.794 285.16L341.165 284.232C333.415 281.142 326.815 273.732 321.464 261.717L320.55 262.124L319.637 262.531C325.092 274.778 331.988 282.726 340.424 286.089L340.794 285.16ZM320.55 262.124L321.464 261.717C316.7 251.022 313.797 238.866 312.77 225.235L311.773 225.311L310.776 225.386C311.817 239.209 314.766 251.595 319.637 262.531L320.55 262.124ZM311.773 225.311L312.77 225.242C311.827 211.443 313.747 198.646 318.517 186.837L317.59 186.463L316.663 186.088C311.77 198.201 309.812 211.303 310.775 225.379L311.773 225.311ZM317.59 186.463L318.518 186.837C323.335 174.902 331.526 166.375 343.124 161.209L342.718 160.296L342.311 159.382C330.232 164.762 321.671 173.68 316.663 186.089L317.59 186.463ZM342.718 160.296L343.124 161.209C349.044 158.573 353.73 157.704 357.268 158.39L357.458 157.408L357.649 156.427C353.517 155.625 348.376 156.681 342.311 159.382L342.718 160.296ZM357.458 157.408L357.268 158.39C360.805 159.077 363.187 160.932 364.542 163.974L365.456 163.567L366.369 163.16C364.73 159.48 361.78 157.229 357.649 156.427L357.458 157.408ZM365.456 163.567L364.542 163.974L365.226 165.509L366.139 165.102L367.053 164.695L366.369 163.16L365.456 163.567ZM366.139 165.102L367.116 164.889L364.353 152.195L363.376 152.408L362.398 152.621L365.162 165.315L366.139 165.102ZM363.376 152.408L363.782 153.322L395.353 139.26L394.946 138.347L394.539 137.433L362.969 151.495L363.376 152.408ZM394.946 138.347L393.968 138.556L411.383 220.127L412.361 219.918L413.339 219.709L395.924 138.138L394.946 138.347ZM412.361 219.918L411.373 220.076C411.78 222.622 412.556 225.175 413.695 227.731L414.609 227.324L415.522 226.917C414.448 224.505 413.725 222.12 413.348 219.76L412.361 219.918ZM414.609 227.324L413.695 227.731C415.153 231.004 417.101 233.281 419.625 234.319C422.16 235.361 425.055 235.064 428.203 233.661L427.796 232.748L427.389 231.834C424.545 233.101 422.246 233.234 420.385 232.469C418.513 231.699 416.864 229.93 415.522 226.917L414.609 227.324ZM427.796 232.748L428.203 233.661C432.63 231.69 435.464 227.941 436.753 222.595L435.781 222.361L434.809 222.126C433.637 226.985 431.148 230.161 427.389 231.834L427.796 232.748ZM435.781 222.361L436.747 222.618C438.167 217.288 438.359 211.104 437.366 204.09L436.376 204.23L435.385 204.37C436.352 211.196 436.148 217.099 434.814 222.103L435.781 222.361ZM436.376 204.23L436.782 205.144L445.99 201.043L445.584 200.129L445.177 199.216L435.969 203.317L436.376 204.23ZM445.584 200.129L444.587 200.218C446.203 218.333 444.249 231.817 438.908 240.831L439.768 241.34L440.628 241.85C446.286 232.302 448.209 218.312 446.58 200.04L445.584 200.129ZM439.768 241.34L438.91 240.828C433.575 249.756 426.99 255.921 419.175 259.402L419.582 260.315L419.989 261.229C428.251 257.549 435.124 251.063 440.626 241.853L439.768 241.34ZM419.582 260.315L419.175 259.402C413.21 262.058 407.746 262.54 402.728 260.959L402.428 261.913L402.127 262.866C407.704 264.624 413.676 264.04 419.989 261.229L419.582 260.315ZM402.428 261.913L402.767 260.972C397.831 259.193 393.555 255.322 389.976 249.21L389.113 249.715L388.25 250.22C391.992 256.611 396.592 260.872 402.089 262.853L402.428 261.913ZM389.113 249.715L388.132 249.519C386.581 257.306 384.047 264.212 380.54 270.248L381.405 270.751L382.27 271.253C385.901 265.003 388.505 257.885 390.094 249.91L389.113 249.715ZM381.405 270.751L380.543 270.244C377.175 275.972 372.022 280.403 365.023 283.521L365.43 284.434L365.837 285.348C373.162 282.085 378.659 277.394 382.267 271.258L381.405 270.751ZM370.209 256.821L370.616 257.734C374.574 255.971 377.556 252.454 379.631 247.372L378.705 246.994L377.78 246.616C375.834 251.382 373.151 254.416 369.802 255.908L370.209 256.821ZM378.705 246.994L379.632 247.371C381.812 242.017 382.177 235.953 380.792 229.222L379.812 229.423L378.833 229.625C380.155 236.051 379.782 241.7 377.779 246.617L378.705 246.994ZM379.812 229.423L380.79 229.215L369.245 174.98L368.267 175.189L367.289 175.397L378.834 229.632L379.812 229.423ZM368.267 175.189L369.181 174.782C368.221 172.627 366.484 170.971 364.075 169.787L363.634 170.684L363.193 171.582C365.269 172.603 366.621 173.95 367.354 175.596L368.267 175.189ZM363.634 170.684L364.11 169.805C361.455 168.368 358.427 168.493 355.161 169.948L355.568 170.861L355.975 171.775C358.848 170.495 361.197 170.503 363.158 171.564L363.634 170.684ZM355.568 170.861L355.161 169.948C348.897 172.738 345.038 178.888 343.388 188.018L344.372 188.196L345.356 188.374C346.942 179.599 350.546 174.193 355.975 171.775L355.568 170.861ZM344.372 188.196L343.39 188.008C341.682 196.949 341.679 206.878 343.359 217.785L344.347 217.633L345.335 217.481C343.683 206.751 343.698 197.056 345.355 188.384L344.372 188.196ZM344.347 217.633L343.358 217.781C344.968 228.514 347.415 237.597 350.717 245.01L351.63 244.603L352.544 244.196C349.336 236.993 346.928 228.096 345.336 217.485L344.347 217.633ZM351.63 244.603L350.717 245.01C352.36 248.699 353.984 251.652 355.596 253.843C357.196 256.017 358.852 257.533 360.591 258.201L360.949 257.267L361.307 256.333C360.089 255.866 358.713 254.704 357.207 252.657C355.712 250.626 354.156 247.815 352.544 244.196L351.63 244.603ZM360.949 257.267L360.623 258.212C363.973 259.367 367.321 259.202 370.616 257.734L370.209 256.821L369.802 255.908C366.958 257.174 364.133 257.307 361.275 256.322L360.949 257.267ZM419.745 127.301L419.338 126.388L418.598 126.717L418.767 127.51L419.745 127.301ZM451.315 113.24L452.293 113.029L452.033 111.825L450.908 112.327L451.315 113.24ZM454.519 128.102L453.542 128.313L454.177 131.257L455.429 128.518L454.519 128.102ZM463.401 112.061L462.595 111.469L462.59 111.476L462.585 111.482L463.401 112.061ZM488.103 102.635L487.654 103.528L487.666 103.534L487.678 103.54L488.103 102.635ZM498.258 125.435L497.301 125.146L498.258 125.435ZM481.233 136.171L480.681 137.005L480.726 137.035L480.774 137.059L481.233 136.171ZM475.795 130.449L476.611 129.871L476.602 129.859L476.593 129.847L475.795 130.449ZM472.624 126.869L473.259 126.097L472.624 126.869ZM462.613 132.116L463.419 132.708L463.426 132.699L463.432 132.69L462.613 132.116ZM457.333 142.087L456.417 141.687L456.288 141.982L456.355 142.297L457.333 142.087ZM476.9 233.209L477.307 234.123L478.048 233.793L477.878 232.999L476.9 233.209ZM445.33 247.27L444.352 247.479L444.609 248.686L445.737 248.184L445.33 247.27ZM419.745 127.301L420.152 128.215L451.722 114.153L451.315 113.24L450.908 112.327L419.338 126.388L419.745 127.301ZM451.315 113.24L450.338 113.451L453.542 128.313L454.519 128.102L455.497 127.891L452.293 113.029L451.315 113.24ZM454.519 128.102L455.429 128.518C458.43 121.954 461.36 116.667 464.217 112.639L463.401 112.061L462.585 111.482C459.632 115.647 456.642 121.054 453.61 127.686L454.519 128.102ZM463.401 112.061L464.208 112.652C467.156 108.63 470.883 105.619 475.4 103.608L474.993 102.694L474.586 101.781C469.749 103.935 465.748 107.169 462.595 111.469L463.401 112.061ZM474.993 102.694L475.4 103.608C479.842 101.629 483.894 101.637 487.654 103.528L488.103 102.635L488.552 101.742C484.186 99.545 479.498 99.5927 474.586 101.781L474.993 102.694ZM488.103 102.635L487.678 103.54C491.654 105.409 494.603 108.479 496.53 112.806L497.444 112.399L498.357 111.992C496.249 107.258 492.97 103.818 488.528 101.73L488.103 102.635ZM497.444 112.399L496.53 112.806C498.32 116.825 498.577 120.923 497.301 125.146L498.258 125.435L499.216 125.725C500.63 121.043 500.343 116.451 498.357 111.992L497.444 112.399ZM498.258 125.435L497.301 125.146C496.055 129.272 493.134 132.403 488.38 134.521L488.787 135.434L489.194 136.348C494.379 134.038 497.772 130.503 499.216 125.725L498.258 125.435ZM488.787 135.434L488.38 134.521C485.25 135.915 483.099 136.01 481.693 135.283L481.233 136.171L480.774 137.059C483.008 138.214 485.894 137.818 489.194 136.348L488.787 135.434ZM481.233 136.171L481.786 135.337C480.191 134.281 478.462 132.483 476.611 129.871L475.795 130.449L474.979 131.027C476.901 133.74 478.798 135.757 480.681 137.005L481.233 136.171ZM475.795 130.449L476.593 129.847C475.298 128.128 474.183 126.857 473.259 126.097L472.624 126.869L471.989 127.642C472.723 128.245 473.722 129.36 474.996 131.051L475.795 130.449ZM472.624 126.869L473.259 126.097C472.699 125.636 472.051 125.359 471.333 125.301C470.627 125.244 469.916 125.404 469.22 125.714L469.627 126.628L470.033 127.541C470.507 127.331 470.88 127.271 471.173 127.294C471.454 127.317 471.72 127.421 471.989 127.642L472.624 126.869ZM469.627 126.628L469.22 125.714C466.018 127.14 463.524 129.075 461.794 131.542L462.613 132.116L463.432 132.69C464.915 130.574 467.096 128.85 470.033 127.541L469.627 126.628ZM462.613 132.116L461.806 131.525C460.214 133.697 458.419 137.103 456.417 141.687L457.333 142.087L458.249 142.488C460.236 137.938 461.961 134.697 463.419 132.708L462.613 132.116ZM457.333 142.087L456.355 142.297L475.922 233.419L476.9 233.209L477.878 232.999L458.311 141.877L457.333 142.087ZM476.9 233.209L476.493 232.296L444.923 246.357L445.33 247.27L445.737 248.184L477.307 234.123L476.9 233.209ZM445.33 247.27L446.308 247.062L420.723 127.093L419.745 127.301L418.767 127.51L444.352 247.479L445.33 247.27ZM538.073 197.293L537.703 198.222L538.073 197.293ZM509.052 137.443L508.054 137.511L508.055 137.518L509.052 137.443ZM514.869 98.595L515.797 98.9696L515.797 98.9693L514.869 98.595ZM554.737 69.5406L554.928 68.559L554.737 69.5406ZM563.125 76.5764L562.212 76.9833L564.104 76.3688L563.125 76.5764ZM551.409 21.3671L550.884 20.5164L550.285 20.8863L550.431 21.5747L551.409 21.3671ZM581.903 2.5305L582.881 2.32284L582.586 0.933099L581.378 1.67975L581.903 2.5305ZM609.421 132.148L610.408 131.99L610.404 131.965L610.399 131.94L609.421 132.148ZM630.7 139.222L631.643 138.89L631.092 137.327L629.966 138.543L630.7 139.222ZM630.326 159.619L631.225 160.057L631.226 160.055L630.326 159.619ZM599.781 174.8L599.541 175.771L599.561 175.776L599.581 175.78L599.781 174.8ZM585.736 164.504L586.544 163.914L585.219 162.098L584.757 164.298L585.736 164.504ZM575.279 160.491L574.384 160.046L574.379 160.056L574.374 160.066L575.279 160.491ZM577.558 145.552L578.552 145.446L578.548 145.412L578.543 145.378L577.558 145.552ZM576.872 141.653L577.857 141.48L577.854 141.463L577.851 141.447L576.872 141.653ZM565.254 86.6632L566.232 86.4565L566.183 86.2261L566.037 86.0417L565.254 86.6632ZM541.652 100.328L542.634 100.516L542.636 100.506L541.652 100.328ZM541.626 129.765L542.615 129.617L542.615 129.613L541.626 129.765ZM558.228 169.399L557.87 170.333L557.886 170.339L557.902 170.345L558.228 169.399ZM562.709 196.566L562.302 195.653C554.205 199.259 546.273 199.485 538.444 196.364L538.073 197.293L537.703 198.222C546.059 201.553 554.552 201.294 563.116 197.48L562.709 196.566ZM538.073 197.293L538.444 196.364C530.694 193.274 524.094 185.865 518.743 173.849L517.829 174.256L516.916 174.663C522.371 186.91 529.267 194.858 537.703 198.222L538.073 197.293ZM517.829 174.256L518.743 173.849C513.979 163.154 511.076 150.998 510.049 137.368L509.052 137.443L508.055 137.518C509.096 151.341 512.045 163.727 516.916 174.663L517.829 174.256ZM509.052 137.443L510.05 137.375C509.106 123.575 511.026 110.778 515.797 98.9696L514.869 98.595L513.942 98.2205C509.049 110.333 507.091 123.435 508.054 137.511L509.052 137.443ZM514.869 98.595L515.797 98.9693C520.614 87.0345 528.805 78.5073 540.403 73.3413L539.997 72.4279L539.59 71.5144C527.511 76.8943 518.95 85.812 513.942 98.2208L514.869 98.595ZM539.997 72.4279L540.403 73.3413C546.323 70.7047 551.009 69.8357 554.547 70.5223L554.737 69.5406L554.928 68.559C550.796 67.7571 545.655 68.8129 539.59 71.5144L539.997 72.4279ZM554.737 69.5406L554.547 70.5223C558.084 71.2089 560.466 73.0638 561.821 76.1063L562.735 75.6995L563.648 75.2926C562.009 71.6119 559.059 69.3609 554.928 68.559L554.737 69.5406ZM562.735 75.6995L561.821 76.1063L562.212 76.9833L563.125 76.5764L564.039 76.1695L563.648 75.2926L562.735 75.6995ZM563.125 76.5764L564.104 76.3688L552.387 21.1596L551.409 21.3671L550.431 21.5747L562.147 76.784L563.125 76.5764ZM551.409 21.3671L551.935 22.2179L582.429 3.38127L581.903 2.5305L581.378 1.67975L550.884 20.5164L551.409 21.3671ZM581.903 2.5305L580.925 2.73818L608.443 132.356L609.421 132.148L610.399 131.94L582.881 2.32284L581.903 2.5305ZM609.421 132.148L608.433 132.306C608.837 134.835 609.512 137.17 610.462 139.303L611.376 138.896L612.289 138.49C611.417 136.531 610.788 134.366 610.408 131.99L609.421 132.148ZM611.376 138.896L610.462 139.303C611.829 142.373 613.717 144.491 616.206 145.411C618.688 146.328 621.546 145.971 624.677 144.576L624.27 143.662L623.863 142.749C621.002 144.023 618.715 144.206 616.899 143.535C615.089 142.866 613.526 141.266 612.289 138.49L611.376 138.896ZM624.27 143.662L624.677 144.576C627.41 143.359 629.671 141.806 631.434 139.902L630.7 139.222L629.966 138.543C628.418 140.216 626.393 141.622 623.863 142.749L624.27 143.662ZM630.7 139.222L629.757 139.555C632.357 146.925 632.207 153.44 629.426 159.183L630.326 159.619L631.226 160.055C634.285 153.738 634.383 146.656 631.643 138.89L630.7 139.222ZM630.326 159.619L629.428 159.18C626.699 164.773 622.319 168.921 616.235 171.631L616.642 172.545L617.048 173.458C623.533 170.57 628.277 166.101 631.225 160.057L630.326 159.619ZM616.642 172.545L616.235 171.631C610.547 174.165 605.139 174.873 599.98 173.82L599.781 174.8L599.581 175.78C605.211 176.929 611.044 176.133 617.048 173.458L616.642 172.545ZM599.781 174.8L600.02 173.829C594.989 172.587 590.492 169.327 586.544 163.914L585.736 164.504L584.928 165.093C589.08 170.786 593.945 174.39 599.541 175.771L599.781 174.8ZM585.736 164.504L584.757 164.298C581.439 180.108 573.921 190.478 562.302 195.653L562.709 196.566L563.116 197.48C575.467 191.979 583.301 180.973 586.715 164.709L585.736 164.504ZM567.488 168.953L567.895 169.867C571.392 168.309 574.137 165.272 576.184 160.917L575.279 160.491L574.374 160.066C572.464 164.129 570.015 166.733 567.081 168.04L567.488 168.953ZM575.279 160.491L576.174 160.936C578.399 156.46 579.174 151.283 578.552 145.446L577.558 145.552L576.563 145.658C577.153 151.192 576.408 155.973 574.384 160.046L575.279 160.491ZM577.558 145.552L578.543 145.378L577.857 141.48L576.872 141.653L575.887 141.826L576.573 145.725L577.558 145.552ZM576.872 141.653L577.851 141.447L566.232 86.4565L565.254 86.6632L564.275 86.8699L575.894 141.86L576.872 141.653ZM565.254 86.6632L566.037 86.0417C564.155 83.6697 562.062 82.0765 559.74 81.3896C557.403 80.6983 554.954 80.9606 552.44 82.08L552.847 82.9935L553.254 83.9069C555.418 82.9432 557.375 82.7755 559.173 83.3075C560.986 83.8438 562.758 85.1271 564.47 87.2847L565.254 86.6632ZM552.847 82.9935L552.44 82.08C546.176 84.8699 542.317 91.0201 540.667 100.15L541.652 100.328L542.636 100.506C544.221 91.7312 547.825 86.3249 553.254 83.9069L552.847 82.9935ZM541.652 100.328L540.669 100.141C538.961 109.081 538.959 119.01 540.638 129.917L541.626 129.765L542.615 129.613C540.963 118.884 540.977 109.189 542.634 100.516L541.652 100.328ZM541.626 129.765L540.637 129.914C542.247 140.646 544.694 149.729 547.996 157.142L548.909 156.735L549.823 156.328C546.615 149.126 544.207 140.229 542.615 129.617L541.626 129.765ZM548.909 156.735L547.996 157.142C549.639 160.831 551.263 163.784 552.875 165.975C554.475 168.149 556.131 169.665 557.87 170.333L558.228 169.399L558.586 168.466C557.368 167.998 555.992 166.837 554.486 164.789C552.991 162.758 551.435 159.947 549.823 156.328L548.909 156.735ZM558.228 169.399L557.902 170.345C561.252 171.499 564.6 171.334 567.895 169.867L567.488 168.953L567.081 168.04C564.237 169.306 561.412 169.439 558.554 168.454L558.228 169.399Z" fill="black" fill-opacity="0.1" mask="url(#path-1-outside-1_570_1068)"/>
</svg>
