<svg width="75" height="75" viewBox="0 0 75 75" fill="none" xmlns="http://www.w3.org/2000/svg">
<path d="M37.5 0L41.9829 6.32063L48.065 1.51901L50.5856 8.84659L57.774 5.95299L58.1281 13.6939L65.8406 12.9427L63.9995 20.4698L71.6112 21.9219L67.724 28.6254L74.6183 32.1632L69 37.5L74.6183 42.8368L67.724 46.3746L71.6112 53.0781L63.9995 54.5302L65.8406 62.0573L58.1281 61.3061L57.774 69.047L50.5856 66.1534L48.065 73.481L41.9829 68.6794L37.5 75L33.0171 68.6794L26.935 73.481L24.4144 66.1534L17.226 69.047L16.8719 61.3061L9.15939 62.0573L11.0005 54.5302L3.3888 53.0781L7.27597 46.3746L0.381695 42.8368L6 37.5L0.381695 32.1632L7.27597 28.6254L3.3888 21.9219L11.0005 20.4698L9.15939 12.9427L16.8719 13.6939L17.226 5.95299L24.4144 8.84659L26.935 1.51901L33.0171 6.32063L37.5 0Z" fill="#FFDAA9"/>
</svg>
