<svg width="75" height="75" viewBox="0 0 75 75" fill="none" xmlns="http://www.w3.org/2000/svg">
<path d="M51.8439 23.1562L19.7189 55.2813C18.2189 56.7813 15.6564 56.4375 14.7502 54.5313C13.1252 51.1875 12.1877 47.4062 12.1877 43.4375C12.1252 26.1875 29.6252 11.4375 35.5627 6.90625C36.7189 6.03125 38.2814 6.03125 39.4064 6.90625C42.1252 8.96875 47.2189 13.25 52.0002 18.875C53.0627 20.125 53.0002 22 51.8439 23.1562Z" fill="#ED1A31"/>
<path opacity="0.4" d="M62.8129 43.4691C62.8129 57.4066 51.4691 68.7503 37.5004 68.7503C31.9066 68.7503 26.6879 66.9378 22.4691 63.8128C20.9379 62.6878 20.8129 60.4378 22.1566 59.0941L53.6254 27.6253C55.0941 26.1566 57.5629 26.4691 58.5629 28.2816C61.1254 33.0003 62.8441 38.1253 62.8129 43.4691Z" fill="#ED1A31"/>
</svg>
