<svg width="75" height="75" viewBox="0 0 75 75" fill="none" xmlns="http://www.w3.org/2000/svg">
<path opacity="0.4" d="M53.125 64.0625H21.875C12.5 64.0625 6.25 59.375 6.25 48.4375V26.5625C6.25 15.625 12.5 10.9375 21.875 10.9375H53.125C62.5 10.9375 68.75 15.625 68.75 26.5625V48.4375C68.75 59.375 62.5 64.0625 53.125 64.0625Z" fill="#ED1A31"/>
<path d="M37.4997 40.2184C34.8747 40.2184 32.2184 39.4059 30.1872 37.7497L20.4059 29.9372C19.4059 29.1247 19.2184 27.6559 20.0309 26.6559C20.8434 25.6559 22.3122 25.4684 23.3122 26.2809L33.0934 34.0934C35.4684 35.9997 39.4997 35.9997 41.8747 34.0934L51.6559 26.2809C52.6559 25.4684 54.1559 25.6247 54.9372 26.6559C55.7497 27.6559 55.5934 29.1559 54.5622 29.9372L44.7809 37.7497C42.7809 39.4059 40.1247 40.2184 37.4997 40.2184Z" fill="#ED1A31"/>
</svg>
