<svg width="75" height="75" viewBox="0 0 75 75" fill="none" xmlns="http://www.w3.org/2000/svg">
<path opacity="0.5" d="M6.25 29.1172C6.25 40.7711 18.8107 53.0968 28.0054 60.5582C32.1679 63.9361 34.2491 65.625 37.5 65.625C40.7509 65.625 42.8321 63.9361 46.9946 60.5583C56.1893 53.0969 68.75 40.7713 68.75 29.1171C68.75 9.64838 51.562 2.37968 37.5 17.4191C23.438 2.37968 6.25 9.64838 6.25 29.1172Z" fill="#ED1A31"/>
<path fill-rule="evenodd" clip-rule="evenodd" d="M51.5625 19.5312C52.8569 19.5312 53.9062 20.5806 53.9062 21.875L53.9062 25.7813H57.8125C59.1069 25.7813 60.1562 26.8306 60.1562 28.1251C60.1562 29.4195 59.1069 30.4688 57.8125 30.4688H53.9062V34.375C53.9062 35.6694 52.8569 36.7188 51.5625 36.7188C50.2681 36.7188 49.2187 35.6694 49.2187 34.375L49.2187 30.4688L45.3125 30.4688C44.0181 30.4688 42.9688 29.4195 42.9688 28.1251C42.9687 26.8306 44.0181 25.7813 45.3125 25.7813H49.2187V21.875C49.2187 20.5806 50.2681 19.5312 51.5625 19.5312Z" fill="#ED1A31"/>
</svg>
