<svg width="343" height="474" viewBox="0 0 343 474" fill="none" xmlns="http://www.w3.org/2000/svg">
<path d="M1 12C1 5.37258 6.37258 0 13 0H126C132.627 0 138 5.37258 138 12V43.7888C138 50.4163 143.373 55.7888 150 55.7888H190.127H215.203H256.896H289C295.627 55.7888 301 50.4163 301 43.7888V12C301 5.37259 306.373 0 313 0H331C337.627 0 343 5.37258 343 12V225C343 231.351 337.851 236.5 331.5 236.5C325.149 236.5 320 241.649 320 248V402.375C320 408.726 325.149 413.875 331.5 413.875C337.851 413.875 343 419.024 343 425.375V461C343 467.627 337.627 473 331 473H172H86.5H55.75C49.1226 473 43.75 467.627 43.75 461V413.557C43.75 406.93 38.3774 401.557 31.75 401.557H13C6.37258 401.557 1 396.185 1 389.557V354.75V236.5V118.25V59.125V12Z" fill="#EDF7FF"/>
<path d="M329.23 211.35C329.405 211.175 329.755 211.075 330 211.13L331.125 211.39C331.225 211.41 332.28 211.547 332.475 211.475C332.625 211.42 332.74 211.335 332.825 211.22C333.05 210.915 332.995 210.44 332.67 209.885L331.8 208.42C331.665 208.19 331.665 207.81 331.8 207.58L332.67 206.115C332.865 205.785 332.96 205.485 332.96 205.23C332.96 205.055 332.915 204.905 332.825 204.78C332.6 204.47 332.13 204.38 331.505 204.525L330 204.87C329.755 204.93 329.41 204.83 329.23 204.65L328.015 203.44C327.635 203.06 327.23 202.91 326.88 203.02C326.53 203.135 326.29 203.49 326.2 204.02L326.115 204.525C326.06 204.84 325.92 205.69 325.835 205.835C325.75 205.98 325.625 206.115 325.495 206.18L323.77 207.04C323.275 207.29 323 207.63 323 208C323 208.37 323.275 208.71 323.77 208.96L325.495 209.82C325.7 209.925 325.9 210.2 325.94 210.425L326.2 211.985C326.29 212.515 326.53 212.87 326.88 212.985C327.23 213.095 327.635 212.945 328.015 212.565L329.23 211.35Z" fill="#1B94FF"/>
<path d="M329.23 197.35C329.405 197.175 329.755 197.075 330 197.13L331.125 197.39C331.225 197.41 332.28 197.547 332.475 197.475C332.625 197.42 332.74 197.335 332.825 197.22C333.05 196.915 332.995 196.44 332.67 195.885L331.8 194.42C331.665 194.19 331.665 193.81 331.8 193.58L332.67 192.115C332.865 191.785 332.96 191.485 332.96 191.23C332.96 191.055 332.915 190.905 332.825 190.78C332.6 190.47 332.13 190.38 331.505 190.525L330 190.87C329.755 190.93 329.41 190.83 329.23 190.65L328.015 189.44C327.635 189.06 327.23 188.91 326.88 189.02C326.53 189.135 326.29 189.49 326.2 190.02L326.115 190.525C326.06 190.84 325.92 191.69 325.835 191.835C325.75 191.98 325.625 192.115 325.495 192.18L323.77 193.04C323.275 193.29 323 193.63 323 194C323 194.37 323.275 194.71 323.77 194.96L325.495 195.82C325.7 195.925 325.9 196.2 325.94 196.425L326.2 197.985C326.29 198.515 326.53 198.87 326.88 198.985C327.23 199.095 327.635 198.945 328.015 198.565L329.23 197.35Z" fill="#1B94FF"/>
<path d="M329.23 183.35C329.405 183.175 329.755 183.075 330 183.13L331.125 183.39C331.225 183.41 332.28 183.547 332.475 183.475C332.625 183.42 332.74 183.335 332.825 183.22C333.05 182.915 332.995 182.44 332.67 181.885L331.8 180.42C331.665 180.19 331.665 179.81 331.8 179.58L332.67 178.115C332.865 177.785 332.96 177.485 332.96 177.23C332.96 177.055 332.915 176.905 332.825 176.78C332.6 176.47 332.13 176.38 331.505 176.525L330 176.87C329.755 176.93 329.41 176.83 329.23 176.65L328.015 175.44C327.635 175.06 327.23 174.91 326.88 175.02C326.53 175.135 326.29 175.49 326.2 176.02L326.115 176.525C326.06 176.84 325.92 177.69 325.835 177.835C325.75 177.98 325.625 178.115 325.495 178.18L323.77 179.04C323.275 179.29 323 179.63 323 180C323 180.37 323.275 180.71 323.77 180.96L325.495 181.82C325.7 181.925 325.9 182.2 325.94 182.425L326.2 183.985C326.29 184.515 326.53 184.87 326.88 184.985C327.23 185.095 327.635 184.945 328.015 184.565L329.23 183.35Z" fill="#1B94FF"/>
<path d="M329.23 169.35C329.405 169.175 329.755 169.075 330 169.13L331.125 169.39C331.225 169.41 332.28 169.547 332.475 169.475C332.625 169.42 332.74 169.335 332.825 169.22C333.05 168.915 332.995 168.44 332.67 167.885L331.8 166.42C331.665 166.19 331.665 165.81 331.8 165.58L332.67 164.115C332.865 163.785 332.96 163.485 332.96 163.23C332.96 163.055 332.915 162.905 332.825 162.78C332.6 162.47 332.13 162.38 331.505 162.525L330 162.87C329.755 162.93 329.41 162.83 329.23 162.65L328.015 161.44C327.635 161.06 327.23 160.91 326.88 161.02C326.53 161.135 326.29 161.49 326.2 162.02L326.115 162.525C326.06 162.84 325.92 163.69 325.835 163.835C325.75 163.98 325.625 164.115 325.495 164.18L323.77 165.04C323.275 165.29 323 165.63 323 166C323 166.37 323.275 166.71 323.77 166.96L325.495 167.82C325.7 167.925 325.9 168.2 325.94 168.425L326.2 169.985C326.29 170.515 326.53 170.87 326.88 170.985C327.23 171.095 327.635 170.945 328.015 170.565L329.23 169.35Z" fill="#1B94FF"/>
<path d="M333.335 149.17C333.335 149.435 333.25 149.775 333 150.2L332.115 151.695C332.025 151.85 332.025 152.15 332.115 152.3L333 153.8C333.525 154.685 333.315 155.205 333.145 155.44C332.975 155.67 332.54 156.03 331.54 155.795L330.005 155.44C329.845 155.4 329.57 155.48 329.45 155.6L328.21 156.84C327.59 157.46 327.06 157.41 326.8 157.325C326.54 157.24 326.08 156.97 325.935 156.11L325.67 154.515C325.645 154.365 325.485 154.15 325.35 154.085L323.585 153.2C322.78 152.8 322.66 152.275 322.66 152C322.66 151.725 322.78 151.2 323.585 150.8L325.345 149.92C325.48 149.85 325.64 149.635 325.665 149.485L325.93 147.89C326.075 147.025 326.535 146.755 326.795 146.675C327.055 146.595 327.585 146.545 328.205 147.16L329.45 148.4C329.57 148.52 329.84 148.595 330.005 148.56L331.54 148.205C332.54 147.975 332.975 148.33 333.145 148.56C333.235 148.685 333.335 148.885 333.335 149.17ZM331.295 152C331.295 151.755 331.355 151.51 331.47 151.315L332.355 149.82C332.615 149.385 332.615 149.11 332.54 149.005C332.465 148.9 332.2 148.825 331.71 148.935L330.175 149.29C329.76 149.385 329.225 149.23 328.92 148.93L327.68 147.69C327.435 147.445 327.195 147.335 327.03 147.385C326.865 147.44 326.73 147.67 326.675 148.01L326.41 149.605C326.345 149.99 326.035 150.41 325.685 150.585L323.925 151.465C323.605 151.625 323.415 151.825 323.415 152C323.415 152.175 323.605 152.375 323.925 152.53L325.685 153.415C326.035 153.59 326.345 154.01 326.41 154.395L326.675 155.985C326.73 156.325 326.865 156.555 327.03 156.61C327.195 156.665 327.44 156.55 327.68 156.305L328.92 155.065C329.22 154.765 329.76 154.61 330.175 154.705L331.71 155.06C332.205 155.175 332.465 155.095 332.54 154.99C332.615 154.885 332.61 154.615 332.355 154.175L331.47 152.68C331.355 152.49 331.295 152.245 331.295 152Z" fill="#1B94FF"/>
<rect x="309.5" y="433.5" width="23" height="23" rx="3.5" stroke="#8CB6D8"/>
<path d="M316 445H326M326 445L322 441M326 445L322 449" stroke="#242424" stroke-width="2" stroke-linecap="round" stroke-linejoin="round"/>
<path d="M295 473.5V374C295 369.582 291.418 366 287 366H203.562C199.144 366 195.562 362.418 195.562 358L195.562 282.759C195.562 278.34 191.98 274.759 187.562 274.759H157.501C153.082 274.759 149.501 278.34 149.501 282.759V330.999C149.501 335.418 145.919 338.999 141.501 338.999H58.0594C53.6411 338.999 50.0594 335.418 50.0594 330.999L50.0594 81C50.0594 76.5817 46.4777 73 42.0594 73H0" stroke="white"/>
<path d="M11.957 23.792C11.957 21.7813 12.392 19.993 13.262 18.427C14.132 16.8417 15.3403 15.614 16.887 14.744C18.453 13.8547 20.222 13.41 22.194 13.41C24.6107 13.41 26.6793 14.048 28.4 15.324C30.1207 16.6 31.271 18.34 31.851 20.544H26.399C25.993 19.6933 25.413 19.0457 24.659 18.601C23.9243 18.1563 23.0833 17.934 22.136 17.934C20.6087 17.934 19.3713 18.4657 18.424 19.529C17.4767 20.5923 17.003 22.0133 17.003 23.792C17.003 25.5707 17.4767 26.9917 18.424 28.055C19.3713 29.1183 20.6087 29.65 22.136 29.65C23.0833 29.65 23.9243 29.4277 24.659 28.983C25.413 28.5383 25.993 27.8907 26.399 27.04H31.851C31.271 29.244 30.1207 30.984 28.4 32.26C26.6793 33.5167 24.6107 34.145 22.194 34.145C20.222 34.145 18.453 33.71 16.887 32.84C15.3403 31.9507 14.132 30.723 13.262 29.157C12.392 27.591 11.957 25.8027 11.957 23.792ZM50.1418 25.648C50.1418 26.112 50.1128 26.5953 50.0548 27.098H38.8318C38.9092 28.1033 39.2282 28.8767 39.7888 29.418C40.3688 29.94 41.0745 30.201 41.9058 30.201C43.1432 30.201 44.0035 29.679 44.4868 28.635H49.7648C49.4942 29.6983 49.0012 30.6553 48.2858 31.506C47.5898 32.3567 46.7102 33.0237 45.6468 33.507C44.5835 33.9903 43.3945 34.232 42.0798 34.232C40.4945 34.232 39.0832 33.8937 37.8458 33.217C36.6085 32.5403 35.6418 31.5737 34.9458 30.317C34.2498 29.0603 33.9018 27.591 33.9018 25.909C33.9018 24.227 34.2402 22.7577 34.9168 21.501C35.6128 20.2443 36.5795 19.2777 37.8168 18.601C39.0542 17.9243 40.4752 17.586 42.0798 17.586C43.6458 17.586 45.0378 17.9147 46.2558 18.572C47.4738 19.2293 48.4212 20.167 49.0978 21.385C49.7938 22.603 50.1418 24.024 50.1418 25.648ZM45.0668 24.343C45.0668 23.4923 44.7768 22.8157 44.1968 22.313C43.6168 21.8103 42.8918 21.559 42.0218 21.559C41.1905 21.559 40.4848 21.8007 39.9048 22.284C39.3442 22.7673 38.9962 23.4537 38.8608 24.343H45.0668ZM57.717 12.54V34H52.758V12.54H57.717ZM76.5647 25.648C76.5647 26.112 76.5357 26.5953 76.4777 27.098H65.2547C65.332 28.1033 65.651 28.8767 66.2117 29.418C66.7917 29.94 67.4974 30.201 68.3287 30.201C69.566 30.201 70.4264 29.679 70.9097 28.635H76.1877C75.917 29.6983 75.424 30.6553 74.7087 31.506C74.0127 32.3567 73.133 33.0237 72.0697 33.507C71.0064 33.9903 69.8174 34.232 68.5027 34.232C66.9174 34.232 65.506 33.8937 64.2687 33.217C63.0314 32.5403 62.0647 31.5737 61.3687 30.317C60.6727 29.0603 60.3247 27.591 60.3247 25.909C60.3247 24.227 60.663 22.7577 61.3397 21.501C62.0357 20.2443 63.0024 19.2777 64.2397 18.601C65.477 17.9243 66.898 17.586 68.5027 17.586C70.0687 17.586 71.4607 17.9147 72.6787 18.572C73.8967 19.2293 74.844 20.167 75.5207 21.385C76.2167 22.603 76.5647 24.024 76.5647 25.648ZM71.4897 24.343C71.4897 23.4923 71.1997 22.8157 70.6197 22.313C70.0397 21.8103 69.3147 21.559 68.4447 21.559C67.6134 21.559 66.9077 21.8007 66.3277 22.284C65.767 22.7673 65.419 23.4537 65.2837 24.343H71.4897ZM78.1948 25.88C78.1948 24.2173 78.5041 22.7577 79.1228 21.501C79.7608 20.2443 80.6211 19.2777 81.7038 18.601C82.7865 17.9243 83.9948 17.586 85.3288 17.586C86.4695 17.586 87.4651 17.818 88.3158 18.282C89.1858 18.746 89.8528 19.355 90.3168 20.109V17.818H95.2758V34H90.3168V31.709C89.8335 32.463 89.1568 33.072 88.2868 33.536C87.4361 34 86.4405 34.232 85.2998 34.232C83.9851 34.232 82.7865 33.8937 81.7038 33.217C80.6211 32.521 79.7608 31.5447 79.1228 30.288C78.5041 29.012 78.1948 27.5427 78.1948 25.88ZM90.3168 25.909C90.3168 24.6717 89.9688 23.6953 89.2728 22.98C88.5961 22.2647 87.7648 21.907 86.7788 21.907C85.7928 21.907 84.9518 22.2647 84.2558 22.98C83.5791 23.676 83.2408 24.6427 83.2408 25.88C83.2408 27.1173 83.5791 28.1033 84.2558 28.838C84.9518 29.5533 85.7928 29.911 86.7788 29.911C87.7648 29.911 88.5961 29.5533 89.2728 28.838C89.9688 28.1227 90.3168 27.1463 90.3168 25.909ZM103.822 20.515C104.402 19.6257 105.127 18.9297 105.997 18.427C106.867 17.905 107.834 17.644 108.897 17.644V22.893H107.534C106.297 22.893 105.369 23.1637 104.75 23.705C104.132 24.227 103.822 25.155 103.822 26.489V34H98.8634V17.818H103.822V20.515ZM110.282 25.88C110.282 24.2173 110.591 22.7577 111.21 21.501C111.848 20.2443 112.708 19.2777 113.791 18.601C114.873 17.9243 116.082 17.586 117.416 17.586C118.479 17.586 119.446 17.8083 120.316 18.253C121.205 18.6977 121.901 19.297 122.404 20.051V12.54H127.363V34H122.404V31.68C121.94 32.4533 121.273 33.072 120.403 33.536C119.552 34 118.556 34.232 117.416 34.232C116.082 34.232 114.873 33.8937 113.791 33.217C112.708 32.521 111.848 31.5447 111.21 30.288C110.591 29.012 110.282 27.5427 110.282 25.88ZM122.404 25.909C122.404 24.6717 122.056 23.6953 121.36 22.98C120.683 22.2647 119.852 21.907 118.866 21.907C117.88 21.907 117.039 22.2647 116.343 22.98C115.666 23.676 115.328 24.6427 115.328 25.88C115.328 27.1173 115.666 28.1033 116.343 28.838C117.039 29.5533 117.88 29.911 118.866 29.911C119.852 29.911 120.683 29.5533 121.36 28.838C122.056 28.1227 122.404 27.1463 122.404 25.909Z" fill="#1B94FF" fill-opacity="0.08"/>
</svg>
