<svg width="342" height="351" viewBox="0 0 342 351" fill="none" xmlns="http://www.w3.org/2000/svg">
<path d="M342 12C342 5.37257 336.627 0 330 0H183C176.373 0 171 5.37259 171 12L171 17.25C171 23.8774 165.627 29.25 159 29.25H152.873H127.797H86.1042H51C44.3726 29.25 39 23.8774 39 17.25V12C39 5.37258 33.6274 0 27 0H12C5.37259 0 0 5.37258 0 12V163.8V304.2V339C0 345.627 5.37259 351 12 351H159.3C165.762 351 171 345.762 171 339.3C171 332.838 176.238 327.6 182.7 327.6H287.55C294.012 327.6 299.25 332.838 299.25 339.3C299.25 345.762 304.488 351 310.95 351H319.794H330C336.627 351 342 345.627 342 339V294.45V257.4V163.8V70.2V23.4V12Z" fill="#FFE4E1"/>
<path d="M322 351V284.127C322 277.499 316.627 272.127 310 272.127L231.602 272.127C224.974 272.127 219.602 266.754 219.602 260.127L219.602 171.984C219.602 165.357 214.229 159.984 207.602 159.984H184.168C177.541 159.984 172.168 165.357 172.168 171.984V178.5C172.168 185.127 166.796 190.5 160.168 190.5L81.7667 190.5C75.1392 190.5 69.7667 185.127 69.7667 178.5L69.7667 64C69.7667 57.3726 64.3941 52 57.7667 52H0" stroke="white"/>
</svg>
