<svg width="1176" height="799" viewBox="0 0 1176 799" fill="none" xmlns="http://www.w3.org/2000/svg">
<path d="M0 23C0 10.2975 10.2975 0 23 0H568.5C579.27 0 588 8.73045 588 19.5C588 30.2696 596.73 39 607.5 39H650.332H736.558H879.922H1083C1093.77 39 1102.5 30.2696 1102.5 19.5C1102.5 8.73045 1111.23 0 1122 0H1153C1165.7 0 1176 10.2975 1176 23V388.592C1176 394.616 1171.12 399.5 1165.09 399.5C1159.07 399.5 1154.18 404.384 1154.18 410.408V688.217C1154.18 694.241 1159.07 699.125 1165.09 699.125C1171.12 699.125 1176 704.009 1176 710.033V776C1176 788.703 1165.7 799 1153 799H588H294H147H76C63.2974 799 53 788.703 53 776V701.318C53 688.615 42.7025 678.318 30 678.318H23C10.2975 678.318 0 668.02 0 655.318V599.25V399.5V199.75V99.875V23Z" fill="#EDF7FF"/>
</svg>
