<svg width="1439" height="380" viewBox="0 0 1439 380" fill="none" xmlns="http://www.w3.org/2000/svg">
<path d="M1439 23C1439 10.2975 1428.7 0 1416 0H742C729.297 0 719 10.2975 719 23V31C719 43.7025 708.703 54 696 54H642.675H537.092H361.544H112C99.2975 54 89 43.7025 89 31V23C89 10.2975 78.7025 0 66 0H22C9.29749 0 -1 10.2975 -1 23V192V333.388C-1 335.124 -1.19653 336.854 -1.58569 338.545L-7.44373 364.005C-10.7834 378.521 0.34375 392.334 15.2373 392.161L719 384H1079H1259H1345.5H1439V326V288V192V96V48V23Z" fill="#FFE4E1"/>
</svg>
