<svg width="1176" height="273" viewBox="0 0 1176 273" fill="none" xmlns="http://www.w3.org/2000/svg">
<path d="M1176 18.2C1176 8.14841 1167.85 0 1157.8 0H588H439.442H421.375C415.093 0 410 5.09276 410 11.375C410 17.6572 404.907 22.75 398.625 22.75H296.078H145.48C139.198 22.75 134.105 17.6572 134.105 11.375C134.105 5.09276 129.012 0 122.73 0H23C10.2975 0 0 10.2975 0 23V127.4V236.6V250C0 262.703 10.2975 273 23 273H588H794.4C799.426 273 803.5 268.926 803.5 263.9C803.5 258.874 807.574 254.8 812.6 254.8H1019.9C1024.93 254.8 1029 258.874 1029 263.9C1029 268.926 1033.07 273 1038.1 273H1099.64H1153C1165.7 273 1176 262.703 1176 250V229.017V200.2V127.4V54.6V18.2Z" fill="#FFE4E1"/>
<path d="M1100 273V235.494C1100 224.448 1091.05 215.494 1080 215.494L771.464 215.494C760.418 215.494 751.464 206.54 751.464 195.494V65.5C751.464 54.4543 742.509 45.5 731.464 45.5H610.014C598.969 45.5 590.014 54.4543 590.014 65.5V183.227C590.014 194.273 581.06 203.227 570.014 203.227L261.467 203.227C250.421 203.227 241.467 194.273 241.467 183.227L241.467 75C241.467 63.9543 232.512 55 221.467 55L4 55" stroke="white" stroke-width="2"/>
</svg>
