<svg width="75" height="75" viewBox="0 0 75 75" fill="none" xmlns="http://www.w3.org/2000/svg">
<path opacity="0.4" d="M64.4374 26.4062C61.1562 11.9687 48.5624 5.46875 37.4999 5.46875C37.4999 5.46875 37.4999 5.46875 37.4687 5.46875C26.4374 5.46875 13.8124 11.9375 10.5312 26.375C6.87493 42.5 16.7499 56.1562 25.6874 64.75C28.9999 67.9375 33.2499 69.5312 37.4999 69.5312C41.7499 69.5312 45.9999 67.9375 49.2812 64.75C58.2187 56.1562 68.0937 42.5312 64.4374 26.4062Z" fill="#ED1A31"/>
<path d="M37.5 42.0625C42.9366 42.0625 47.3437 37.6553 47.3437 32.2188C47.3437 26.7822 42.9366 22.375 37.5 22.375C32.0634 22.375 27.6562 26.7822 27.6562 32.2188C27.6562 37.6553 32.0634 42.0625 37.5 42.0625Z" fill="#ED1A31"/>
</svg>
