<svg width="75" height="75" viewBox="0 0 75 75" fill="none" xmlns="http://www.w3.org/2000/svg">
<path opacity="0.4" d="M68.75 19.5312V35.4687C68.75 39.4374 67.4375 42.7812 65.0938 45.0937C62.7813 47.4375 59.4375 48.7499 55.4688 48.7499V54.4062C55.4688 56.5312 53.0937 57.8125 51.3437 56.625L48.3125 54.6249C48.5938 53.6562 48.7187 52.5937 48.7187 51.4687V38.7501C48.7187 32.3751 44.4688 28.125 38.0938 28.125H16.875C16.4375 28.125 16.0312 28.1563 15.625 28.1876V19.5312C15.625 11.5625 20.9375 6.25 28.9062 6.25H55.4688C63.4375 6.25 68.75 11.5625 68.75 19.5312Z" fill="#ED1A31"/>
<path d="M48.7187 38.7501V51.4687C48.7187 52.5937 48.5938 53.6562 48.3125 54.6249C47.1563 59.2187 43.3438 62.0937 38.0938 62.0937H29.5938L20.1562 68.375C18.75 69.3438 16.875 68.3125 16.875 66.625V62.0937C13.6875 62.0937 11.0313 61.0313 9.18751 59.1875C7.31251 57.3125 6.25 54.6562 6.25 51.4687V38.7501C6.25 32.8126 9.9375 28.7188 15.625 28.1876C16.0312 28.1563 16.4375 28.125 16.875 28.125H38.0938C44.4688 28.125 48.7187 32.3751 48.7187 38.7501Z" fill="#ED1A31"/>
</svg>
