<svg width="22" height="22" viewBox="0 0 22 22" fill="none" xmlns="http://www.w3.org/2000/svg">
<path d="M14.7803 8.78033C15.0732 8.48744 15.0732 8.01256 14.7803 7.71967C14.4874 7.42678 14.0126 7.42678 13.7197 7.71967L9.25 12.1893L7.78033 10.7197C7.48744 10.4268 7.01256 10.4268 6.71967 10.7197C6.42678 11.0126 6.42678 11.4874 6.71967 11.7803L8.71967 13.7803C9.01256 14.0732 9.48744 14.0732 9.78033 13.7803L14.7803 8.78033Z" fill="#ED1A31"/>
<path fill-rule="evenodd" clip-rule="evenodd" d="M10.75 0C4.81294 0 0 4.81294 0 10.75C0 16.6871 4.81294 21.5 10.75 21.5C16.6871 21.5 21.5 16.6871 21.5 10.75C21.5 4.81294 16.6871 0 10.75 0ZM1.5 10.75C1.5 5.64137 5.64137 1.5 10.75 1.5C15.8586 1.5 20 5.64137 20 10.75C20 15.8586 15.8586 20 10.75 20C5.64137 20 1.5 15.8586 1.5 10.75Z" fill="#ED1A31"/>
</svg>
