<svg width="14" height="15" viewBox="0 0 14 15" fill="none" xmlns="http://www.w3.org/2000/svg">
<path d="M8.63968 12.2462C8.87301 11.9983 9.33967 11.8566 9.66634 11.9345L11.1663 12.3029C11.2997 12.3312 12.7066 12.5245 12.9663 12.4233C13.1663 12.3454 13.3197 12.2249 13.433 12.062C13.733 11.6299 13.6597 10.957 13.2263 10.1708L12.0663 8.09536C11.8863 7.76953 11.8863 7.2312 12.0663 6.90536L13.2263 4.82995C13.4863 4.36245 13.613 3.93745 13.613 3.5762C13.613 3.32828 13.553 3.11578 13.433 2.9387C13.133 2.49953 12.5063 2.37203 11.673 2.57745L9.66634 3.0662C9.33967 3.1512 8.87967 3.00953 8.63967 2.75453L7.01967 1.04036C6.51301 0.50203 5.97301 0.289531 5.50634 0.445364C5.03967 0.60828 4.71967 1.1112 4.59967 1.86203L4.48634 2.57745C4.41301 3.0237 4.22634 4.22787 4.11301 4.43328C3.99967 4.6387 3.83301 4.82995 3.65967 4.92203L1.35967 6.14036C0.699674 6.49453 0.333007 6.9762 0.333008 7.50036C0.333008 8.02453 0.699674 8.5062 1.35967 8.86036L3.65967 10.0787C3.93301 10.2274 4.19967 10.617 4.25301 10.9358L4.59967 13.1458C4.71967 13.8966 5.03967 14.3995 5.50634 14.5624C5.97301 14.7183 6.51301 14.5058 7.01967 13.9674L8.63968 12.2462Z" fill="#1B94FF"/>
</svg>
