<svg width="14" height="15" viewBox="0 0 14 15" fill="none" xmlns="http://www.w3.org/2000/svg">
<path d="M8.63968 12.2457C8.87301 11.9978 9.33967 11.8561 9.66634 11.934L11.1663 12.3024C11.2997 12.3307 12.7066 12.524 12.9663 12.4228C13.1663 12.3449 13.3197 12.2245 13.433 12.0615C13.733 11.6295 13.6597 10.9565 13.2263 10.1703L12.0663 8.09488C11.8863 7.76904 11.8863 7.23071 12.0663 6.90488L13.2263 4.82946C13.4863 4.36196 13.613 3.93696 13.613 3.57571C13.613 3.32779 13.553 3.11529 13.433 2.93821C13.133 2.49904 12.5063 2.37154 11.673 2.57696L9.66634 3.06571C9.33967 3.15071 8.87967 3.00904 8.63967 2.75404L7.01967 1.03988C6.51301 0.501542 5.97301 0.289043 5.50634 0.444875C5.03967 0.607792 4.71967 1.11071 4.59967 1.86154L4.48634 2.57696C4.41301 3.02321 4.22634 4.22738 4.11301 4.43279C3.99967 4.63821 3.83301 4.82946 3.65967 4.92154L1.35967 6.13988C0.699674 6.49404 0.333007 6.97571 0.333008 7.49988C0.333008 8.02404 0.699674 8.50571 1.35967 8.85988L3.65967 10.0782C3.93301 10.227 4.19967 10.6165 4.25301 10.9353L4.59967 13.1453C4.71967 13.8961 5.03967 14.399 5.50634 14.562C5.97301 14.7178 6.51301 14.5053 7.01967 13.967L8.63968 12.2457Z" fill="#ED1A31"/>
</svg>
