<svg width="16" height="16" viewBox="0 0 16 16" fill="none" xmlns="http://www.w3.org/2000/svg">
<path d="M15.1132 4.22691C15.1132 4.58025 14.9999 5.03358 14.6665 5.60025L13.4865 7.59358C13.3665 7.80025 13.3665 8.20025 13.4865 8.40025L14.6665 10.4002C15.3665 11.5802 15.0866 12.2736 14.8599 12.5869C14.6332 12.8936 14.0532 13.3736 12.7199 13.0602L10.6732 12.5869C10.4599 12.5336 10.0932 12.6402 9.93322 12.8002L8.27988 14.4536C7.45322 15.2802 6.74655 15.2136 6.39988 15.1002C6.05322 14.9869 5.43988 14.6269 5.24655 13.4802L4.89322 11.3536C4.85988 11.1536 4.64655 10.8669 4.46655 10.7802L2.11322 9.60025C1.03988 9.06691 0.879883 8.36691 0.879882 8.00025C0.879882 7.63358 1.03988 6.93358 2.11322 6.40025L4.45988 5.22691C4.63988 5.13358 4.85322 4.84691 4.88655 4.64691L5.23988 2.52025C5.43322 1.36691 6.04655 1.00691 6.39322 0.900248C6.73988 0.793581 7.44655 0.726914 8.27322 1.54691L9.93322 3.20025C10.0932 3.36025 10.4532 3.46025 10.6732 3.41358L12.7199 2.94025C14.0532 2.63358 14.6332 3.10691 14.8599 3.41358C14.9799 3.58025 15.1132 3.84691 15.1132 4.22691ZM12.3932 8.00025C12.3932 7.67358 12.4732 7.34691 12.6266 7.08691L13.8065 5.09358C14.1532 4.51358 14.1532 4.14691 14.0532 4.00691C13.9532 3.86691 13.5999 3.76691 12.9465 3.91358L10.8999 4.38691C10.3465 4.51358 9.63322 4.30691 9.22655 3.90691L7.57322 2.25358C7.24655 1.92691 6.92655 1.78025 6.70655 1.84691C6.48655 1.92025 6.30655 2.22691 6.23322 2.68025L5.87988 4.80691C5.79322 5.32025 5.37988 5.88025 4.91322 6.11358L2.56655 7.28691C2.13988 7.50025 1.88655 7.76691 1.88655 8.00025C1.88655 8.23358 2.13988 8.50025 2.56655 8.70691L4.91322 9.88691C5.37988 10.1202 5.79322 10.6802 5.87988 11.1936L6.23322 13.3136C6.30655 13.7669 6.48655 14.0736 6.70655 14.1469C6.92655 14.2202 7.25322 14.0669 7.57322 13.7402L9.22655 12.0869C9.62655 11.6869 10.3466 11.4802 10.8999 11.6069L12.9465 12.0802C13.6065 12.2336 13.9532 12.1269 14.0532 11.9869C14.1532 11.8469 14.1465 11.4869 13.8065 10.9002L12.6266 8.90691C12.4732 8.65358 12.3932 8.32691 12.3932 8.00025Z" fill="#1B94FF"/>
</svg>
