<svg width="16" height="16" viewBox="0 0 16 16" fill="none" xmlns="http://www.w3.org/2000/svg">
<path d="M15.1132 4.22643C15.1132 4.57976 14.9999 5.03309 14.6665 5.59976L13.4865 7.59309C13.3665 7.79976 13.3665 8.19976 13.4865 8.39976L14.6665 10.3998C15.3665 11.5798 15.0866 12.2731 14.8599 12.5864C14.6332 12.8931 14.0532 13.3731 12.7199 13.0598L10.6732 12.5864C10.4599 12.5331 10.0932 12.6398 9.93322 12.7998L8.27988 14.4531C7.45322 15.2798 6.74655 15.2131 6.39988 15.0998C6.05322 14.9864 5.43988 14.6264 5.24655 13.4798L4.89322 11.3531C4.85988 11.1531 4.64655 10.8664 4.46655 10.7798L2.11322 9.59976C1.03988 9.06643 0.879883 8.36643 0.879882 7.99976C0.879882 7.63309 1.03988 6.93309 2.11322 6.39976L4.45988 5.22643C4.63988 5.13309 4.85322 4.84643 4.88655 4.64643L5.23988 2.51976C5.43322 1.36643 6.04655 1.00643 6.39322 0.899759C6.73988 0.793093 7.44655 0.726425 8.27322 1.54643L9.93322 3.19976C10.0932 3.35976 10.4532 3.45976 10.6732 3.41309L12.7199 2.93976C14.0532 2.63309 14.6332 3.10643 14.8599 3.41309C14.9799 3.57976 15.1132 3.84643 15.1132 4.22643ZM12.3932 7.99976C12.3932 7.67309 12.4732 7.34643 12.6266 7.08643L13.8065 5.09309C14.1532 4.51309 14.1532 4.14643 14.0532 4.00643C13.9532 3.86643 13.5999 3.76643 12.9465 3.91309L10.8999 4.38643C10.3465 4.51309 9.63322 4.30643 9.22655 3.90643L7.57322 2.25309C7.24655 1.92643 6.92655 1.77976 6.70655 1.84643C6.48655 1.91976 6.30655 2.22643 6.23322 2.67976L5.87988 4.80642C5.79322 5.31976 5.37988 5.87976 4.91322 6.11309L2.56655 7.28643C2.13988 7.49976 1.88655 7.76643 1.88655 7.99976C1.88655 8.23309 2.13988 8.49976 2.56655 8.70643L4.91322 9.88643C5.37988 10.1198 5.79322 10.6798 5.87988 11.1931L6.23322 13.3131C6.30655 13.7664 6.48655 14.0731 6.70655 14.1464C6.92655 14.2198 7.25322 14.0664 7.57322 13.7398L9.22655 12.0864C9.62655 11.6864 10.3466 11.4798 10.8999 11.6064L12.9465 12.0798C13.6065 12.2331 13.9532 12.1264 14.0532 11.9864C14.1532 11.8464 14.1465 11.4864 13.8065 10.8998L12.6266 8.90642C12.4732 8.65309 12.3932 8.32642 12.3932 7.99976Z" fill="#ED1A31"/>
</svg>
