<svg width="16" height="16" viewBox="0 0 16 16" fill="none" xmlns="http://www.w3.org/2000/svg">
<path d="M10.9993 6.5342C11.2173 6.31623 11.2173 5.96284 10.9993 5.74487C10.7813 5.5269 10.428 5.5269 10.21 5.74487L6.88372 9.07114L5.79001 7.97743C5.57205 7.75946 5.21865 7.75946 5.00068 7.97743C4.78272 8.1954 4.78272 8.54879 5.00068 8.76676L6.48906 10.2551C6.70702 10.4731 7.06042 10.4731 7.27839 10.2551L10.9993 6.5342Z" fill="#4A915F"/>
<path fill-rule="evenodd" clip-rule="evenodd" d="M8 0C3.58172 0 0 3.58172 0 8C0 12.4183 3.58172 16 8 16C12.4183 16 16 12.4183 16 8C16 3.58172 12.4183 0 8 0ZM1.11628 8C1.11628 4.19823 4.19823 1.11628 8 1.11628C11.8018 1.11628 14.8837 4.19823 14.8837 8C14.8837 11.8018 11.8018 14.8837 8 14.8837C4.19823 14.8837 1.11628 11.8018 1.11628 8Z" fill="#4A915F"/>
</svg>
