<svg width="75" height="75" viewBox="0 0 75 75" fill="none" xmlns="http://www.w3.org/2000/svg">
<path opacity="0.4" d="M33.5937 7.65625C35.75 5.8125 39.2813 5.8125 41.4688 7.65625L46.4063 11.9063C47.3438 12.7188 49.0938 13.375 50.3438 13.375H55.6562C58.9687 13.375 61.6875 16.0938 61.6875 19.4063V24.7188C61.6875 25.9375 62.3437 27.7188 63.1562 28.6563L67.4063 33.5938C69.25 35.75 69.25 39.2813 67.4063 41.4688L63.1562 46.4063C62.3437 47.3438 61.6875 49.0938 61.6875 50.3438V55.6563C61.6875 58.9688 58.9687 61.6875 55.6562 61.6875H50.3438C49.125 61.6875 47.3438 62.3438 46.4063 63.1563L41.4688 67.4063C39.3125 69.25 35.7812 69.25 33.5937 67.4063L28.6562 63.1563C27.7187 62.3438 25.9687 61.6875 24.7187 61.6875H19.3125C16 61.6875 13.2812 58.9688 13.2812 55.6563V50.3125C13.2812 49.0938 12.625 47.3438 11.8437 46.4063L7.625 41.4375C5.8125 39.2813 5.8125 35.7813 7.625 33.625L11.8437 28.6563C12.625 27.7188 13.2812 25.9688 13.2812 24.75V19.375C13.2812 16.0625 16 13.3437 19.3125 13.3437H24.7187C25.9375 13.3437 27.7187 12.6875 28.6562 11.875L33.5937 7.65625Z" fill="#ED1A31"/>
<path d="M33.7187 47.4062C33.0937 47.4062 32.5 47.1562 32.0625 46.7187L24.5 39.1562C23.5938 38.25 23.5938 36.75 24.5 35.8437C25.4062 34.9375 26.9062 34.9375 27.8125 35.8437L33.7187 41.75L47.1563 28.3125C48.0625 27.4063 49.5625 27.4063 50.4687 28.3125C51.375 29.2187 51.375 30.7187 50.4687 31.625L35.375 46.7187C34.9375 47.1562 34.3437 47.4062 33.7187 47.4062Z" fill="#ED1A31"/>
</svg>
