<svg width="18" height="13" viewBox="0 0 18 13" fill="none" xmlns="http://www.w3.org/2000/svg">
<path d="M17.4844 2.29688C17.8594 3.60938 17.8594 6.42188 17.8594 6.42188C17.8594 6.42188 17.8594 9.20312 17.4844 10.5469C17.2969 11.2969 16.7031 11.8594 15.9844 12.0469C14.6406 12.3906 9.32812 12.3906 9.32812 12.3906C9.32812 12.3906 3.98438 12.3906 2.64062 12.0469C1.92188 11.8594 1.32812 11.2969 1.14062 10.5469C0.765625 9.20312 0.765625 6.42188 0.765625 6.42188C0.765625 6.42188 0.765625 3.60938 1.14062 2.29688C1.32812 1.54688 1.92188 0.953125 2.64062 0.765625C3.98438 0.390625 9.32812 0.390625 9.32812 0.390625C9.32812 0.390625 14.6406 0.390625 15.9844 0.765625C16.7031 0.953125 17.2969 1.54688 17.4844 2.29688ZM7.57812 8.95312L12.0156 6.42188L7.57812 3.89062V8.95312Z" fill="#EE393F"/>
</svg>
