<svg width="1124" height="590" viewBox="0 0 1124 590" fill="none" xmlns="http://www.w3.org/2000/svg">
<g filter="url(#filter0_d_3474_386)">
<ellipse cx="562" cy="295" rx="107" ry="56" fill="white"/>
</g>
<path d="M762.5 295C762.5 323.994 740.207 350.362 703.895 369.511C667.607 388.648 617.44 400.5 562 400.5C506.56 400.5 456.393 388.648 420.105 369.511C383.793 350.362 361.5 323.994 361.5 295C361.5 266.006 383.793 239.638 420.105 220.489C456.393 201.352 506.56 189.5 562 189.5C617.44 189.5 667.607 201.352 703.895 220.489C740.207 239.638 762.5 266.006 762.5 295Z" stroke="#6695FE" stroke-opacity="0.6"/>
<path d="M878.5 295.5C878.5 341.199 843.224 382.693 785.92 412.791C728.64 442.876 649.473 461.5 562 461.5C474.527 461.5 395.36 442.876 338.08 412.791C280.776 382.693 245.5 341.199 245.5 295.5C245.5 249.801 280.776 208.307 338.08 178.209C395.36 148.124 474.527 129.5 562 129.5C649.473 129.5 728.64 148.124 785.92 178.209C843.224 208.307 878.5 249.801 878.5 295.5Z" stroke="#FF6A00" stroke-opacity="0.6"/>
<path d="M993.5 295C993.5 357.406 945.352 414.024 867.238 455.071C789.146 496.105 681.229 521.5 562 521.5C442.771 521.5 334.854 496.105 256.762 455.071C178.648 414.024 130.5 357.406 130.5 295C130.5 232.594 178.648 175.976 256.762 134.929C334.854 93.8952 442.771 68.5 562 68.5C681.229 68.5 789.146 93.8952 867.238 134.929C945.352 175.976 993.5 232.594 993.5 295Z" stroke="#6695FE" stroke-opacity="0.6"/>
<path d="M1123.5 295C1123.5 376.183 1060.8 449.802 959.162 503.154C857.545 556.494 717.128 589.5 562 589.5C406.872 589.5 266.455 556.494 164.838 503.154C63.1981 449.802 0.5 376.183 0.5 295C0.5 213.817 63.1981 140.198 164.838 86.8462C266.455 33.5064 406.872 0.5 562 0.5C717.128 0.5 857.545 33.5064 959.162 86.8462C1060.8 140.198 1123.5 213.817 1123.5 295Z" stroke="#FF6A00" stroke-opacity="0.6"/>
<path d="M512.566 300.2C511.566 300.2 510.686 300.02 510.006 299.76V297.72C510.586 298 511.326 298.14 512.126 298.14C513.706 298.14 514.286 297.52 514.286 296.02V287.76H516.466V296.56C516.466 298.98 515.166 300.2 512.566 300.2ZM523.687 300.2C520.547 300.2 518.887 298.62 518.887 295.46C518.887 292.5 520.307 290.8 523.187 290.8C525.727 290.8 527.207 292.28 527.207 294.72V296.28H520.927C521.107 297.88 522.007 298.7 524.227 298.7C525.127 298.7 526.007 298.5 526.687 298.24V299.62C525.887 300 524.887 300.2 523.687 300.2ZM520.927 294.94H525.287V294.34C525.287 293.14 524.727 292.3 523.247 292.3C521.487 292.3 520.927 293.38 520.927 294.94ZM530.705 303.34C529.985 303.34 529.465 303.26 528.965 303.04V301.42C529.365 301.58 529.705 301.62 530.065 301.62C531.105 301.62 531.545 300.96 532.085 299.84L528.265 291H530.585L533.185 297.58L535.865 291H538.125L534.685 299.4C533.765 301.76 532.725 303.34 530.705 303.34ZM587.343 300H579.303V287.76H581.503V298.14H587.343V300ZM592.036 289.26H589.636V287.36H592.036V289.26ZM592.036 300H589.836V292.78H588.536L588.676 291H592.036V300ZM597.113 300H594.913V291H596.933L597.033 291.86C597.813 291.26 598.913 290.8 600.373 290.8C602.453 290.8 603.333 291.84 603.333 294.08V300H601.173V294.36C601.173 293.1 600.713 292.62 599.333 292.62C598.473 292.62 597.653 293.02 597.113 293.58V300ZM610.449 300.2C607.309 300.2 605.649 298.62 605.649 295.46C605.649 292.5 607.069 290.8 609.949 290.8C612.489 290.8 613.969 292.28 613.969 294.72V296.28H607.689C607.869 297.88 608.769 298.7 610.989 298.7C611.889 298.7 612.769 298.5 613.449 298.24V299.62C612.649 300 611.649 300.2 610.449 300.2ZM607.689 294.94H612.049V294.34C612.049 293.14 611.489 292.3 610.009 292.3C608.249 292.3 607.689 293.38 607.689 294.94Z" fill="#002B8A"/>
<path d="M546.775 300.2C545.775 300.2 544.895 300.02 544.215 299.76V297.72C544.795 298 545.535 298.14 546.335 298.14C547.915 298.14 548.495 297.52 548.495 296.02V287.76H550.675V296.56C550.675 298.98 549.375 300.2 546.775 300.2ZM557.896 300.2C554.756 300.2 553.096 298.62 553.096 295.46C553.096 292.5 554.516 290.8 557.396 290.8C559.936 290.8 561.416 292.28 561.416 294.72V296.28H555.136C555.316 297.88 556.216 298.7 558.436 298.7C559.336 298.7 560.216 298.5 560.896 298.24V299.62C560.096 300 559.096 300.2 557.896 300.2ZM555.136 294.94H559.496V294.34C559.496 293.14 558.936 292.3 557.456 292.3C555.696 292.3 555.136 293.38 555.136 294.94ZM564.913 303.34C564.193 303.34 563.673 303.26 563.173 303.04V301.42C563.573 301.58 563.913 301.62 564.273 301.62C565.313 301.62 565.753 300.96 566.293 299.84L562.473 291H564.793L567.393 297.58L570.073 291H572.333L568.893 299.4C567.973 301.76 566.933 303.34 564.913 303.34Z" fill="#FF6A00"/>
<defs>
<filter id="filter0_d_3474_386" x="451" y="239" width="222" height="120" filterUnits="userSpaceOnUse" color-interpolation-filters="sRGB">
<feFlood flood-opacity="0" result="BackgroundImageFix"/>
<feColorMatrix in="SourceAlpha" type="matrix" values="0 0 0 0 0 0 0 0 0 0 0 0 0 0 0 0 0 0 127 0" result="hardAlpha"/>
<feOffset dy="4"/>
<feGaussianBlur stdDeviation="2"/>
<feComposite in2="hardAlpha" operator="out"/>
<feColorMatrix type="matrix" values="0 0 0 0 0 0 0 0 0 0 0 0 0 0 0 0 0 0 0.25 0"/>
<feBlend mode="normal" in2="BackgroundImageFix" result="effect1_dropShadow_3474_386"/>
<feBlend mode="normal" in="SourceGraphic" in2="effect1_dropShadow_3474_386" result="shape"/>
</filter>
</defs>
</svg>
