<svg width="343" height="363" viewBox="0 0 343 363" fill="none" xmlns="http://www.w3.org/2000/svg">
<path d="M144 0L147.869 34.8083L180 39L147.869 43.1917L144 78L140.131 43.1917L108 39L140.131 34.8083L144 0Z" fill="#002B8A" fill-opacity="0.39"/>
<path d="M169 295L166.958 276.257L150 274L166.958 271.743L169 253L171.042 271.743L188 274L171.042 276.257L169 295Z" fill="#002B8A" fill-opacity="0.3"/>
<path d="M168.5 63L169.736 73.7102L180 75L169.736 76.2898L168.5 87L167.264 76.2898L157 75L167.264 73.7102L168.5 63Z" fill="#002B8A"/>
<path d="M156 261L155.355 255.199L150 254.5L155.355 253.801L156 248L156.645 253.801L162 254.5L156.645 255.199L156 261Z" fill="#002B8A"/>
<path d="M80 134L82.4155 161.412L108 164L82.4155 166.588L80 194L77.5845 166.588L52 164L77.5845 161.412L80 134Z" fill="#002B8A" fill-opacity="0.6"/>
<path d="M263 188L260.585 160.588L235 158L260.585 155.412L263 128L265.415 155.412L291 158L265.415 160.588L263 188Z" fill="#002B8A" fill-opacity="0.3"/>
<path d="M19 54L20.6391 72.7315L38 74.5L20.6391 76.2685L19 95L17.3609 76.2685L0 74.5L17.3609 72.7315L19 54Z" fill="#002B8A"/>
<path d="M324 268L322.361 249.268L305 247.5L322.361 245.732L324 227L325.639 245.732L343 247.5L325.639 249.268L324 268Z" fill="#002B8A"/>
<path d="M38 363L36.3609 344.268L19 342.5L36.3609 340.732L38 322L39.6391 340.732L57 342.5L39.6391 344.268L38 363Z" fill="#002B8A" fill-opacity="0.3"/>
</svg>
