<svg width="342" height="152" viewBox="0 0 342 152" fill="none" xmlns="http://www.w3.org/2000/svg">
<circle cx="294" cy="58" r="48" transform="rotate(180 294 58)" fill="url(#paint0_linear_3499_1381)"/>
<circle cx="171" cy="104" r="48" transform="rotate(180 171 104)" fill="url(#paint1_linear_3499_1381)"/>
<circle cx="48" cy="58" r="48" transform="rotate(180 48 58)" fill="url(#paint2_linear_3499_1381)"/>
<g filter="url(#filter0_d_3499_1381)">
<rect x="254" width="80" height="76" rx="4" fill="white"/>
<path opacity="0.4" d="M294 10C291.38 10 289.25 12.13 289.25 14.75C289.25 17.32 291.26 19.4 293.88 19.49C293.96 19.48 294.04 19.48 294.1 19.49C294.12 19.49 294.13 19.49 294.15 19.49C294.16 19.49 294.16 19.49 294.17 19.49C296.73 19.4 298.74 17.32 298.75 14.75C298.75 12.13 296.62 10 294 10Z" fill="#C0DEC9"/>
<path d="M299.081 22.1499C296.291 20.2899 291.741 20.2899 288.931 22.1499C287.661 22.9999 286.961 24.1499 286.961 25.3799C286.961 26.6099 287.661 27.7499 288.921 28.5899C290.321 29.5299 292.161 29.9999 294.001 29.9999C295.841 29.9999 297.681 29.5299 299.081 28.5899C300.341 27.7399 301.041 26.5999 301.041 25.3599C301.031 24.1299 300.341 22.9899 299.081 22.1499Z" fill="#C0DEC9"/>
<path d="M269.588 44.35C269.588 44.85 269.868 45.14 270.428 45.14C270.988 45.14 271.298 44.83 271.298 44.35L271.298 42.78L272.128 42.78L272.128 44.35C272.128 44.88 272.408 45.14 272.908 45.14L273.208 45.14C273.248 45.14 273.308 45.18 273.308 45.58C273.308 45.97 273.248 46 273.208 46L272.908 46C272.278 46 271.858 45.81 271.668 45.41C271.428 45.81 271.008 46 270.428 46C269.738 46 269.318 45.78 269.138 45.38C268.888 45.78 268.448 46 267.818 46C267.358 46 267.068 45.88 266.928 45.71L266.928 45.83C266.898 47.37 265.798 48.44 264.208 48.44L263.768 48.44C262.078 48.44 261.148 47.41 261.148 45.67L261.148 43.78L261.978 43.78L261.978 45.65C261.978 46.91 262.598 47.58 263.788 47.58L264.208 47.58C265.348 47.58 266.098 46.87 266.098 45.73L266.098 42.78L266.928 42.78L266.928 44.37C266.928 44.83 267.208 45.14 267.818 45.14C268.428 45.14 268.758 44.83 268.758 44.35L268.758 42.78L269.588 42.78L269.588 44.35ZM276.019 41.58L274.959 41.58L274.959 40.75L276.019 40.75L276.019 41.58ZM274.409 45.14C274.919 45.14 275.259 44.86 275.259 44.4L275.259 42.78L276.089 42.78L276.089 44.38C276.089 44.88 276.369 45.14 276.889 45.14L277.169 45.14C277.209 45.14 277.269 45.18 277.269 45.57C277.269 45.97 277.209 46 277.169 46L276.859 46C276.269 46 275.849 45.81 275.659 45.41C275.419 45.81 274.979 46 274.409 46L273.209 46C273.169 46 273.109 45.97 273.109 45.58C273.109 45.18 273.169 45.14 273.209 45.14L274.409 45.14ZM277.874 45.14C278.884 45.14 279.454 45 280.154 44.6L281.674 43.71C281.464 42.98 281.134 42.75 280.414 42.75L278.074 42.75L278.184 41.88L280.554 41.88C281.744 41.88 282.264 42.41 282.644 43.99L280.544 45.29C279.694 45.82 279.024 46 277.844 46L277.174 46C277.134 46 277.074 45.97 277.074 45.58C277.074 45.18 277.134 45.14 277.174 45.14L277.874 45.14ZM280.084 48.1L279.024 48.1L279.024 47.26L280.084 47.26L280.084 48.1ZM288.233 45.14C288.283 45.14 288.333 45.18 288.333 45.58C288.333 45.97 288.283 46 288.233 46L287.973 46C286.943 46 286.423 45.35 286.423 44.25L286.423 39.53L287.253 39.53L287.253 44.21C287.253 44.83 287.503 45.14 288.013 45.14L288.233 45.14ZM290.918 44.41C290.918 45.41 290.258 46 289.278 46L288.238 46C288.198 46 288.138 45.97 288.138 45.58C288.138 45.18 288.198 45.14 288.238 45.14L289.278 45.14C289.748 45.14 290.088 44.88 290.088 44.4L290.088 42.78L290.918 42.78L290.918 44.41ZM289.568 48.1L288.508 48.1L288.508 47.26L289.568 47.26L289.568 48.1ZM300.198 45.14C300.718 45.14 301.048 44.86 301.048 44.41L301.048 42.78L301.878 42.78L301.878 44.38C301.878 44.88 302.158 45.14 302.688 45.14L302.958 45.14C302.998 45.14 303.058 45.18 303.058 45.58C303.058 45.97 302.998 46 302.958 46L302.658 46C302.068 46 301.648 45.81 301.458 45.41C301.218 45.81 300.778 46 300.198 46L296.668 46C295.468 46 294.898 45.31 294.898 44.27L294.898 42.78L295.728 42.78L295.728 44.16C295.728 44.76 296.018 45.14 296.718 45.14L300.198 45.14ZM298.908 48.1L297.848 48.1L297.848 47.26L298.908 47.26L298.908 48.1ZM303.735 45.14C304.335 45.14 304.665 44.83 304.665 44.35L304.665 42.78L305.505 42.78L305.505 44.35C305.505 44.85 305.785 45.14 306.395 45.14C306.995 45.14 307.325 44.83 307.325 44.35L307.325 42.78L308.155 42.78L308.155 44.35C308.155 44.85 308.445 45.14 309.005 45.14C309.565 45.14 309.865 44.85 309.865 44.35L309.865 42.78L310.695 42.78L310.695 44.33C310.695 45.38 310.035 46 309.005 46C308.315 46 307.895 45.78 307.705 45.38C307.465 45.78 307.025 46 306.395 46C305.655 46 305.235 45.78 305.045 45.38C304.805 45.78 304.365 46 303.735 46L302.955 46C302.915 46 302.855 45.97 302.855 45.58C302.855 45.18 302.915 45.14 302.955 45.14L303.735 45.14ZM314.22 45.14C314.27 45.14 314.32 45.18 314.32 45.58C314.32 45.97 314.27 46 314.22 46L313.96 46C312.93 46 312.41 45.35 312.41 44.25L312.41 39.53L313.24 39.53L313.24 44.21C313.24 44.83 313.49 45.14 314 45.14L314.22 45.14ZM317.035 41.58L315.975 41.58L315.975 40.75L317.035 40.75L317.035 41.58ZM315.425 45.14C315.935 45.14 316.275 44.86 316.275 44.4L316.275 42.78L317.105 42.78L317.105 44.38C317.105 44.88 317.385 45.14 317.905 45.14L318.185 45.14C318.225 45.14 318.285 45.18 318.285 45.57C318.285 45.97 318.225 46 318.185 46L317.875 46C317.285 46 316.865 45.81 316.675 45.41C316.435 45.81 315.995 46 315.425 46L314.225 46C314.185 46 314.125 45.97 314.125 45.58C314.125 45.18 314.185 45.14 314.225 45.14L315.425 45.14ZM318.639 41.58L318.639 40.79L321.279 40.79L321.279 41.58L318.639 41.58ZM322.149 45.14C322.189 45.14 322.249 45.18 322.249 45.57C322.249 45.97 322.189 46 322.149 46L321.839 46C321.249 46 320.829 45.81 320.639 45.41C320.399 45.81 319.959 46 319.389 46L318.189 46C318.149 46 318.089 45.97 318.089 45.58C318.089 45.18 318.149 45.14 318.189 45.14L319.389 45.14C319.899 45.14 320.239 44.86 320.239 44.4L320.239 42.78L321.069 42.78L321.069 44.38C321.069 44.88 321.349 45.14 321.869 45.14L322.149 45.14ZM322.384 45.14C322.864 45.14 323.094 44.93 323.094 44.5L323.094 44.09C323.094 42.81 323.814 42.03 325.004 42.03C326.194 42.03 326.854 42.74 326.854 44.05C326.854 45.29 326.144 46 324.974 46C324.274 46 323.804 45.78 323.574 45.38C323.354 45.81 323.004 46 322.384 46L322.154 46C322.114 46 322.054 45.97 322.054 45.58C322.054 45.18 322.114 45.14 322.154 45.14L322.384 45.14ZM326.024 44.05C326.024 43.27 325.684 42.87 324.974 42.87C324.264 42.87 323.924 43.27 323.924 44.09C323.924 44.74 324.304 45.14 324.974 45.14C325.664 45.14 326.024 44.79 326.024 44.05ZM285.437 58.48L284.377 58.48L284.377 57.65L285.437 57.65L285.437 58.48ZM284.837 64.44C283.147 64.44 282.217 63.41 282.217 61.67L282.217 59.78L283.047 59.78L283.047 61.65C283.047 62.91 283.667 63.58 284.857 63.58L285.277 63.58C286.417 63.58 287.167 62.87 287.167 61.73L287.167 58.78L287.997 58.78L287.997 61.65C287.997 63.4 286.867 64.44 285.277 64.44L284.837 64.44ZM289.7 62L289.7 55.53L290.53 55.53L290.53 62L289.7 62ZM294.377 61.14C294.847 61.14 295.157 60.91 295.157 60.6C295.157 60.31 294.967 59.81 294.047 57.33L294.817 56.98L295.987 60.3C296.197 60.9 296.417 61.14 296.897 61.14L297.107 61.14C297.157 61.14 297.207 61.19 297.207 61.58C297.207 61.99 297.157 62 297.107 62L296.867 62C296.267 62 295.867 61.81 295.637 61.37C295.387 61.81 294.987 62 294.377 62L292.037 62L291.957 61.14L294.377 61.14ZM299.33 57.58L298.27 57.58L298.27 56.75L299.33 56.75L299.33 57.58ZM299.79 60.41C299.79 61.41 299.13 62 298.15 62L297.11 62C297.07 62 297.01 61.97 297.01 61.58C297.01 61.18 297.07 61.14 297.11 61.14L298.15 61.14C298.62 61.14 298.96 60.88 298.96 60.4L298.96 58.78L299.79 58.78L299.79 60.41ZM302.677 57.55L303.267 56.96L305.187 59.17C305.637 59.68 305.787 60.1 305.787 60.52C305.787 61.38 305.177 62 304.037 62L301.187 62L301.107 61.14L304.037 61.14C304.627 61.14 304.957 60.89 304.957 60.51C304.957 60.27 304.837 60.04 304.547 59.7L302.677 57.55Z" fill="black"/>
</g>
<g filter="url(#filter1_d_3499_1381)">
<rect x="131" y="46" width="80" height="76" rx="4" fill="white"/>
<path opacity="0.5" d="M161 63.3175C161 67.0468 165.019 70.991 167.962 73.3786C169.294 74.4595 169.96 75 171 75C172.04 75 172.706 74.4596 174.038 73.3787C176.981 70.991 181 67.0468 181 63.3175C181 57.0875 175.5 54.7615 171 59.5741C166.5 54.7615 161 57.0875 161 63.3175Z" fill="#C0DEC9"/>
<path fill-rule="evenodd" clip-rule="evenodd" d="M175.5 60.25C175.914 60.25 176.25 60.5858 176.25 61L176.25 62.25H177.5C177.914 62.25 178.25 62.5858 178.25 63C178.25 63.4142 177.914 63.75 177.5 63.75H176.25V65C176.25 65.4142 175.914 65.75 175.5 65.75C175.086 65.75 174.75 65.4142 174.75 65L174.75 63.75L173.5 63.75C173.086 63.75 172.75 63.4142 172.75 63C172.75 62.5858 173.086 62.25 173.5 62.25H174.75L174.75 61C174.75 60.5858 175.086 60.25 175.5 60.25Z" fill="#C0DEC9"/>
<path d="M157.23 92.15C157.23 91.73 156.99 91.52 156.49 91.52L154.59 91.52L154.59 89.7C154.59 88.6 155.3 87.84 156.44 87.84L157.71 87.84L157.78 88.67L156.42 88.67C155.83 88.67 155.43 89.1 155.43 89.67L155.43 90.66L156.63 90.66C157.61 90.66 158.06 91.2 158.06 92.1C158.06 93.38 156.86 94.44 155.32 94.44L154.55 94.44C152.86 94.44 151.93 93.41 151.93 91.67L151.93 89.78L152.76 89.78L152.76 91.65C152.76 92.91 153.38 93.58 154.57 93.58L155.32 93.58C156.47 93.58 157.23 92.97 157.23 92.15ZM159.764 92L159.764 85.53L160.594 85.53L160.594 92L159.764 92ZM163.736 90.37C163.736 90.86 164.026 91.14 164.576 91.14L164.706 91.14C164.746 91.14 164.806 91.19 164.806 91.58C164.806 91.97 164.746 92 164.706 92L164.576 92C164.216 92 163.876 91.86 163.736 91.66L163.736 91.78C163.706 93.4 162.666 94.44 161.116 94.44L160.416 94.44L160.336 93.58L161.096 93.58C162.226 93.58 162.906 92.89 162.906 91.71L162.906 88.78L163.736 88.78L163.736 90.37ZM167.384 90.41C167.384 91.41 166.724 92 165.744 92L164.704 92C164.664 92 164.604 91.97 164.604 91.58C164.604 91.18 164.664 91.14 164.704 91.14L165.744 91.14C166.214 91.14 166.554 90.88 166.554 90.4L166.554 88.78L167.384 88.78L167.384 90.41ZM166.034 94.1L164.974 94.1L164.974 93.26L166.034 93.26L166.034 94.1ZM174.583 88.48L173.523 88.48L173.523 87.65L174.583 87.65L174.583 88.48ZM177.143 90.43C177.143 90.86 177.423 91.14 177.923 91.14L178.113 91.14C178.153 91.14 178.213 91.18 178.213 91.58C178.213 91.97 178.153 92 178.113 92L177.953 92C177.603 92 177.283 91.88 177.143 91.71L177.143 91.83C177.113 93.37 176.013 94.44 174.423 94.44L173.983 94.44C172.293 94.44 171.363 93.41 171.363 91.67L171.363 89.78L172.193 89.78L172.193 91.65C172.193 92.91 172.813 93.58 174.003 93.58L174.423 93.58C175.563 93.58 176.313 92.87 176.313 91.73L176.313 88.78L177.143 88.78L177.143 90.43ZM178.342 91.14C178.822 91.14 179.052 90.93 179.052 90.5L179.052 90.09C179.052 88.81 179.772 88.03 180.962 88.03C182.152 88.03 182.812 88.74 182.812 90.05L182.812 90.33C182.812 90.91 183.052 91.14 183.502 91.14L183.752 91.14C183.792 91.14 183.852 91.18 183.852 91.58C183.852 91.97 183.792 92 183.752 92L183.502 92C182.932 92 182.552 91.81 182.372 91.36C182.092 91.79 181.542 92 180.932 92C180.232 92 179.762 91.78 179.532 91.38C179.312 91.81 178.962 92 178.342 92L178.112 92C178.072 92 178.012 91.97 178.012 91.58C178.012 91.18 178.072 91.14 178.112 91.14L178.342 91.14ZM181.982 90.05C181.982 89.27 181.642 88.87 180.932 88.87C180.222 88.87 179.882 89.27 179.882 90.09C179.882 90.74 180.262 91.14 180.932 91.14C181.622 91.14 181.982 90.79 181.982 90.05ZM185.607 88.78L186.437 88.78L186.437 90.41C186.437 91.41 185.777 92 184.797 92L183.757 92C183.717 92 183.657 91.97 183.657 91.58C183.657 91.18 183.717 91.14 183.757 91.14L184.797 91.14C185.267 91.14 185.607 90.88 185.607 90.4L185.607 88.78ZM185.877 93.26L185.877 94.06L183.237 94.06L183.237 93.26L185.877 93.26ZM188.133 92L188.133 85.53L188.963 85.53L188.963 92L188.133 92ZM154.167 107.14C154.217 107.14 154.267 107.18 154.267 107.58C154.267 107.97 154.217 108 154.167 108L153.907 108C152.877 108 152.357 107.35 152.357 106.25L152.357 101.53L153.187 101.53L153.187 106.21C153.187 106.83 153.437 107.14 153.947 107.14L154.167 107.14ZM155.742 107.14C155.322 106.85 155.042 106.3 155.042 105.78C155.042 104.69 155.872 103.88 156.982 103.88C158.022 103.88 158.822 104.67 158.822 105.7C158.822 106.28 158.522 106.81 157.992 107.14L159.472 107.14C160.062 107.14 160.362 106.89 160.362 106.51C160.362 106.27 160.272 106.03 159.922 105.67L157.892 103.54L158.492 102.93L160.562 105.14C161.012 105.62 161.192 106.07 161.192 106.52C161.192 107.41 160.552 108 159.472 108L158.342 108C157.492 108 157.172 107.97 156.922 107.84C156.672 107.97 156.272 108 155.462 108L154.172 108C154.132 108 154.072 107.97 154.072 107.58C154.072 107.18 154.132 107.14 154.172 107.14L155.742 107.14ZM156.882 107.12C157.622 106.81 158.022 106.33 158.022 105.78C158.022 105.15 157.572 104.72 156.932 104.72C156.292 104.72 155.842 105.15 155.842 105.78C155.842 106.35 156.202 106.81 156.882 107.12ZM168.397 104.48L167.337 104.48L167.337 103.65L168.397 103.65L168.397 104.48ZM167.797 110.44C166.107 110.44 165.177 109.41 165.177 107.67L165.177 105.78L166.007 105.78L166.007 107.65C166.007 108.91 166.627 109.58 167.817 109.58L168.237 109.58C169.377 109.58 170.127 108.87 170.127 107.73L170.127 104.78L170.957 104.78L170.957 107.65C170.957 109.4 169.827 110.44 168.237 110.44L167.797 110.44ZM172.66 108L172.66 101.53L173.49 101.53L173.49 108L172.66 108ZM177.336 107.14C177.806 107.14 178.116 106.91 178.116 106.6C178.116 106.31 177.926 105.81 177.006 103.33L177.776 102.98L178.946 106.3C179.156 106.9 179.376 107.14 179.856 107.14L180.066 107.14C180.116 107.14 180.166 107.19 180.166 107.58C180.166 107.99 180.116 108 180.066 108L179.826 108C179.226 108 178.826 107.81 178.596 107.37C178.346 107.81 177.946 108 177.336 108L174.996 108L174.916 107.14L177.336 107.14ZM182.29 103.58L181.23 103.58L181.23 102.75L182.29 102.75L182.29 103.58ZM182.75 106.41C182.75 107.41 182.09 108 181.11 108L180.07 108C180.03 108 179.97 107.97 179.97 107.58C179.97 107.18 180.03 107.14 180.07 107.14L181.11 107.14C181.58 107.14 181.92 106.88 181.92 106.4L181.92 104.78L182.75 104.78L182.75 106.41ZM185.637 103.55L186.227 102.96L188.147 105.17C188.597 105.68 188.747 106.1 188.747 106.52C188.747 107.38 188.137 108 186.997 108L184.147 108L184.067 107.14L186.997 107.14C187.587 107.14 187.917 106.89 187.917 106.51C187.917 106.27 187.797 106.04 187.507 105.7L185.637 103.55Z" fill="black"/>
</g>
<g filter="url(#filter2_d_3499_1381)">
<rect x="8" width="80" height="76" rx="4" fill="white"/>
<path d="M52.5904 15.41L42.3104 25.69C41.8304 26.17 41.0104 26.06 40.7204 25.45C40.2004 24.38 39.9004 23.17 39.9004 21.9C39.8804 16.38 45.4804 11.66 47.3804 10.21C47.7504 9.93 48.2504 9.93 48.6104 10.21C49.4804 10.87 51.1104 12.24 52.6404 14.04C52.9804 14.44 52.9604 15.04 52.5904 15.41Z" fill="#C0DEC9"/>
<path opacity="0.4" d="M56.1 21.9103C56.1 26.3703 52.47 30.0003 48 30.0003C46.21 30.0003 44.54 29.4203 43.19 28.4203C42.7 28.0603 42.66 27.3403 43.09 26.9103L53.16 16.8403C53.63 16.3703 54.42 16.4703 54.74 17.0503C55.56 18.5603 56.11 20.2003 56.1 21.9103Z" fill="#C0DEC9"/>
<path d="M29.0889 41.58L28.0289 41.58L28.0289 40.75L29.0889 40.75L29.0889 41.58ZM29.0489 45.71C29.0489 47.4 27.9789 48.44 26.4289 48.44L26.1489 48.44L26.0689 47.58L26.4089 47.58C27.5389 47.58 28.2189 46.89 28.2189 45.71L28.2189 42.78L29.0489 42.78L29.0489 45.71ZM30.7506 46L30.7506 39.53L31.5806 39.53L31.5806 46L30.7506 46ZM35.6701 44.35C35.6701 43.61 36.0201 42.93 37.0701 41.89L36.6301 41.44L37.2201 40.81C39.2001 42.67 39.6101 43.34 39.6101 44.25C39.6101 45.32 38.7801 46.1 37.5601 46.1C36.4201 46.1 35.6701 45.39 35.6701 44.35ZM38.7801 44.25C38.7801 43.7 38.5201 43.24 37.6401 42.42C36.7901 43.24 36.5001 43.75 36.5001 44.3C36.5001 44.84 36.9101 45.24 37.5901 45.24C38.2801 45.24 38.7801 44.82 38.7801 44.25ZM42.4972 41.55L43.0872 40.96L45.0072 43.17C45.4572 43.68 45.6072 44.1 45.6072 44.52C45.6072 45.38 44.9972 46 43.8572 46L41.0072 46L40.9272 45.14L43.8572 45.14C44.4472 45.14 44.7772 44.89 44.7772 44.51C44.7772 44.27 44.6572 44.04 44.3672 43.7L42.4972 41.55ZM49.1133 45.14C49.1633 45.14 49.2133 45.18 49.2133 45.58C49.2133 45.97 49.1633 46 49.1133 46L48.8533 46C47.8233 46 47.3033 45.35 47.3033 44.25L47.3033 39.53L48.1333 39.53L48.1333 44.21C48.1333 44.83 48.3833 45.14 48.8933 45.14L49.1133 45.14ZM52.4382 40.68L51.3782 40.68L51.3782 39.85L52.4382 39.85L52.4382 40.68ZM50.7182 45.14C50.2682 44.83 49.9882 44.3 49.9882 43.75C49.9882 42.69 50.8182 41.85 51.9082 41.85C53.0282 41.85 53.8082 42.61 53.8082 43.7C53.8082 44.3 53.5582 44.78 53.0282 45.14L54.6782 45.14C54.7182 45.14 54.7782 45.18 54.7782 45.58C54.7782 45.97 54.7182 46 54.6782 46L53.3482 46C52.5382 46 52.1782 45.96 51.9282 45.84C51.6782 45.96 51.2682 46 50.4682 46L49.1182 46C49.0782 46 49.0182 45.97 49.0182 45.58C49.0182 45.18 49.0782 45.14 49.1182 45.14L50.7182 45.14ZM51.9082 42.69C51.2682 42.69 50.8182 43.14 50.8182 43.75C50.8182 44.33 51.2082 44.81 51.9082 45.12C52.6482 44.79 52.9782 44.28 52.9782 43.75C52.9782 43.11 52.5682 42.69 51.9082 42.69ZM55.1248 41.58L55.1248 40.79L57.7648 40.79L57.7648 41.58L55.1248 41.58ZM58.6348 45.14C58.6748 45.14 58.7348 45.18 58.7348 45.57C58.7348 45.97 58.6748 46 58.6348 46L58.3248 46C57.7348 46 57.3148 45.81 57.1248 45.41C56.8848 45.81 56.4448 46 55.8748 46L54.6748 46C54.6348 46 54.5748 45.97 54.5748 45.58C54.5748 45.18 54.6348 45.14 54.6748 45.14L55.8748 45.14C56.3848 45.14 56.7248 44.86 56.7248 44.4L56.7248 42.78L57.5548 42.78L57.5548 44.38C57.5548 44.88 57.8348 45.14 58.3548 45.14L58.6348 45.14ZM59.4196 45.14C60.0196 45.14 60.3496 44.83 60.3496 44.35L60.3496 42.78L61.1896 42.78L61.1896 44.35C61.1896 44.85 61.4696 45.14 62.0796 45.14C62.6796 45.14 63.0096 44.83 63.0096 44.35L63.0096 42.78L63.8396 42.78L63.8396 44.35C63.8396 44.85 64.1296 45.14 64.6896 45.14C65.2496 45.14 65.5496 44.85 65.5496 44.35L65.5496 42.78L66.3796 42.78L66.3796 44.33C66.3796 45.38 65.7196 46 64.6896 46C63.9996 46 63.5796 45.78 63.3896 45.38C63.1496 45.78 62.7096 46 62.0796 46C61.3396 46 60.9196 45.78 60.7296 45.38C60.4896 45.78 60.0496 46 59.4196 46L58.6396 46C58.5996 46 58.5396 45.97 58.5396 45.58C58.5396 45.18 58.5996 45.14 58.6396 45.14L59.4196 45.14ZM68.0943 46L68.0943 39.53L68.9243 39.53L68.9243 46L68.0943 46ZM25.0924 61.97L25.1824 61.14L29.2324 61.14C29.2724 61.14 29.3324 61.18 29.3324 61.58C29.3324 61.97 29.2724 62 29.2324 62L28.1924 62C28.2924 62.1 28.3424 62.28 28.3424 62.47C28.3424 63.63 27.2824 64.44 25.6324 64.44L24.8624 64.44C23.1724 64.44 22.2424 63.41 22.2424 61.67L22.2424 59.78L23.0724 59.78L23.0724 61.65C23.0724 62.91 23.6924 63.58 24.8824 63.58L25.6324 63.58C26.8724 63.58 27.5124 63.16 27.5124 62.49C27.5124 62.13 27.3424 61.97 26.9524 61.97L25.0924 61.97ZM29.8853 61.14C30.7153 61.14 31.1353 61.07 31.4253 60.92L30.0753 58.97L30.5353 58.13L33.0953 58.13C33.8253 58.13 34.4053 58.46 34.4053 59.18C34.4053 59.69 34.1653 60.09 33.1153 60.98C33.3153 61.1 33.5853 61.14 34.2653 61.14L35.2453 61.14C35.2953 61.14 35.3453 61.18 35.3453 61.58C35.3453 61.97 35.2953 62 35.2453 62L34.2653 62C32.9853 62 32.5853 61.88 32.1853 61.49C31.5753 61.88 30.9353 62 29.8553 62L29.2353 62C29.1953 62 29.1353 61.97 29.1353 61.58C29.1353 61.18 29.1953 61.14 29.2353 61.14L29.8853 61.14ZM33.6053 59.35C33.6053 59.08 33.3753 58.93 32.9753 58.93L30.9953 58.93L32.2753 60.8C33.3653 59.9 33.6053 59.61 33.6053 59.35ZM39.2012 61.14C39.2412 61.14 39.3012 61.18 39.3012 61.57C39.3012 61.97 39.2412 62 39.2012 62L38.8912 62C38.3012 62 37.8812 61.81 37.6912 61.41C37.4512 61.81 37.0112 62 36.4412 62L35.2412 62C35.2012 62 35.1412 61.97 35.1412 61.58C35.1412 61.18 35.2012 61.14 35.2412 61.14L36.4412 61.14C36.9512 61.14 37.2912 60.86 37.2912 60.4L37.2912 58.78L38.1212 58.78L38.1212 60.38C38.1212 60.88 38.4012 61.14 38.9212 61.14L39.2012 61.14ZM37.3012 63.26L37.3012 64.06L34.6612 64.06L34.6612 63.26L37.3012 63.26ZM40.4061 61.14C40.9161 61.14 41.2561 60.86 41.2561 60.4L41.2561 58.78L42.0861 58.78L42.0861 60.38C42.0861 60.88 42.3661 61.14 42.8861 61.14L43.1661 61.14C43.2061 61.14 43.2661 61.18 43.2661 61.57C43.2661 61.97 43.2061 62 43.1661 62L42.8561 62C42.2661 62 41.8461 61.81 41.6561 61.41C41.4161 61.81 40.9761 62 40.4061 62L39.2061 62C39.1661 62 39.1061 61.97 39.1061 61.58C39.1061 61.18 39.1661 61.14 39.2061 61.14L40.4061 61.14ZM40.776 64.1L39.716 64.1L39.716 63.26L40.776 63.26L40.776 64.1ZM44.1109 61.14L44.1109 55.53L44.9409 55.53L44.9409 59.78C45.8209 58.42 46.6209 57.89 47.4209 57.89C48.5009 57.89 49.3009 58.74 49.3009 59.95C49.3009 61.17 48.5009 62 47.2109 62L43.1709 62C43.1309 62 43.0709 61.97 43.0709 61.58C43.0709 61.18 43.1309 61.14 43.1709 61.14L44.1109 61.14ZM47.2109 61.14C48.0109 61.14 48.4709 60.68 48.4709 59.95C48.4709 59.22 47.9909 58.72 47.3609 58.72C46.5909 58.72 45.8509 59.49 44.8809 61.14L47.2109 61.14ZM54.5871 57.55L55.1771 56.96L57.0971 59.17C57.5471 59.68 57.6971 60.1 57.6971 60.52C57.6971 61.38 57.0871 62 55.9471 62L53.0971 62L53.0171 61.14L55.9471 61.14C56.5371 61.14 56.8671 60.89 56.8671 60.51C56.8671 60.27 56.7471 60.04 56.4571 59.7L54.5871 57.55ZM59.3932 62L59.3932 55.53L60.2232 55.53L60.2232 62L59.3932 62ZM66.6799 61.14C66.7299 61.14 66.7799 61.18 66.7799 61.58C66.7799 61.97 66.7299 62 66.6799 62L65.7199 62C65.5999 63.53 64.6199 64.44 63.1399 64.44L61.9099 64.44L61.8299 63.58L63.1499 63.58C64.2199 63.58 64.8999 62.97 64.9099 62L63.9099 62C62.5199 62 61.9699 61.44 61.9699 60.25C61.9699 58.99 62.7499 58.13 63.8699 58.13C65.0299 58.13 65.7399 58.96 65.7399 60.3L65.7399 61.14L66.6799 61.14ZM62.7999 60.2C62.7999 60.88 63.0899 61.14 63.9599 61.14L64.9099 61.14L64.9099 60.36C64.9099 59.44 64.5299 58.97 63.8199 58.97C63.1999 58.97 62.7999 59.47 62.7999 60.2ZM66.9068 61.14C67.3868 61.14 67.6168 60.93 67.6168 60.5L67.6168 60.09C67.6168 58.81 68.3368 58.03 69.5268 58.03C70.7168 58.03 71.3768 58.74 71.3768 60.05C71.3768 61.29 70.6668 62 69.4968 62C68.7968 62 68.3268 61.78 68.0968 61.38C67.8768 61.81 67.5268 62 66.9068 62L66.6768 62C66.6368 62 66.5768 61.97 66.5768 61.58C66.5768 61.18 66.6368 61.14 66.6768 61.14L66.9068 61.14ZM70.5468 60.05C70.5468 59.27 70.2068 58.87 69.4968 58.87C68.7868 58.87 68.4468 59.27 68.4468 60.09C68.4468 60.74 68.8268 61.14 69.4968 61.14C70.1868 61.14 70.5468 60.79 70.5468 60.05Z" fill="black"/>
</g>
<defs>
<filter id="filter0_d_3499_1381" x="250" y="0" width="88" height="84" filterUnits="userSpaceOnUse" color-interpolation-filters="sRGB">
<feFlood flood-opacity="0" result="BackgroundImageFix"/>
<feColorMatrix in="SourceAlpha" type="matrix" values="0 0 0 0 0 0 0 0 0 0 0 0 0 0 0 0 0 0 127 0" result="hardAlpha"/>
<feOffset dy="4"/>
<feGaussianBlur stdDeviation="2"/>
<feComposite in2="hardAlpha" operator="out"/>
<feColorMatrix type="matrix" values="0 0 0 0 0.412842 0 0 0 0 0.412842 0 0 0 0 0.412842 0 0 0 0.19 0"/>
<feBlend mode="normal" in2="BackgroundImageFix" result="effect1_dropShadow_3499_1381"/>
<feBlend mode="normal" in="SourceGraphic" in2="effect1_dropShadow_3499_1381" result="shape"/>
</filter>
<filter id="filter1_d_3499_1381" x="127" y="46" width="88" height="84" filterUnits="userSpaceOnUse" color-interpolation-filters="sRGB">
<feFlood flood-opacity="0" result="BackgroundImageFix"/>
<feColorMatrix in="SourceAlpha" type="matrix" values="0 0 0 0 0 0 0 0 0 0 0 0 0 0 0 0 0 0 127 0" result="hardAlpha"/>
<feOffset dy="4"/>
<feGaussianBlur stdDeviation="2"/>
<feComposite in2="hardAlpha" operator="out"/>
<feColorMatrix type="matrix" values="0 0 0 0 0.412842 0 0 0 0 0.412842 0 0 0 0 0.412842 0 0 0 0.19 0"/>
<feBlend mode="normal" in2="BackgroundImageFix" result="effect1_dropShadow_3499_1381"/>
<feBlend mode="normal" in="SourceGraphic" in2="effect1_dropShadow_3499_1381" result="shape"/>
</filter>
<filter id="filter2_d_3499_1381" x="4" y="0" width="88" height="84" filterUnits="userSpaceOnUse" color-interpolation-filters="sRGB">
<feFlood flood-opacity="0" result="BackgroundImageFix"/>
<feColorMatrix in="SourceAlpha" type="matrix" values="0 0 0 0 0 0 0 0 0 0 0 0 0 0 0 0 0 0 127 0" result="hardAlpha"/>
<feOffset dy="4"/>
<feGaussianBlur stdDeviation="2"/>
<feComposite in2="hardAlpha" operator="out"/>
<feColorMatrix type="matrix" values="0 0 0 0 0.412842 0 0 0 0 0.412842 0 0 0 0 0.412842 0 0 0 0.19 0"/>
<feBlend mode="normal" in2="BackgroundImageFix" result="effect1_dropShadow_3499_1381"/>
<feBlend mode="normal" in="SourceGraphic" in2="effect1_dropShadow_3499_1381" result="shape"/>
</filter>
<linearGradient id="paint0_linear_3499_1381" x1="294" y1="10" x2="294" y2="106" gradientUnits="userSpaceOnUse">
<stop stop-color="#D2EAD9"/>
<stop offset="0.591346" stop-color="white"/>
</linearGradient>
<linearGradient id="paint1_linear_3499_1381" x1="171" y1="56" x2="171" y2="152" gradientUnits="userSpaceOnUse">
<stop stop-color="#D2EAD9"/>
<stop offset="0.591346" stop-color="white"/>
</linearGradient>
<linearGradient id="paint2_linear_3499_1381" x1="48" y1="10" x2="48" y2="106" gradientUnits="userSpaceOnUse">
<stop stop-color="#D2EAD9"/>
<stop offset="0.591346" stop-color="white"/>
</linearGradient>
</defs>
</svg>
