<svg width="746" height="592" viewBox="0 0 746 592" fill="none" xmlns="http://www.w3.org/2000/svg">
<path d="M794 519.911H0V520.308H794V519.911Z" fill="#E6E6E6"/>
<path d="M198.214 543.938H145.62V544.335H198.214V543.938Z" fill="#E6E6E6"/>
<path d="M128.977 543.938H98.5037V544.335H128.977V543.938Z" fill="#E6E6E6"/>
<path d="M334.353 549.782H303.88V550.179H334.353V549.782Z" fill="#E6E6E6"/>
<path d="M493.249 558.643H424.663V559.04H493.249V558.643Z" fill="#E6E6E6"/>
<path d="M410.53 558.643H400.478V559.04H410.53V558.643Z" fill="#E6E6E6"/>
<path d="M719.92 549.782H571.156V550.179H719.92V549.782Z" fill="#E6E6E6"/>
<path d="M376.356 449.086H69.7291C67.327 449.082 65.0247 448.125 63.3277 446.425C61.6306 444.725 60.6775 442.421 60.6775 440.019V8.98808C60.6984 6.59977 61.6608 4.31615 63.3556 2.63325C65.0504 0.950352 67.3407 0.0040913 69.7291 0H376.356C378.761 0 381.067 0.955321 382.768 2.6558C384.468 4.35629 385.424 6.66263 385.424 9.06748V440.019C385.424 442.424 384.468 444.73 382.768 446.431C381.067 448.131 378.761 449.086 376.356 449.086ZM69.7291 0.317601C67.4323 0.321808 65.231 1.23716 63.6084 2.86273C61.9858 4.4883 61.0745 6.69127 61.0745 8.98808V440.019C61.0745 442.316 61.9858 444.519 63.6084 446.144C65.231 447.77 67.4323 448.685 69.7291 448.689H376.356C378.654 448.685 380.857 447.77 382.482 446.145C384.107 444.52 385.022 442.317 385.027 440.019V8.98808C385.022 6.68981 384.107 4.48688 382.482 2.86176C380.857 1.23664 378.654 0.321799 376.356 0.317601H69.7291Z" fill="#E6E6E6"/>
<path d="M719.856 449.086H413.213C410.81 449.082 408.506 448.126 406.806 446.426C405.107 444.726 404.15 442.422 404.146 440.019V8.98808C404.171 6.59832 405.137 4.31472 406.834 2.63226C408.532 0.949796 410.824 0.00404668 413.213 0H719.856C722.242 0.00826474 724.528 0.956372 726.22 2.63882C727.911 4.32128 728.871 6.60251 728.892 8.98808V440.019C728.892 442.418 727.941 444.72 726.247 446.419C724.554 448.119 722.256 449.078 719.856 449.086ZM413.213 0.317601C410.915 0.321799 408.712 1.23664 407.087 2.86176C405.462 4.48688 404.547 6.68981 404.543 8.98808V440.019C404.547 442.317 405.462 444.52 407.087 446.145C408.712 447.77 410.915 448.685 413.213 448.689H719.856C722.155 448.685 724.357 447.77 725.983 446.145C727.608 444.52 728.523 442.317 728.527 440.019V8.98808C728.523 6.68981 727.608 4.48688 725.983 2.86176C724.357 1.23664 722.155 0.321799 719.856 0.317601H413.213Z" fill="#E6E6E6"/>
<path d="M424.631 384.264H389.711V522.785H424.631V384.264Z" fill="#E0E0E0"/>
<path d="M417.993 522.785H424.631V503.92H411.038L417.993 522.785Z" fill="#FAFAFA"/>
<path d="M271.612 384.264H236.691V522.785H271.612V384.264Z" fill="#E0E0E0"/>
<path d="M424.631 384.264H265.831V511.209H424.631V384.264Z" fill="#FAFAFA"/>
<path d="M418.867 390.505V424.091H271.548V390.505H418.819M419.438 389.886H270.976V424.695H419.486V389.886H419.438Z" fill="#E0E0E0"/>
<path d="M272.453 522.785H265.831V503.92H279.409L272.453 522.785Z" fill="#FAFAFA"/>
<path d="M341.722 407.29C341.722 407.984 341.928 408.663 342.313 409.24C342.699 409.817 343.247 410.267 343.888 410.533C344.53 410.798 345.235 410.868 345.916 410.732C346.597 410.597 347.222 410.263 347.713 409.772C348.204 409.281 348.538 408.656 348.673 407.975C348.809 407.294 348.739 406.589 348.474 405.947C348.208 405.306 347.758 404.758 347.181 404.372C346.604 403.987 345.925 403.781 345.231 403.781C344.3 403.781 343.408 404.151 342.75 404.809C342.092 405.467 341.722 406.36 341.722 407.29Z" fill="#E6E6E6"/>
<path d="M418.867 430.936V464.522H271.548V430.936H418.819M419.438 430.332H270.976V465.141H419.486V430.348L419.438 430.332Z" fill="#E0E0E0"/>
<path d="M341.722 447.816C341.722 448.51 341.928 449.189 342.313 449.766C342.699 450.343 343.247 450.793 343.888 451.058C344.53 451.324 345.235 451.393 345.916 451.258C346.597 451.123 347.222 450.788 347.713 450.298C348.204 449.807 348.538 449.181 348.673 448.501C348.809 447.82 348.739 447.114 348.474 446.473C348.208 445.832 347.758 445.284 347.181 444.898C346.604 444.512 345.925 444.307 345.231 444.307C344.3 444.307 343.408 444.676 342.75 445.334C342.092 445.993 341.722 446.885 341.722 447.816Z" fill="#E6E6E6"/>
<path d="M418.867 471.382V504.984H271.548V471.382H418.819M419.438 470.763H270.976V505.587H419.486V470.763H419.438Z" fill="#E0E0E0"/>
<path d="M341.722 488.183C341.725 488.876 341.933 489.553 342.321 490.128C342.708 490.703 343.258 491.151 343.899 491.414C344.541 491.677 345.246 491.744 345.926 491.607C346.605 491.47 347.229 491.134 347.718 490.643C348.208 490.152 348.54 489.526 348.674 488.846C348.808 488.166 348.738 487.461 348.472 486.82C348.206 486.18 347.756 485.633 347.179 485.248C346.603 484.863 345.925 484.658 345.231 484.658C344.769 484.658 344.311 484.749 343.884 484.926C343.458 485.104 343.07 485.364 342.744 485.691C342.418 486.019 342.16 486.407 341.984 486.835C341.809 487.263 341.72 487.721 341.722 488.183Z" fill="#E6E6E6"/>
<path d="M250.285 303.816H215.365V522.801H250.285V303.816Z" fill="#E0E0E0"/>
<path d="M243.647 522.785H250.285V503.92H236.707L243.647 522.785Z" fill="#FAFAFA"/>
<path d="M119.783 303.816H84.8627V522.801H119.783V303.816Z" fill="#E0E0E0"/>
<path d="M250.285 303.816H113.987V511.225H250.285V303.816Z" fill="#FAFAFA"/>
<path d="M244.409 309.66V356.617H119.862V309.66H244.409ZM245.14 308.945H119.1V357.3H245.108V308.961L245.14 308.945Z" fill="#E0E0E0"/>
<path d="M244.409 362.35V486.897H185.081V362.35H244.409ZM245.14 361.619H184.367V487.627H245.14V361.619Z" fill="#E0E0E0"/>
<path d="M179.19 362.35V486.897H119.862V362.35H179.19ZM179.904 361.619H119.1V487.627H179.873V361.619H179.904Z" fill="#E0E0E0"/>
<path d="M120.624 522.785H113.987V503.92H127.58L120.624 522.785Z" fill="#FAFAFA"/>
<path d="M178.618 333.162C178.615 333.86 178.819 334.543 179.205 335.125C179.59 335.707 180.14 336.161 180.783 336.431C181.427 336.7 182.137 336.772 182.822 336.638C183.506 336.504 184.136 336.169 184.631 335.677C185.125 335.184 185.463 334.556 185.6 333.872C185.737 333.188 185.668 332.478 185.402 331.833C185.136 331.188 184.684 330.636 184.104 330.248C183.524 329.86 182.841 329.653 182.144 329.653C181.211 329.653 180.317 330.022 179.656 330.68C178.996 331.338 178.622 332.23 178.618 333.162Z" fill="#E6E6E6"/>
<path d="M191.195 421.662C191.195 422.36 191.402 423.042 191.79 423.622C192.178 424.202 192.73 424.654 193.375 424.92C194.02 425.186 194.73 425.255 195.414 425.118C196.098 424.981 196.726 424.643 197.219 424.149C197.711 423.654 198.046 423.025 198.18 422.34C198.314 421.655 198.242 420.945 197.973 420.301C197.704 419.658 197.249 419.108 196.667 418.723C196.086 418.337 195.403 418.133 194.705 418.136C194.242 418.136 193.785 418.228 193.358 418.405C192.931 418.582 192.543 418.842 192.217 419.17C191.891 419.497 191.633 419.886 191.458 420.314C191.282 420.741 191.193 421.199 191.195 421.662Z" fill="#E6E6E6"/>
<path d="M166.057 421.662C166.06 422.355 166.269 423.032 166.656 423.607C167.044 424.182 167.593 424.629 168.235 424.893C168.876 425.156 169.581 425.223 170.261 425.086C170.941 424.949 171.565 424.613 172.054 424.122C172.543 423.63 172.876 423.005 173.01 422.325C173.144 421.644 173.074 420.939 172.807 420.299C172.541 419.659 172.092 419.112 171.515 418.727C170.938 418.342 170.26 418.136 169.567 418.136C169.104 418.136 168.647 418.228 168.22 418.405C167.793 418.582 167.406 418.842 167.079 419.17C166.753 419.497 166.495 419.886 166.32 420.314C166.144 420.741 166.055 421.199 166.057 421.662Z" fill="#E6E6E6"/>
<path d="M162.087 242.758H147.366C148.723 249.898 149.577 257.126 149.923 264.386C149.923 272.326 138.712 303.816 154.687 303.816C170.662 303.816 159.451 272.406 159.451 264.386C159.823 257.124 160.704 249.897 162.087 242.758Z" fill="#E0E0E0"/>
<path d="M106.078 274.962V284.49C106.095 289.598 108.132 294.492 111.743 298.104C115.355 301.715 120.249 303.752 125.357 303.769H134.885C139.992 303.752 144.886 301.715 148.498 298.104C152.11 294.492 154.146 289.598 154.163 284.49V274.962H106.078Z" fill="#F5F5F5"/>
<path d="M310.724 364.065C310.724 375.181 323.158 384.264 338.355 384.264H352.076C367.273 384.264 379.707 375.181 379.707 364.065H310.724Z" fill="#E0E0E0"/>
<path d="M674.281 347.772C665.959 354.569 654.462 367.003 643.95 384.502C636.931 396.158 632.707 408.322 630.849 424.488C630.849 406.226 630.96 386.615 631.024 368.098C633.136 363.334 637.963 352.345 641.425 343.675C652.97 314.726 657.305 307.596 667.675 282.632C681.538 249.284 695.735 209.807 691.669 212.967C683.38 219.398 651.62 278.869 648.19 287.38C638.84 310.095 633.06 334.12 631.055 358.602C631.055 341.134 631.182 325.254 631.246 312.931C631.468 272.739 632.151 259.765 632.484 255.763C633.771 253.731 635.279 251.365 636.169 250.094C643.632 239.296 646.507 230.117 653.525 214.015C663.498 191.227 672.073 150.749 669.564 152.782C659.115 161.293 650.889 179.555 640.059 202.851C629.229 226.147 632.326 239.534 630.182 259.416C629.737 263.322 629.388 278.059 629.134 298.465C626.339 276.709 621.067 262.385 611.459 249.364C599.645 233.341 588.211 222.526 579.826 216.873C571.442 211.22 594.309 250.571 605.234 267.689C614.969 282.998 623.941 296.48 629.054 309.771C628.784 337.45 628.657 372.481 628.657 405.051C626.148 390.219 622.051 374.228 616.589 361.858C610.014 346.994 599.915 324.19 591.863 316.457C589.942 314.599 600.28 358.952 606.918 370.734C613.556 382.517 618.431 393.649 622.607 400.335C623.576 401.923 626.815 407.91 628.657 411.371C628.657 451.183 628.88 486.309 629.229 498.267H630.944C630.833 495.186 630.801 474.923 630.849 448.118C634.994 433.572 644.458 416.961 652.271 401.812C660.783 385.408 682.602 341.023 674.281 347.772Z" fill="#E0E0E0"/>
<path d="M654.955 522.785H605.187L601.423 474.002H658.718L654.955 522.785Z" fill="#F0F0F0"/>
<path d="M662.418 479.687H597.707L595.865 463.22H664.276L662.418 479.687Z" fill="#F5F5F5"/>
<path d="M197.325 32.554H108.318V130.295H197.325V32.554Z" fill="#E0E0E0"/>
<path d="M206.964 32.554H115.019V130.295H206.964V32.554Z" fill="#F5F5F5"/>
<path d="M199.262 122.594V40.2558L122.721 40.2558V122.594H199.262Z" fill="white"/>
<path d="M180.698 102.617V60.2011H141.268V102.617H180.698Z" fill="#F5F5F5"/>
<path d="M651.159 43.94H568.472V134.742H651.159V43.94Z" fill="#E0E0E0"/>
<path d="M660.116 43.94H574.713V134.742H660.116V43.94Z" fill="#F5F5F5"/>
<path d="M652.97 127.58V51.1019L581.875 51.1019V127.58H652.97Z" fill="white"/>
<path d="M617.414 111.525C629.666 111.525 639.599 101.593 639.599 89.3409C639.599 77.0888 629.666 67.1565 617.414 67.1565C605.162 67.1565 595.23 77.0888 595.23 89.3409C595.23 101.593 605.162 111.525 617.414 111.525Z" fill="#F5F5F5"/>
<path d="M289.794 90.8336H223.765V163.342H289.794V90.8336Z" fill="#E0E0E0"/>
<path d="M296.94 90.8336H228.735V163.342H296.94V90.8336Z" fill="#F5F5F5"/>
<path d="M291.223 157.625V96.5504H234.452V157.625H291.223Z" fill="white"/>
<path d="M262.846 111.636L247.315 138.537H278.376L262.846 111.636Z" fill="#F5F5F5"/>
<path d="M397 591.625C567.047 591.625 704.897 583.577 704.897 573.649C704.897 563.721 567.047 555.673 397 555.673C226.953 555.673 89.1027 563.721 89.1027 573.649C89.1027 583.577 226.953 591.625 397 591.625Z" fill="#F5F5F5"/>
<path d="M554.609 172.187L538.856 165.835C538.856 165.835 518.069 203.74 512.114 205.662C504.015 208.266 487.246 215.507 477.305 216.778C475.955 218.366 473.748 223.305 473.954 225.099C487.31 229.561 516.656 223.638 522.944 218.969C537.252 208.377 554.609 172.187 554.609 172.187Z" fill="#E58A7B"/>
<path d="M559.452 163.564C562.39 174.41 546.478 196.229 546.478 196.229L525.628 184.541C525.628 184.541 529.535 175.569 534.299 166.438C541.937 151.686 556.102 151.193 559.452 163.564Z" fill="#017875"/>
<path opacity="0.2" d="M559.452 163.564C562.39 174.41 546.478 196.229 546.478 196.229L525.628 184.541C525.628 184.541 529.535 175.569 534.299 166.438C541.937 151.686 556.102 151.193 559.452 163.564Z" fill="black"/>
<path opacity="0.2" d="M533.901 189.21L542.111 193.815L543.557 168.614C538.777 172.282 535.41 183.335 533.901 189.21Z" fill="black"/>
<path d="M545.732 155.402C545.732 155.402 529.503 191.513 538.967 258.749H602.916C603.932 248.935 600.566 201.041 612.746 154.798C605.731 153.427 598.633 152.52 591.498 152.083C582.449 151.558 573.377 151.558 564.328 152.083C558.054 152.72 551.838 153.829 545.732 155.402Z" fill="#017875"/>
<path opacity="0.2" d="M545.732 155.402C545.732 155.402 529.503 191.513 538.967 258.749H602.916C603.932 248.935 600.566 201.041 612.746 154.798C605.731 153.427 598.633 152.52 591.498 152.083C582.449 151.558 573.377 151.558 564.328 152.083C558.054 152.72 551.838 153.829 545.732 155.402Z" fill="black"/>
<g style="mix-blend-mode:multiply">
<path d="M530.9 575.078C530.805 576.793 555.054 578.175 585.051 578.175C615.048 578.175 639.472 576.793 639.567 575.078C639.662 573.363 615.429 571.998 585.416 571.998C555.403 571.998 531.011 573.379 530.9 575.078Z" fill="#E8ECF1"/>
</g>
<path d="M573.587 530.015L562.244 534.406L572.014 559.645L583.357 555.255L573.587 530.015Z" fill="#E58A7B"/>
<path d="M624.163 562.867H612.206L607.823 535.188H619.781L624.163 562.867Z" fill="#E58A7B"/>
<path d="M611.38 561.485H624.814C625.048 561.486 625.273 561.569 625.45 561.72C625.628 561.872 625.746 562.081 625.783 562.311L627.514 572.935C627.551 573.201 627.529 573.472 627.452 573.73C627.374 573.987 627.242 574.225 627.064 574.427C626.886 574.629 626.667 574.79 626.421 574.9C626.176 575.01 625.909 575.065 625.64 575.063C620.956 574.983 618.701 574.697 612.793 574.697C609.157 574.697 601.677 575.078 596.627 575.078C591.578 575.078 591.244 570.124 593.324 569.663C602.662 567.647 606.282 564.899 609.395 562.231C609.944 561.749 610.65 561.484 611.38 561.485Z" fill="#263238"/>
<path d="M571.68 557.388L584.384 553.672C584.611 553.608 584.852 553.624 585.069 553.716C585.286 553.809 585.464 553.972 585.575 554.18L590.339 563.708C590.45 563.95 590.506 564.213 590.505 564.479C590.503 564.745 590.444 565.007 590.33 565.247C590.217 565.488 590.052 565.701 589.848 565.871C589.644 566.041 589.405 566.165 589.148 566.233C584.527 567.504 581.43 568.282 575.65 569.965C571.664 571.124 567.599 573.014 563.661 574.268C560.929 575.142 554.514 575.174 551.195 575.174C546.288 575.174 545.192 569.997 547.304 569.759C552.624 569.171 553.339 569.441 556.276 567.964C561.083 565.863 565.44 562.854 569.107 559.103C569.799 558.315 570.686 557.723 571.68 557.388Z" fill="#263238"/>
<path d="M479.306 216.714L466.157 211.204L460.742 225.782C466.132 226.603 471.614 226.603 477.003 225.782L479.306 216.714Z" fill="#E58A7B"/>
<path d="M456.375 210.823L456.026 220.51L460.742 225.75L466.157 211.172L456.375 210.823Z" fill="#E58A7B"/>
<path d="M575.142 532.159L563.765 536.551L568.804 549.602L580.181 545.21L575.142 532.159Z" fill="#CF6F64"/>
<path d="M619.781 535.188H607.823L610.094 549.464H622.051L619.781 535.188Z" fill="#CF6F64"/>
<path opacity="0.2" d="M536.935 240.566C537.173 243.44 537.443 246.378 537.792 249.395L585.337 233.96C592.762 231.759 599.214 227.094 603.631 220.732C603.821 216.492 604.059 212.03 604.425 207.377C604.583 205.122 604.774 202.803 604.98 200.453C605.187 198.103 605.473 195.499 605.774 192.99L536.935 240.566Z" fill="black"/>
<path d="M552.465 188.48L550.877 188.289C551.814 180.349 557.737 174.092 563.978 174.251V175.839C558.515 175.728 553.307 181.365 552.465 188.48Z" fill="white"/>
<path d="M560.929 203.137H560.659V201.549C566.122 201.755 571.251 196.055 572.093 188.956L573.681 189.147C572.839 196.912 567.107 203.137 560.929 203.137Z" fill="white"/>
<path d="M590.609 121.482C588.37 130.232 585.734 146.255 591.498 152.083C591.498 152.083 587.465 160.96 571.22 160.96C556.372 160.96 564.328 152.083 564.328 152.083C574.205 149.764 574.38 142.555 573.078 135.726L590.609 121.482Z" fill="#E58A7B"/>
<path d="M583.463 127.294L573.093 135.726C573.415 137.295 573.601 138.889 573.649 140.49C576.682 143.508 582.764 135.869 583.384 131.963C583.698 130.425 583.725 128.842 583.463 127.294Z" fill="#CF6F64"/>
<path d="M555.26 121.371C555.982 122.621 556.953 123.71 558.115 124.568C559.276 125.426 560.602 126.035 562.009 126.357C565.82 127.199 567.726 123.689 566.678 120.164C565.741 116.988 562.613 112.716 558.738 113.447C557.908 113.618 557.131 113.985 556.472 114.518C555.813 115.051 555.292 115.734 554.951 116.51C554.611 117.286 554.461 118.132 554.515 118.978C554.568 119.824 554.824 120.644 555.26 121.371Z" fill="#CF6F64"/>
<path d="M561.565 93.3744C555.625 96.0899 553.529 119.688 560.993 123.181C568.456 126.675 572.808 88.2134 561.565 93.3744Z" fill="#263238"/>
<path d="M592.419 108.317C590.99 120.164 590.831 127.135 584.479 133.201C582.511 135.215 580.025 136.644 577.295 137.333C574.565 138.022 571.698 137.944 569.01 137.106C566.322 136.268 563.918 134.703 562.063 132.585C560.209 130.467 558.975 127.878 558.5 125.103C556.578 114.463 559.23 96.8839 571.108 92.1675C573.604 91.0667 576.349 90.6535 579.058 90.9706C581.767 91.2878 584.342 92.3238 586.516 93.9713C588.69 95.6188 590.384 97.8178 591.422 100.34C592.46 102.863 592.804 105.617 592.419 108.317Z" fill="#E58A7B"/>
<path d="M572.903 99.5041C581.7 97.265 588.164 95.7405 585.845 103.061C582.78 112.843 579.096 122.308 584.035 122.737C587.052 123.006 600.391 117.353 598.692 111.621C597.215 106.634 603.456 105.269 604.568 102.744C608.68 93.5967 596.913 94.8036 599.01 89.2456C601.106 83.6876 589.482 74.7313 583.13 79.1936C572.792 86.4031 555.054 86.2919 564.375 74.4296C571.061 65.9655 559.135 67.6964 559.135 67.6964C559.135 67.6964 566.344 71.9682 554.212 78.5743C541.381 85.625 553.148 104.57 572.903 99.5041Z" fill="#263238"/>
<path d="M597.088 121.371C595.351 123.884 592.742 125.661 589.767 126.357C585.845 127.199 584.336 123.689 585.813 120.164C587.131 116.988 590.752 112.716 594.5 113.447C598.247 114.177 599.105 118.258 597.088 121.371Z" fill="#E58A7B"/>
<path d="M538.967 258.749C538.967 258.749 528.232 354.823 527.391 391.283C526.533 429.205 563.772 547.527 563.772 547.527L582.828 539.587C582.828 539.587 560.596 431.476 563.772 394.237C567.138 353.632 581.049 258.812 581.049 258.812L538.967 258.749Z" fill="#017875"/>
<path opacity="0.2" d="M565.646 285.125C557.086 302.879 562.851 337.99 567.488 358.793C569.25 344.104 571.347 328.16 573.332 313.408C573.141 290.731 571.378 273.215 565.646 285.125Z" fill="black"/>
<path d="M581.986 533.298C582.081 533.298 584.241 539.364 584.241 539.364L562.263 548.606L558.801 542.159L581.986 533.298Z" fill="#017875"/>
<path d="M561.66 258.749C561.66 258.749 569.87 350.122 575.301 384.344C581.272 421.836 604.679 546.701 604.679 546.701H626.577C626.577 546.701 613.46 424.869 610.983 387.742C608.283 347.47 602.916 258.749 602.916 258.749H561.66Z" fill="#017875"/>
<path d="M626.911 541C627.006 541 627.641 547.114 627.641 547.114H603.567L601.852 540.095L626.911 541Z" fill="#017875"/>
<path opacity="0.2" d="M618.526 533.759C618.476 533.759 618.428 533.742 618.39 533.71C618.352 533.678 618.327 533.633 618.32 533.584C618.193 532.472 606.362 422.424 604.139 389.076C601.725 352.901 596.866 272.66 596.818 271.85C596.816 271.823 596.819 271.797 596.828 271.772C596.836 271.747 596.85 271.724 596.868 271.705C596.886 271.685 596.908 271.67 596.932 271.659C596.956 271.649 596.982 271.643 597.009 271.643C597.061 271.643 597.111 271.663 597.149 271.698C597.188 271.733 597.211 271.782 597.215 271.834C597.215 272.644 602.122 352.822 604.536 389.06C606.759 422.408 618.59 532.377 618.701 533.568C618.705 533.594 618.704 533.621 618.698 533.647C618.691 533.673 618.679 533.697 618.663 533.718C618.646 533.739 618.626 533.756 618.602 533.769C618.579 533.781 618.553 533.789 618.526 533.79V533.759Z" fill="black"/>
<path d="M574.253 111.621C574.253 112.589 573.649 113.367 573.014 113.367C572.379 113.367 571.918 112.589 571.982 111.621C572.045 110.652 572.585 109.874 573.22 109.874C573.856 109.874 574.316 110.668 574.253 111.621Z" fill="#263238"/>
<path d="M563.359 111.621C563.359 112.589 562.74 113.367 562.12 113.367C561.501 113.367 561.025 112.589 561.072 111.621C561.12 110.652 561.691 109.874 562.327 109.874C562.962 109.874 563.422 110.668 563.359 111.621Z" fill="#263238"/>
<path d="M566.789 112.113C565.463 115.071 563.755 117.842 561.707 120.355C563.295 121.943 566.265 121.212 566.265 121.212L566.789 112.113Z" fill="#DF5753"/>
<path d="M567.075 125.261C567.038 125.262 567.002 125.254 566.968 125.239C566.934 125.225 566.903 125.204 566.878 125.177C566.853 125.15 566.833 125.118 566.821 125.084C566.808 125.049 566.803 125.012 566.805 124.976C566.809 124.898 566.843 124.826 566.899 124.772C566.955 124.719 567.029 124.69 567.107 124.69C568.321 124.698 569.522 124.434 570.621 123.918C571.721 123.401 572.69 122.645 573.459 121.704C573.514 121.656 573.584 121.63 573.657 121.63C573.73 121.63 573.801 121.656 573.856 121.704C573.907 121.758 573.936 121.829 573.936 121.903C573.936 121.977 573.907 122.048 573.856 122.101C573.033 123.101 571.997 123.903 570.824 124.45C569.65 124.997 568.369 125.274 567.075 125.261Z" fill="#263238"/>
<path d="M576.19 108.699C576.114 108.738 576.029 108.758 575.944 108.758C575.858 108.758 575.774 108.738 575.698 108.699C575.104 108.315 574.428 108.076 573.724 108.001C573.021 107.927 572.31 108.019 571.648 108.27C571.584 108.302 571.514 108.321 571.442 108.326C571.37 108.33 571.298 108.321 571.229 108.297C571.161 108.273 571.099 108.236 571.045 108.188C570.992 108.14 570.948 108.081 570.918 108.016C570.859 107.874 570.857 107.716 570.914 107.573C570.97 107.431 571.08 107.316 571.219 107.254C572.05 106.914 572.949 106.781 573.842 106.864C574.735 106.947 575.595 107.244 576.349 107.73C576.41 107.771 576.462 107.824 576.502 107.886C576.542 107.948 576.57 108.017 576.583 108.089C576.596 108.161 576.595 108.236 576.579 108.308C576.564 108.38 576.534 108.448 576.492 108.508C576.411 108.599 576.307 108.665 576.19 108.699Z" fill="#263238"/>
<path d="M559.151 105.523C559.066 105.502 558.989 105.458 558.928 105.396C558.876 105.344 558.834 105.282 558.805 105.214C558.776 105.146 558.762 105.073 558.762 104.999C558.762 104.925 558.776 104.851 558.805 104.783C558.834 104.715 558.876 104.653 558.928 104.602C559.537 103.919 560.295 103.386 561.143 103.045C561.992 102.703 562.908 102.562 563.819 102.632C563.892 102.644 563.962 102.67 564.025 102.709C564.088 102.749 564.141 102.801 564.183 102.862C564.225 102.923 564.253 102.992 564.267 103.064C564.281 103.137 564.28 103.211 564.264 103.284C564.23 103.431 564.143 103.56 564.021 103.648C563.898 103.736 563.747 103.775 563.597 103.76C562.876 103.714 562.153 103.834 561.485 104.109C560.816 104.384 560.219 104.808 559.738 105.348C559.666 105.428 559.573 105.487 559.469 105.518C559.365 105.549 559.255 105.55 559.151 105.523Z" fill="#263238"/>
<path d="M618.891 170.424L602.376 166.025C602.376 166.025 586.178 205.9 580.446 208.488C572.665 212.046 552.957 224.369 544.573 230.196C544.112 232.181 544.478 237.438 545.526 238.883C559.818 236.278 587.179 225.75 592.896 220.398C605.933 208.187 618.891 170.424 618.891 170.424Z" fill="#E58A7B"/>
<path d="M607.362 563.581C606.556 563.645 605.754 563.426 605.092 562.962C604.887 562.777 604.734 562.542 604.648 562.281C604.561 562.019 604.545 561.739 604.599 561.469C604.609 561.3 604.665 561.138 604.76 560.998C604.855 560.858 604.986 560.747 605.139 560.675C606.473 559.992 610.205 562.358 610.634 562.628C610.681 562.657 610.717 562.701 610.737 562.753C610.757 562.804 610.76 562.861 610.745 562.914C610.731 562.97 610.704 563.021 610.665 563.062C610.626 563.104 610.577 563.135 610.522 563.152C609.487 563.407 608.428 563.551 607.362 563.581ZM605.774 561.104C605.654 561.077 605.529 561.077 605.409 561.104C605.348 561.135 605.298 561.183 605.264 561.242C605.23 561.301 605.214 561.369 605.219 561.437C605.176 561.622 605.183 561.815 605.239 561.996C605.295 562.177 605.397 562.341 605.536 562.47C606.156 563.025 607.712 563.089 609.76 562.692C608.54 561.889 607.167 561.348 605.727 561.104H605.774Z" fill="#017875"/>
<path d="M610.443 563.152C610.402 563.166 610.357 563.166 610.316 563.152C609.125 562.485 606.886 559.865 607.219 558.531C607.269 558.32 607.389 558.131 607.559 557.996C607.729 557.861 607.939 557.786 608.156 557.785C608.369 557.757 608.586 557.774 608.792 557.837C608.997 557.9 609.187 558.007 609.347 558.15C610.665 559.278 610.745 562.74 610.745 562.914C610.752 562.966 610.743 563.02 610.717 563.066C610.691 563.112 610.651 563.148 610.602 563.168C610.549 563.179 610.493 563.174 610.443 563.152ZM608.315 558.309H608.204C607.839 558.309 607.791 558.516 607.775 558.595C607.585 559.373 608.998 561.358 610.173 562.295C610.168 560.953 609.752 559.646 608.982 558.547C608.798 558.387 608.56 558.301 608.315 558.309Z" fill="#017875"/>
<path d="M565.201 561.596C564.229 561.935 563.171 561.935 562.2 561.596C561.979 561.477 561.792 561.303 561.656 561.092C561.52 560.882 561.439 560.64 561.422 560.389C561.401 560.232 561.422 560.073 561.48 559.926C561.538 559.778 561.633 559.648 561.755 559.548C563.025 558.404 568.218 559.548 568.806 559.77C568.862 559.784 568.911 559.817 568.946 559.864C568.98 559.91 568.998 559.966 568.996 560.024C568.999 560.084 568.983 560.143 568.952 560.193C568.921 560.244 568.876 560.285 568.822 560.31C567.652 560.838 566.441 561.268 565.201 561.596ZM562.613 559.706C562.431 559.743 562.262 559.825 562.12 559.945C562.07 559.982 562.031 560.034 562.008 560.093C561.986 560.152 561.981 560.216 561.993 560.278C562.004 560.445 562.056 560.606 562.144 560.748C562.233 560.889 562.356 561.006 562.501 561.088C563.343 561.533 565.296 561.183 567.821 560.119C566.12 559.69 564.36 559.551 562.613 559.706Z" fill="#017875"/>
<path d="M568.774 560.31H568.647C567.059 560.024 563.883 558.198 563.788 556.832C563.788 556.515 563.931 556.07 564.693 555.816C564.95 555.724 565.224 555.685 565.497 555.702C565.769 555.718 566.036 555.789 566.281 555.911C567.996 556.753 568.901 559.802 568.949 559.945C568.96 559.993 568.958 560.043 568.944 560.09C568.931 560.138 568.905 560.18 568.869 560.215C568.846 560.254 568.813 560.286 568.774 560.31ZM565.01 556.292H564.852C564.359 556.467 564.359 556.674 564.359 556.737C564.359 557.563 566.662 559.071 568.266 559.58C567.896 558.304 567.115 557.187 566.043 556.404C565.724 556.241 565.356 556.202 565.01 556.292Z" fill="#017875"/>
<path d="M545.923 229.26L529.36 236.882L527.438 241.646L533.552 245.759C533.552 245.759 544.986 244.52 548.241 237.168L545.923 229.26Z" fill="#E58A7B"/>
<path d="M546.621 239.153C546.251 235.97 545.201 232.905 543.541 230.165L546.161 228.196C548.132 231.353 549.389 234.903 549.845 238.597L546.621 239.153Z" fill="#263238"/>
<path d="M549.448 231.514C549.798 232.065 549.97 232.71 549.941 233.362C549.911 234.014 549.681 234.641 549.283 235.158C548.884 235.675 548.336 236.056 547.713 236.251C547.09 236.445 546.423 236.443 545.801 236.244C545.179 236.045 544.634 235.66 544.239 235.14C543.844 234.62 543.619 233.992 543.594 233.34C543.569 232.687 543.746 232.044 544.1 231.495C544.454 230.947 544.969 230.521 545.573 230.276C546.252 229.93 547.04 229.866 547.765 230.098C548.491 230.33 549.096 230.839 549.448 231.514Z" fill="#263238"/>
<path d="M518.164 243.043L520.372 245.267L535.235 238.915L529.36 236.882L518.164 243.043Z" fill="#E58A7B"/>
<path opacity="0.2" d="M581.986 533.298C582.081 533.298 584.241 539.364 584.241 539.364L562.263 548.606L558.801 542.159L581.986 533.298Z" fill="black"/>
<path opacity="0.2" d="M626.911 541C627.006 541 627.641 547.114 627.641 547.114H603.567L601.852 540.095L626.911 541Z" fill="black"/>
<path d="M623.195 165.851C627.562 179.936 610.491 199.199 610.491 199.199L586.909 189.575C589.704 181.434 592.927 173.446 596.564 165.644C603.805 150.034 618.78 151.638 623.195 165.851Z" fill="#017875"/>
<path opacity="0.2" d="M623.195 165.851C627.562 179.936 610.491 199.199 610.491 199.199L586.909 189.575C589.704 181.434 592.927 173.446 596.564 165.644C603.805 150.034 618.78 151.638 623.195 165.851Z" fill="black"/>
<path d="M388.869 24.7252H378.722V26.3608H388.869V24.7252Z" fill="#017875"/>
<path d="M520.226 89.4624L518.998 116.717L520.632 116.79L521.86 89.536L520.226 89.4624Z" fill="#017875"/>
<path d="M517.069 32.0617H329.685L312.249 422.265H499.633L517.069 32.0617Z" fill="#017875"/>
<path opacity="0.56" d="M511.479 37.4292H324.095L306.659 427.633H494.043L511.479 37.4292Z" fill="#FAFAFA"/>
<path opacity="0.07" d="M505.889 42.7807H318.505L301.053 432.984H488.437L505.889 42.7807Z" fill="#017875"/>
<path d="M484.562 212.967H324.619L323.285 242.821H483.228L484.562 212.967Z" fill="white"/>
<path d="M412.578 191.179H325.588L325 204.534H411.991L412.578 191.179Z" fill="#017875"/>
<path d="M480.958 293.542H321.014L319.68 323.396H479.624L480.958 293.542Z" fill="white"/>
<path opacity="0.47" d="M451.627 363.716H344.072L342.468 399.493H450.023L451.627 363.716Z" fill="#017875"/>
<path d="M444.434 405.051H336.878C336.831 405.063 336.782 405.063 336.735 405.051C336.72 405.005 336.72 404.955 336.735 404.908L338.323 369.115C338.323 369.09 338.328 369.066 338.338 369.044C338.348 369.022 338.362 369.002 338.38 368.985C338.398 368.969 338.419 368.956 338.442 368.948C338.465 368.941 338.49 368.938 338.514 368.94H446.069C446.089 368.93 446.111 368.925 446.133 368.925C446.155 368.925 446.177 368.93 446.196 368.94C446.207 368.959 446.213 368.981 446.213 369.003C446.213 369.026 446.207 369.048 446.196 369.067L444.64 404.94C444.621 404.977 444.591 405.008 444.554 405.028C444.517 405.048 444.475 405.056 444.434 405.051ZM337.069 404.67H444.243L445.831 369.258H338.657L337.069 404.67Z" fill="white"/>
<path d="M393.792 271.754H321.983L321.395 285.125H393.189L393.792 271.754Z" fill="#017875"/>
<path d="M449.579 116.527C449.168 125.216 446.078 133.564 440.734 140.427C436.777 145.61 431.685 149.818 425.849 152.728C420.014 155.638 413.589 157.172 407.068 157.212C401.798 157.252 396.577 156.213 391.724 154.159C386.871 152.104 382.49 149.078 378.851 145.267C375.213 141.455 372.392 136.939 370.565 131.997C368.738 127.054 367.941 121.789 368.225 116.527C368.784 105.608 373.493 95.3151 381.389 87.7527C389.285 80.1902 399.771 75.9299 410.704 75.8429C415.978 75.7937 421.205 76.8264 426.064 78.8773C430.923 80.9281 435.309 83.9534 438.952 87.7664C442.596 91.5793 445.418 96.0988 447.246 101.046C449.074 105.993 449.868 111.262 449.579 116.527Z" fill="white"/>
<path d="M453.406 84.3546C453.302 86.6648 452.481 88.8853 451.056 90.7066C450.001 92.0833 448.646 93.201 447.094 93.9743C445.542 94.7477 443.833 95.1562 442.099 95.1689C440.419 95.1791 438.762 94.7777 437.273 93.9999C435.784 93.222 434.507 92.0913 433.556 90.7066C432.296 88.8354 431.672 86.608 431.777 84.3546C431.931 81.4555 433.184 78.7242 435.282 76.7177C437.381 74.7111 440.165 73.5804 443.068 73.5562C444.468 73.5434 445.857 73.8175 447.147 74.3617C448.438 74.9058 449.603 75.7085 450.572 76.7201C451.54 77.7318 452.291 78.9311 452.779 80.2441C453.266 81.5571 453.48 82.956 453.406 84.3546Z" fill="#017875"/>
<path d="M341.849 227.894C341.772 229.174 341.214 230.377 340.286 231.261C339.357 232.145 338.128 232.644 336.847 232.658C336.228 232.665 335.614 232.546 335.043 232.306C334.472 232.067 333.956 231.713 333.528 231.267C333.099 230.82 332.767 230.29 332.551 229.71C332.335 229.13 332.241 228.512 332.273 227.894C332.342 226.612 332.898 225.404 333.828 224.519C334.758 223.633 335.991 223.136 337.275 223.13C337.894 223.125 338.506 223.246 339.076 223.486C339.646 223.726 340.161 224.08 340.589 224.526C341.017 224.972 341.35 225.501 341.566 226.08C341.783 226.659 341.879 227.276 341.849 227.894Z" fill="#263238"/>
<path d="M363.255 227.894C363.182 229.175 362.625 230.38 361.696 231.265C360.767 232.15 359.536 232.648 358.253 232.658C357.635 232.663 357.023 232.542 356.454 232.302C355.885 232.061 355.371 231.707 354.944 231.261C354.518 230.815 354.186 230.286 353.972 229.707C353.757 229.128 353.663 228.511 353.695 227.894C353.764 226.614 354.318 225.409 355.245 224.524C356.171 223.639 357.4 223.14 358.682 223.13C359.3 223.123 359.914 223.242 360.485 223.481C361.056 223.721 361.572 224.075 362 224.521C362.429 224.968 362.762 225.497 362.977 226.077C363.193 226.658 363.288 227.276 363.255 227.894Z" fill="#263238"/>
<path d="M384.677 227.894C384.605 229.175 384.047 230.38 383.118 231.265C382.189 232.15 380.958 232.648 379.675 232.658C379.057 232.663 378.444 232.542 377.874 232.302C377.304 232.062 376.79 231.708 376.361 231.262C375.933 230.816 375.601 230.287 375.384 229.708C375.167 229.129 375.071 228.511 375.102 227.894C375.174 226.613 375.732 225.408 376.661 224.523C377.59 223.638 378.821 223.14 380.104 223.13C380.723 223.123 381.336 223.242 381.907 223.481C382.478 223.721 382.994 224.075 383.423 224.521C383.851 224.968 384.184 225.497 384.399 226.077C384.615 226.658 384.71 227.276 384.677 227.894Z" fill="#263238"/>
<path d="M338.244 308.469C338.168 309.749 337.609 310.952 336.681 311.836C335.753 312.72 334.524 313.219 333.242 313.233C332.624 313.238 332.011 313.117 331.441 312.877C330.871 312.637 330.357 312.283 329.928 311.837C329.5 311.391 329.168 310.862 328.951 310.283C328.734 309.704 328.638 309.087 328.668 308.469C328.741 307.188 329.298 305.983 330.228 305.098C331.157 304.213 332.388 303.715 333.671 303.705C334.289 303.7 334.902 303.821 335.471 304.061C336.041 304.301 336.556 304.655 336.984 305.101C337.412 305.547 337.745 306.076 337.962 306.655C338.178 307.234 338.274 307.852 338.244 308.469Z" fill="#263238"/>
<path d="M359.65 308.469C359.578 309.747 359.023 310.95 358.097 311.835C357.171 312.719 355.944 313.219 354.664 313.233C354.045 313.24 353.431 313.121 352.86 312.881C352.289 312.642 351.774 312.288 351.345 311.842C350.917 311.395 350.584 310.866 350.368 310.286C350.152 309.705 350.058 309.087 350.091 308.469C350.163 307.188 350.721 305.983 351.65 305.098C352.579 304.213 353.81 303.715 355.093 303.705C355.71 303.7 356.322 303.821 356.891 304.061C357.46 304.302 357.974 304.656 358.401 305.102C358.828 305.548 359.159 306.077 359.374 306.656C359.589 307.235 359.683 307.852 359.65 308.469Z" fill="#263238"/>
<path d="M381.12 308.469C381.047 309.75 380.49 310.955 379.561 311.84C378.632 312.725 377.401 313.223 376.118 313.233C375.5 313.236 374.888 313.113 374.32 312.872C373.751 312.631 373.237 312.277 372.809 311.832C372.382 311.386 372.049 310.858 371.832 310.28C371.614 309.702 371.516 309.086 371.544 308.469C371.621 307.189 372.179 305.986 373.107 305.102C374.036 304.218 375.265 303.719 376.547 303.705C377.165 303.698 377.779 303.817 378.35 304.057C378.921 304.296 379.437 304.65 379.865 305.096C380.294 305.543 380.627 306.072 380.842 306.653C381.058 307.233 381.153 307.851 381.12 308.469Z" fill="#263238"/>
<path d="M402.495 308.469C402.418 309.749 401.86 310.952 400.931 311.836C400.003 312.72 398.774 313.219 397.492 313.233C396.875 313.236 396.263 313.113 395.694 312.872C395.126 312.631 394.612 312.277 394.184 311.832C393.756 311.386 393.424 310.858 393.206 310.28C392.989 309.702 392.891 309.086 392.919 308.469C392.995 307.189 393.554 305.986 394.482 305.102C395.41 304.218 396.639 303.719 397.921 303.705C398.539 303.7 399.152 303.821 399.722 304.061C400.292 304.301 400.806 304.655 401.235 305.101C401.663 305.547 401.995 306.076 402.212 306.655C402.429 307.234 402.525 307.852 402.495 308.469Z" fill="#263238"/>
<path d="M423.996 308.469C423.92 309.749 423.361 310.952 422.433 311.836C421.505 312.72 420.276 313.219 418.994 313.233C418.375 313.24 417.761 313.121 417.19 312.881C416.619 312.642 416.104 312.288 415.675 311.842C415.246 311.395 414.914 310.866 414.698 310.285C414.482 309.705 414.388 309.087 414.42 308.469C414.493 307.188 415.05 305.983 415.98 305.098C416.909 304.213 418.14 303.715 419.423 303.705C420.041 303.7 420.654 303.821 421.223 304.061C421.793 304.301 422.308 304.655 422.736 305.101C423.164 305.547 423.497 306.076 423.714 306.655C423.93 307.234 424.026 307.852 423.996 308.469Z" fill="#263238"/>
<path d="M420.746 114.409C427.393 107.909 427.745 97.4904 421.534 91.1384C415.322 84.7865 404.899 84.9064 398.252 91.4062C391.605 97.9059 391.253 108.324 397.464 114.676C403.676 121.028 414.099 120.908 420.746 114.409Z" fill="#017875"/>
<path d="M440.734 140.427C436.777 145.61 431.685 149.818 425.85 152.728C420.014 155.638 413.589 157.172 407.068 157.212C400.745 157.266 394.505 155.763 388.9 152.835C383.295 149.908 378.496 145.647 374.927 140.427C382.645 132.741 394.856 127.723 408.386 127.723C421.916 127.723 433.699 132.741 440.734 140.427Z" fill="#017875"/>
<path opacity="0.1" d="M420.746 114.409C427.393 107.909 427.745 97.4904 421.534 91.1384C415.322 84.7865 404.899 84.9064 398.252 91.4062C391.605 97.9059 391.253 108.324 397.464 114.676C403.676 121.028 414.099 120.908 420.746 114.409Z" fill="white"/>
<path opacity="0.1" d="M440.734 140.427C436.777 145.61 431.685 149.818 425.85 152.728C420.014 155.638 413.589 157.172 407.068 157.212C400.745 157.266 394.505 155.763 388.9 152.835C383.295 149.908 378.496 145.647 374.927 140.427C382.645 132.741 394.856 127.723 408.386 127.723C421.916 127.723 433.699 132.741 440.734 140.427Z" fill="white"/>
<path d="M207.091 250.015C205.583 253.318 203.995 256.954 202.613 260.48C201.231 264.005 199.818 267.642 198.595 271.262C196.099 278.398 194.197 285.727 192.91 293.177L192.561 295.511C192.528 295.911 192.565 296.315 192.672 296.702C193.047 298.018 193.637 299.263 194.419 300.386C196.458 303.293 198.824 305.957 201.47 308.326C204.259 310.921 207.185 313.364 210.235 315.647C213.284 317.997 216.492 320.284 219.652 322.443L216.683 328.017C209.137 324.729 201.974 320.624 195.324 315.774C191.776 313.186 188.574 310.155 185.796 306.754C184.149 304.729 182.865 302.435 182.001 299.973C181.498 298.435 181.241 296.827 181.239 295.209C181.239 294.828 181.239 294.272 181.239 294.002V293.224L181.397 291.636C182.308 283.363 184.047 275.202 186.59 267.276C187.829 263.37 189.147 259.479 190.655 255.684C192.164 251.889 193.72 248.173 195.642 244.314L207.091 250.015Z" fill="#E58A7B"/>
<path d="M217.413 321.459L228.64 315.774L225.734 328.097C225.734 328.097 218.032 330.256 214.459 326.509L217.413 321.459Z" fill="#E58A7B"/>
<path d="M238.915 317.791L235.929 327.986L225.734 328.097L228.64 315.774L238.915 317.791Z" fill="#E58A7B"/>
<path d="M254.763 190.56C255.363 192.761 256.199 194.89 257.256 196.912C256.947 197.262 256.55 197.522 256.105 197.665C255.661 197.807 255.186 197.827 254.731 197.722L254.763 190.56Z" fill="#DF5753"/>
<path d="M254.429 190.655C255.087 190.655 255.62 189.838 255.62 188.829C255.62 187.821 255.087 187.003 254.429 187.003C253.772 187.003 253.238 187.821 253.238 188.829C253.238 189.838 253.772 190.655 254.429 190.655Z" fill="#263238"/>
<path d="M254.08 187.066L256.494 186.384C256.494 186.384 255.319 188.257 254.08 187.066Z" fill="#263238"/>
<path d="M223.749 202.216C225.194 209.6 226.639 223.146 221.463 228.084C221.463 228.084 223.495 235.58 237.231 235.58C252.333 235.58 244.441 228.084 244.441 228.084C236.199 226.115 236.406 220.002 237.851 214.253L223.749 202.216Z" fill="#E58A7B"/>
<path d="M219.732 185.383C220.494 197.722 220.557 202.962 226.782 209.298C236.167 218.826 251.158 215.206 254.096 202.946C256.748 191.83 255.065 173.537 242.98 168.63C240.327 167.537 237.44 167.139 234.59 167.473C231.741 167.808 229.024 168.864 226.697 170.541C224.369 172.218 222.508 174.461 221.289 177.059C220.07 179.656 219.534 182.521 219.732 185.383Z" fill="#E58A7B"/>
<path d="M220.954 171.504C214.761 173.759 206.504 172.076 209.743 191.179C213.173 211.41 207.901 218.064 207.901 218.064C207.901 218.064 231.388 223.066 255.366 217.762C255.366 217.762 248.046 204.963 250.094 195.53C252.714 183.62 250.65 179.222 250.65 179.222C250.65 179.222 229.657 168.328 220.954 171.504Z" fill="#263238"/>
<path d="M247.156 191.814C247.163 194.161 247.835 196.457 249.094 198.436C250.777 201.009 252.762 200.024 253.254 197.293C253.699 194.895 253.365 190.655 251.222 189.004C249.078 187.352 247.188 188.972 247.156 191.814Z" fill="#E58A7B"/>
<path d="M215.571 173.584C213.792 168.582 222.272 160.88 240.217 164.056C258.161 167.232 258.939 182.175 258.939 182.175L255.319 177.856L255.477 182.398L237.041 185.939L215.571 173.584Z" fill="#263238"/>
<path d="M217.096 228.926C216.99 228.201 217.171 227.463 217.601 226.87C218.031 226.277 218.676 225.875 219.398 225.75C224.988 224.829 237.692 222.955 244.076 223.845C248.84 224.511 250.078 227.275 250.285 229.545C250.317 229.943 250.264 230.343 250.129 230.718C249.994 231.094 249.78 231.436 249.502 231.722C249.223 232.007 248.887 232.23 248.515 232.375C248.144 232.521 247.745 232.584 247.347 232.563L219.748 231.324C219.097 231.291 218.478 231.035 217.994 230.598C217.511 230.161 217.194 229.57 217.096 228.926Z" fill="#017875"/>
<path opacity="0.6" d="M217.096 228.926C216.99 228.201 217.171 227.463 217.601 226.87C218.031 226.277 218.676 225.875 219.398 225.75C224.988 224.829 237.692 222.955 244.076 223.845C248.84 224.511 250.078 227.275 250.285 229.545C250.317 229.943 250.264 230.343 250.129 230.718C249.994 231.094 249.78 231.436 249.502 231.722C249.223 232.007 248.887 232.23 248.515 232.375C248.144 232.521 247.745 232.584 247.347 232.563L219.748 231.324C219.097 231.291 218.478 231.035 217.994 230.598C217.511 230.161 217.194 229.57 217.096 228.926Z" fill="black"/>
<path d="M233.055 506.35L243.298 513.464L260.432 490.232L250.189 483.133L233.055 506.35Z" fill="#E58A7B"/>
<path d="M209.171 505.889L219.986 512.051L235.151 487.484L224.337 481.323L209.171 505.889Z" fill="#E58A7B"/>
<path d="M260.416 490.232L251.587 502.205L241.344 495.107L250.174 483.133L260.416 490.232Z" fill="#CF6F64"/>
<path d="M224.321 481.323L235.151 487.5L227.338 500.157L216.508 493.979L224.321 481.323Z" fill="#CF6F64"/>
<path d="M241.694 306.484C241.694 306.484 281.679 356.871 274.168 405.067C268.118 443.989 233.023 496.695 233.023 496.695L216.524 488.501C228.154 465.197 238.078 441.081 246.219 416.342C248.73 408.661 249.463 400.511 248.362 392.505C247.262 384.5 244.357 376.849 239.867 370.131C219.605 340.547 187.146 358.158 208.981 306.484H241.694Z" fill="#017875"/>
<path opacity="0.6" d="M241.694 306.484C241.694 306.484 281.679 356.871 274.168 405.067C268.118 443.989 233.023 496.695 233.023 496.695L216.524 488.501C228.154 465.197 238.078 441.081 246.219 416.342C248.73 408.661 249.463 400.511 248.362 392.505C247.262 384.5 244.357 376.849 239.867 370.131C219.605 340.547 187.146 358.158 208.981 306.484H241.694Z" fill="black"/>
<path opacity="0.4" d="M261.305 338.847L255.493 333.067C255.493 333.528 266.752 403.034 269.912 422.567C271.777 416.861 273.205 411.021 274.184 405.099C277.9 381.453 270.135 357.3 261.305 338.847Z" fill="black"/>
<path d="M259.543 306.484C259.543 306.484 307.691 369.813 309.057 407.783C310.184 439.543 256.653 501.078 256.653 501.078L241.09 491.01C241.09 491.01 272.421 447.308 280.314 411.61C277.265 376.229 212.792 306.484 212.792 306.484H259.543Z" fill="#017875"/>
<path opacity="0.6" d="M259.543 306.484C259.543 306.484 307.691 369.813 309.057 407.783C310.184 439.543 256.653 501.078 256.653 501.078L241.09 491.01C241.09 491.01 272.421 447.308 280.314 411.61C277.265 376.229 212.792 306.484 212.792 306.484H259.543Z" fill="black"/>
<path d="M199.977 230.911C194.832 232.134 189.893 250.84 189.893 250.84L210.013 264.275C210.013 264.275 216.714 249.475 214.364 242.996C211.935 236.247 206.44 229.371 199.977 230.911Z" fill="#017875"/>
<path opacity="0.2" d="M203.915 242.964L202.518 259.273L209.997 264.291C212.062 259.641 213.591 254.772 214.555 249.776L203.915 242.964Z" fill="black"/>
<path d="M265.498 231.276C265.498 231.276 271.437 233.357 259.543 306.468H208.949C209.807 285.824 209.823 273.12 199.977 230.911C207.061 229.451 214.242 228.506 221.463 228.084C229.112 227.536 236.791 227.536 244.441 228.084C254.318 228.99 265.498 231.276 265.498 231.276Z" fill="#017875"/>
<path d="M270.643 242.964C271.786 246.14 272.993 249.554 274.264 252.841C275.534 256.129 276.741 259.511 278.027 262.846L281.918 272.818L282.902 275.312L283.41 276.55L283.649 277.17C283.649 277.281 283.649 277.281 283.649 277.265C283.358 276.856 282.978 276.519 282.537 276.28C281.909 275.911 281.201 275.698 280.473 275.661C279.868 275.642 279.266 275.756 278.71 275.994C277.979 276.328 277.979 276.471 277.995 276.455C278.127 276.349 278.245 276.226 278.345 276.09C279.224 274.936 279.984 273.696 280.616 272.39C281.362 270.929 282.076 269.372 282.791 267.8C284.189 264.624 285.475 261.337 286.761 258.018C288.047 254.699 289.27 251.349 290.461 247.966L294.082 237.835L300.196 239.423C298.989 246.664 297.432 253.715 295.559 260.893C294.653 264.466 293.589 268.007 292.383 271.58C291.779 273.374 291.112 275.153 290.35 276.979C289.555 278.961 288.577 280.864 287.428 282.664C287.006 283.27 286.539 283.843 286.031 284.379C285.22 285.255 284.235 285.953 283.14 286.428C282.169 286.845 281.116 287.04 280.06 286.999C278.876 286.955 277.723 286.611 276.709 285.999C275.513 285.252 274.52 284.221 273.819 282.998C273.581 282.585 273.374 282.172 273.231 281.87L272.93 281.267L272.326 280.028L271.119 277.567C269.531 274.263 267.943 270.929 266.562 267.578C265.18 264.227 263.719 260.829 262.354 257.415C260.988 254.001 259.765 250.586 258.606 246.902L270.643 242.964Z" fill="#E58A7B"/>
<path d="M265.498 231.276C271.58 232.721 278.424 250.698 278.424 250.698L260.337 266.085C260.337 266.085 248.633 246.489 250.999 240.026C253.461 233.293 257.558 229.387 265.498 231.276Z" fill="#017875"/>
<path d="M296.956 232.15L303.308 226.846L307.723 233.722L304.467 239.454C304.467 239.454 299.29 244.218 294.717 241.789C293.991 240.157 293.817 238.333 294.221 236.594C294.625 234.855 295.585 233.294 296.956 232.15Z" fill="#E58A7B"/>
<path d="M314.773 226.862L314.297 228.593L304.245 230.276L303.26 226.846L314.773 226.862Z" fill="#E58A7B"/>
<path d="M257.891 501.887L239.756 490.168L243.012 484.515L263.386 497.044L257.891 501.887Z" fill="#017875"/>
<path d="M227.084 511.225C225.493 511.03 223.964 510.488 222.606 509.637C222.55 509.617 222.501 509.581 222.467 509.533C222.432 509.484 222.414 509.426 222.414 509.367C222.414 509.308 222.432 509.25 222.467 509.201C222.501 509.153 222.55 509.116 222.606 509.097C223.098 508.938 227.37 507.62 228.608 508.636C228.748 508.752 228.853 508.903 228.915 509.073C228.976 509.244 228.991 509.427 228.958 509.605C228.936 509.891 228.841 510.166 228.683 510.406C228.524 510.645 228.307 510.839 228.053 510.971C227.755 511.133 227.423 511.22 227.084 511.225ZM223.511 509.478C225.496 510.494 227.084 510.86 227.846 510.478C228.012 510.387 228.152 510.254 228.252 510.092C228.352 509.931 228.409 509.747 228.418 509.557C228.418 509.303 228.418 509.192 228.275 509.129C227.608 508.589 225.226 509.002 223.479 509.478H223.511Z" fill="#263238"/>
<path d="M222.717 509.748C222.633 509.747 222.553 509.713 222.495 509.653C222.471 509.609 222.459 509.56 222.459 509.51C222.459 509.46 222.471 509.411 222.495 509.367C222.495 509.224 223.527 505.778 225.147 505C225.354 504.906 225.578 504.857 225.806 504.857C226.033 504.857 226.258 504.906 226.465 505C226.688 505.07 226.881 505.213 227.013 505.406C227.146 505.599 227.21 505.83 227.195 506.064C227.084 507.493 224.178 509.462 222.844 509.796L222.717 509.748ZM225.798 505.413C225.643 505.418 225.492 505.455 225.353 505.524C224.369 506 223.559 507.858 223.162 508.986C224.559 508.398 226.481 506.842 226.544 505.969C226.544 505.826 226.544 505.651 226.179 505.492C226.06 505.428 225.931 505.385 225.798 505.365V505.413Z" fill="#263238"/>
<path d="M249.745 518.085C247.95 518.085 245.457 515.782 244.092 514.369C244.057 514.321 244.038 514.262 244.038 514.202C244.038 514.143 244.057 514.084 244.092 514.036C244.123 513.984 244.167 513.943 244.221 513.915C244.274 513.887 244.333 513.874 244.393 513.877C245.028 513.877 250.539 514.703 251.317 516.259C251.399 516.398 251.443 516.557 251.443 516.719C251.443 516.881 251.399 517.04 251.317 517.18C251.2 517.422 251.024 517.631 250.804 517.787C250.585 517.942 250.33 518.039 250.062 518.069L249.745 518.085ZM245.14 514.591C247.14 516.529 248.903 517.609 249.904 517.482C250.079 517.459 250.246 517.393 250.39 517.291C250.534 517.188 250.65 517.052 250.729 516.894C250.765 516.84 250.784 516.776 250.784 516.711C250.784 516.647 250.765 516.583 250.729 516.529C250.316 515.671 247.379 514.941 245.14 514.591Z" fill="#263238"/>
<path d="M245.314 514.512C244.958 514.522 244.601 514.496 244.25 514.433C244.201 514.425 244.155 514.405 244.116 514.375C244.077 514.344 244.047 514.304 244.028 514.258C244.004 514.211 243.992 514.16 243.992 514.107C243.992 514.055 244.004 514.003 244.028 513.956C244.123 513.845 246.267 511.257 248.3 511.082C248.875 511.037 249.445 511.22 249.888 511.59C250.507 512.13 250.475 512.606 250.317 512.908C249.92 513.988 247.172 514.512 245.314 514.512ZM244.901 513.924C246.68 514.02 249.523 513.432 249.888 512.654C249.888 512.654 250.015 512.4 249.602 512.051C249.438 511.908 249.246 511.8 249.038 511.735C248.83 511.669 248.612 511.647 248.395 511.67C247.026 512.052 245.807 512.844 244.901 513.94V513.924Z" fill="#263238"/>
<path d="M223.146 508.033L209.68 504.222C209.447 504.152 209.198 504.169 208.978 504.272C208.758 504.375 208.584 504.555 208.489 504.778L203.947 514.988C203.84 515.25 203.79 515.531 203.8 515.813C203.81 516.096 203.879 516.373 204.004 516.626C204.128 516.88 204.305 517.104 204.522 517.284C204.74 517.465 204.993 517.597 205.265 517.672C210.029 518.911 212.316 519.26 218.239 520.959C221.891 521.976 227.1 523.865 232.134 525.295C237.168 526.724 238.851 521.817 236.898 520.769C228.069 516.1 227.37 512.829 224.956 509.335C224.524 508.703 223.883 508.242 223.146 508.033Z" fill="#017875"/>
<path d="M244.457 512.511L232.96 504.571C232.765 504.429 232.524 504.364 232.284 504.387C232.044 504.411 231.821 504.521 231.658 504.698L224.035 512.892C223.849 513.104 223.711 513.353 223.629 513.622C223.547 513.892 223.523 514.176 223.559 514.455C223.595 514.735 223.69 515.003 223.838 515.243C223.986 515.483 224.183 515.688 224.416 515.846C228.466 518.561 230.562 519.657 235.628 523.167C238.804 525.326 244.949 530.122 249.237 533.108C253.524 536.093 256.716 531.996 255.192 530.376C248.363 523.087 246.871 518.514 245.743 514.369C245.547 513.617 245.092 512.959 244.457 512.511Z" fill="#017875"/>
<path d="M235.135 497.743L214.412 487.437L216.556 481.815L238.692 492.677L235.135 497.743Z" fill="#017875"/>
<path d="M208.187 303.499L206.44 308.072C206.265 308.421 206.678 308.787 207.266 308.787H259.797C260.257 308.787 260.639 308.564 260.67 308.278L261.115 303.737C261.115 303.435 260.75 303.165 260.257 303.165H209.013C208.858 303.151 208.703 303.173 208.559 303.231C208.415 303.289 208.288 303.381 208.187 303.499Z" fill="#017875"/>
<path opacity="0.4" d="M208.187 303.499L206.44 308.072C206.265 308.421 206.678 308.787 207.266 308.787H259.797C260.257 308.787 260.639 308.564 260.67 308.278L261.115 303.737C261.115 303.435 260.75 303.165 260.257 303.165H209.013C208.858 303.151 208.703 303.173 208.559 303.231C208.415 303.289 208.288 303.381 208.187 303.499Z" fill="white"/>
<path d="M216.46 309.231H215.079C214.809 309.231 214.602 309.088 214.618 308.914L215.269 303.022C215.269 302.863 215.523 302.72 215.793 302.72H217.175C217.445 302.72 217.651 302.863 217.635 303.022L216.984 308.914C216.968 309.088 216.73 309.231 216.46 309.231Z" fill="#017875"/>
<path d="M248.856 309.231H247.49C247.22 309.231 247.013 309.088 247.029 308.914L247.665 303.022C247.665 302.863 247.934 302.72 248.204 302.72H249.57C249.84 302.72 250.062 302.863 250.031 303.022L249.395 308.914C249.316 309.088 249.141 309.231 248.856 309.231Z" fill="#017875"/>
<g style="mix-blend-mode:multiply">
<path d="M215.253 578.159C238.749 578.159 257.796 576.78 257.796 575.078C257.796 573.377 238.749 571.998 215.253 571.998C191.758 571.998 172.711 573.377 172.711 575.078C172.711 576.78 191.758 578.159 215.253 578.159Z" fill="#F5F5F5"/>
</g>
<path d="M241.17 570.727C233.643 568.536 225.29 565.725 220.24 562.787C220.097 562.692 219.938 562.644 219.795 562.565V528.486H235.024C236.18 528.418 237.266 527.91 238.061 527.068C238.855 526.225 239.297 525.111 239.297 523.953C239.297 522.795 238.855 521.68 238.061 520.837C237.266 519.995 236.18 519.487 235.024 519.419H219.875V364.081H210.728V519.419H195.594C194.976 519.382 194.357 519.472 193.775 519.684C193.193 519.895 192.661 520.223 192.21 520.648C191.76 521.072 191.401 521.584 191.156 522.153C190.91 522.721 190.784 523.334 190.784 523.953C190.784 524.572 190.91 525.184 191.156 525.752C191.401 526.321 191.76 526.833 192.21 527.258C192.661 527.682 193.193 528.01 193.775 528.222C194.357 528.433 194.976 528.523 195.594 528.486H210.728V562.517C210.585 562.517 210.442 562.644 210.299 562.739C205.17 565.725 196.88 568.536 189.353 570.679C188.845 570.833 188.408 571.164 188.122 571.612C187.837 572.06 187.721 572.595 187.796 573.121C187.87 573.647 188.131 574.128 188.53 574.479C188.93 574.829 189.441 575.025 189.973 575.031H240.55C241.058 574.996 241.538 574.788 241.911 574.442C242.284 574.096 242.527 573.633 242.6 573.129C242.672 572.626 242.57 572.112 242.309 571.675C242.049 571.238 241.647 570.903 241.17 570.727Z" fill="#E0E0E0"/>
<path d="M243.504 348.264H187.035C182.492 348.264 178.809 351.947 178.809 356.49V373.275C178.809 377.818 182.492 381.501 187.035 381.501H243.504C248.047 381.501 251.73 377.818 251.73 373.275V356.49C251.73 351.947 248.047 348.264 243.504 348.264Z" fill="#017875"/>
<path d="M186.511 381.517V384.407C186.511 386.789 189.099 388.727 192.275 388.727H238.327C241.503 388.727 244.092 386.789 244.092 384.407V381.517H186.511Z" fill="#017875"/>
<path opacity="0.3" d="M186.511 381.517V384.407C186.511 386.789 189.099 388.727 192.275 388.727H238.327C241.503 388.727 244.092 386.789 244.092 384.407V381.517H186.511Z" fill="white"/>
</svg>
